<svg xmlns="http://www.w3.org/2000/svg" viewBox="0 0 500 500"><g id="freepik--Floor--inject-11"><path id="freepik--floor--inject-11" d="M81,447.22C-12.32,393.33-12.32,306,81,252.09s244.65-53.88,338,0,93.33,141.24,0,195.13S174.34,501.1,81,447.22Z" style="fill:#fafafa"></path></g><g id="freepik--Windw--inject-11"><g id="freepik--Window--inject-11"><g id="freepik--window--inject-11"><g id="freepik--Frame--inject-11"><polygon points="25.71 258.69 28.23 260.19 111.37 212.2 108.85 210.69 25.71 258.69" style="fill:#fafafa"></polygon><polygon points="108.85 210.69 28.23 257.23 28.23 75.67 108.85 29.15 108.85 210.69" style="fill:#fff"></polygon><path d="M116.12,19.44,23.48,72.93v195.5l92.64-53.49ZM111.37,212.2l-83.14,48V75.67l83.13-48Z" style="fill:#f0f0f0"></path><polygon points="111.37 212.2 108.85 210.69 108.85 29.15 111.37 27.68 111.37 212.2" style="fill:#e0e0e0"></polygon><polygon points="28.23 198.3 28.23 201.26 111.37 153.26 108.85 151.76 28.23 198.3" style="fill:#fafafa"></polygon><polygon points="28.23 126.18 28.23 129.14 111.37 81.14 108.85 79.64 28.23 126.18" style="fill:#fafafa"></polygon><polygon points="116.12 19.44 113.56 17.98 20.92 71.47 23.48 72.93 116.12 19.44" style="fill:#fafafa"></polygon><polygon points="20.92 71.47 23.48 72.93 23.48 268.43 20.92 266.96 20.92 71.47" style="fill:#e0e0e0"></polygon><polygon points="64.88 54.52 67.43 53.04 67.43 237.57 64.88 236.11 64.88 54.52" style="fill:#e0e0e0"></polygon></g><polygon points="72.19 50.31 67.43 53.04 67.43 237.57 72.19 234.82 72.19 50.31" style="fill:#f0f0f0"></polygon><polygon points="116.12 78.4 116.12 83.88 23.48 137.36 23.48 131.88 116.12 78.4" style="fill:#f0f0f0"></polygon><polygon points="116.12 150.51 116.12 155.99 23.48 209.47 23.48 203.99 116.12 150.51" style="fill:#f0f0f0"></polygon><polygon points="67.43 106.5 64.88 105.03 28.23 126.18 28.23 129.14 67.43 106.5" style="fill:#fafafa"></polygon><polygon points="67.43 178.6 64.88 177.12 28.23 198.27 28.23 201.23 67.43 178.6" style="fill:#fafafa"></polygon></g></g></g><g id="freepik--Pictures--inject-11"><g id="freepik--Picture--inject-11"><g id="freepik--frame--inject-11"><polygon points="463.75 82.08 462 83.12 426.18 62.44 427.92 61.4 463.75 82.08" style="fill:#fafafa"></polygon><polygon points="427.92 61.4 462 81.07 462 45.38 427.92 25.72 427.92 61.4" style="fill:#fff"></polygon><path d="M422.88,64.34l42.41,24.49V43.48L422.88,19Zm3.3-39.64L462,45.38V83.12L426.18,62.44Z" style="fill:#f0f0f0"></path><polygon points="426.18 62.44 427.92 61.4 427.92 25.72 426.18 24.7 426.18 62.44" style="fill:#e0e0e0"></polygon><polygon points="422.88 18.99 424.66 17.98 467.07 42.47 465.3 43.48 422.88 18.99" style="fill:#fafafa"></polygon><polygon points="467.07 42.47 465.3 43.48 465.3 88.83 467.07 87.81 467.07 42.47" style="fill:#e0e0e0"></polygon></g><g id="freepik--Land--inject-11"><polygon points="429.25 60.33 460.67 78.47 460.67 69.4 452.81 51.26 447.92 55.8 449.68 63.4 438.83 40.2 429.25 51.26 429.25 60.33" style="fill:#f0f0f0"></polygon><path d="M448.22,42.5a5.15,5.15,0,0,1,2.32,4c0,1.48-1,2.08-2.32,1.34a5.12,5.12,0,0,1-2.33-4C445.89,42.36,446.93,41.76,448.22,42.5Z" style="fill:#f0f0f0"></path></g></g><g id="freepik--picture--inject-11"><g id="freepik--frame--inject-11"><polygon points="463.75 82.08 462 83.12 426.18 62.44 427.92 61.4 463.75 82.08" style="fill:#fafafa"></polygon><polygon points="427.92 61.4 462 81.07 462 45.38 427.92 25.72 427.92 61.4" style="fill:#fff"></polygon><path d="M422.88,64.34l42.41,24.49V43.48L422.88,19Zm3.3-39.64L462,45.38V83.12L426.18,62.44Z" style="fill:#f0f0f0"></path><polygon points="426.18 62.44 427.92 61.4 427.92 25.72 426.18 24.7 426.18 62.44" style="fill:#e0e0e0"></polygon><polygon points="422.88 18.99 424.66 17.98 467.07 42.47 465.3 43.48 422.88 18.99" style="fill:#fafafa"></polygon><polygon points="467.07 42.47 465.3 43.48 465.3 88.83 467.07 87.81 467.07 42.47" style="fill:#e0e0e0"></polygon></g><g id="freepik--land--inject-11"><polygon points="429.25 60.33 460.67 78.47 460.67 69.4 452.81 51.26 447.92 55.8 449.68 63.4 438.83 40.2 429.25 51.26 429.25 60.33" style="fill:#f0f0f0"></polygon><path d="M448.22,42.5a5.15,5.15,0,0,1,2.32,4c0,1.48-1,2.08-2.32,1.34a5.12,5.12,0,0,1-2.33-4C445.89,42.36,446.93,41.76,448.22,42.5Z" style="fill:#f0f0f0"></path></g></g><g id="freepik--picture--inject-11"><g id="freepik--frame--inject-11"><polygon points="463.75 144.26 462 145.3 426.18 124.62 427.92 123.58 463.75 144.26" style="fill:#fafafa"></polygon><polygon points="427.92 123.58 462 143.25 462 107.56 427.92 87.91 427.92 123.58" style="fill:#fff"></polygon><path d="M422.88,126.52,465.29,151V105.66L422.88,81.18Zm3.3-39.64L462,107.56V145.3l-35.82-20.68Z" style="fill:#f0f0f0"></path><polygon points="426.18 124.62 427.92 123.58 427.92 87.91 426.18 86.88 426.18 124.62" style="fill:#e0e0e0"></polygon><polygon points="422.88 81.18 424.66 80.16 467.07 104.65 465.3 105.66 422.88 81.18" style="fill:#fafafa"></polygon><polygon points="467.07 104.65 465.3 105.66 465.3 151.01 467.07 149.99 467.07 104.65" style="fill:#e0e0e0"></polygon></g><g id="freepik--land--inject-11"><polygon points="429.25 122.51 460.67 140.65 460.67 131.58 452.81 113.44 447.92 117.98 449.68 125.58 438.83 102.38 429.25 113.44 429.25 122.51" style="fill:#f0f0f0"></polygon><path d="M448.22,104.69a5.13,5.13,0,0,1,2.32,4c0,1.48-1,2.08-2.32,1.34a5.12,5.12,0,0,1-2.33-4C445.89,104.55,446.93,104,448.22,104.69Z" style="fill:#f0f0f0"></path></g></g><g id="freepik--picture--inject-11"><g id="freepik--frame--inject-11"><polygon points="137.8 82.08 139.54 83.12 175.37 62.44 173.62 61.4 137.8 82.08" style="fill:#fafafa"></polygon><polygon points="173.62 61.4 139.55 81.07 139.55 45.38 173.62 25.72 173.62 61.4" style="fill:#fff"></polygon><path d="M178.66,19,136.25,43.48V88.83l42.41-24.49Zm-3.29,43.45L139.55,83.12V45.38L175.37,24.7Z" style="fill:#f0f0f0"></path><polygon points="175.37 62.44 173.62 61.4 173.62 25.72 175.37 24.7 175.37 62.44" style="fill:#e0e0e0"></polygon><polygon points="178.66 18.99 176.89 17.98 134.48 42.47 136.25 43.48 178.66 18.99" style="fill:#fafafa"></polygon><polygon points="134.48 42.47 136.25 43.48 136.25 88.83 134.48 87.81 134.48 42.47" style="fill:#e0e0e0"></polygon></g><g id="freepik--land--inject-11"><polygon points="172.29 60.33 140.88 78.47 140.88 69.4 148.73 51.26 153.62 55.8 151.86 63.4 162.71 40.2 172.29 51.26 172.29 60.33" style="fill:#f0f0f0"></polygon><path d="M153.33,42.5a5.14,5.14,0,0,0-2.33,4c0,1.48,1.05,2.08,2.33,1.34a5.14,5.14,0,0,0,2.32-4C155.65,42.36,154.61,41.76,153.33,42.5Z" style="fill:#f0f0f0"></path></g></g></g><g id="freepik--Shadows--inject-11"><ellipse id="freepik--Shadow--inject-11" cx="318.34" cy="431.82" rx="65.78" ry="37.98" style="fill:#e0e0e0"></ellipse><path id="freepik--shadow--inject-11" d="M398.53,372l35.05-20.25c.57-.33.57-.86,0-1.18L364.4,310.63a2.28,2.28,0,0,0-2,0L327.3,330.88c-.57.33-.57.86,0,1.18L396.47,372A2.33,2.33,0,0,0,398.53,372Z" style="fill:#e0e0e0"></path><path id="freepik--shadow--inject-11" d="M455.63,367l37-21.38a.65.65,0,0,0,0-1.23L412.39,298a2.35,2.35,0,0,0-2.13,0l-37,21.37a.65.65,0,0,0,0,1.23L453.5,367A2.35,2.35,0,0,0,455.63,367Z" style="fill:#e0e0e0"></path><path id="freepik--shadow--inject-11" d="M40.88,407.78c-13.17,7.61-13.17,19.94,0,27.55s34.54,7.61,47.72,0,13.18-19.94,0-27.55S54.06,400.17,40.88,407.78Z" style="fill:#e0e0e0"></path><path id="freepik--shadow--inject-11" d="M225.78,348.06,79.35,432.56c-1.72,1-1.72,2.59,0,3.58l22.91,13.2a6.93,6.93,0,0,0,6.21,0l146.43-84.5c1.71-1,1.71-2.59,0-3.58L232,348.06A6.9,6.9,0,0,0,225.78,348.06Z" style="fill:#e0e0e0"></path><path id="freepik--shadow--inject-11" d="M238.11,361.83,110.47,435.47c-1.35.78-1.35,2,0,2.83l18.1,10.42a5.42,5.42,0,0,0,4.9,0l127.64-73.64c1.35-.78,1.35-2.05,0-2.83L243,361.83A5.42,5.42,0,0,0,238.11,361.83Z" style="fill:#e0e0e0"></path></g><g id="freepik--Plant--inject-11"><g id="freepik--plant--inject-11"><g id="freepik--Pot--inject-11"><path d="M46.52,423.81c-9.74-10.06-15.47-35.34-6-43.31H88.92c9.5,8,3.79,33.24-6,43.3l-.27.28-.34.33a11.42,11.42,0,0,1-.88.79l-.23.18c-.24.19-.47.38-.73.57-.42.29-.84.57-1.26.81-8,4.68-21,4.68-29,0h0a12.45,12.45,0,0,1-1.27-.82c-.25-.17-.46-.35-.69-.52l-.29-.23c-.3-.25-.58-.51-.85-.77l-.38-.38Z" style="fill:#FF725E"></path><path d="M46.52,423.81c-9.74-10.06-15.47-35.34-6-43.31H88.92c9.5,8,3.79,33.24-6,43.3l-.27.28-.34.33a11.42,11.42,0,0,1-.88.79l-.23.18c-.24.19-.47.38-.73.57-.42.29-.84.57-1.26.81-8,4.68-21,4.68-29,0h0a12.45,12.45,0,0,1-1.27-.82c-.25-.17-.46-.35-.69-.52l-.29-.23c-.3-.25-.58-.51-.85-.77l-.38-.38Z" style="fill:#fff;opacity:0.5"></path><path d="M84.72,377.29c11,6.44,11,16.88,0,23.33s-28.92,6.44-40,0-11-16.89,0-23.33S73.69,370.84,84.72,377.29Z" style="fill:#FF725E"></path><path d="M84.72,377.29c11,6.44,11,16.88,0,23.33s-28.92,6.44-40,0-11-16.89,0-23.33S73.69,370.84,84.72,377.29Z" style="fill:#fff;opacity:0.7000000000000001"></path><path d="M79.41,380.39c8.11,4.73,8.11,12.4,0,17.13s-21.24,4.73-29.34,0-8.11-12.4,0-17.13S71.31,375.65,79.41,380.39Z" style="fill:#FF725E"></path><path d="M79.41,380.39c8.11,4.73,8.11,12.4,0,17.13s-21.24,4.73-29.34,0-8.11-12.4,0-17.13S71.31,375.65,79.41,380.39Z" style="fill:#fff;opacity:0.35000000000000003"></path><path d="M50.07,388.52c8.1-4.73,21.24-4.73,29.34,0a13.44,13.44,0,0,1,4.86,4.5,13.53,13.53,0,0,1-4.86,4.5c-8.1,4.73-21.24,4.73-29.34,0a13.61,13.61,0,0,1-4.86-4.5A13.52,13.52,0,0,1,50.07,388.52Z" style="fill:#fafafa"></path></g><g id="freepik--Leaves--inject-11"><path d="M53.77,315.55c2.31,4.18-.91,11.31-7.65,12.58,2.11-2.95,4-7.56,2.27-8.21s.26,3.67-3.49,7.65c0,0-2,1-4.81-1.32,4.18-2.91,6.07-9,4.59-8.13-.6.34-1.64,3.35-4.15,5.23s-5,2-8.7-1.17c2.24-.36,5.47-1.22,7.34-3.49,1.34-1.63,1.75-2.67-1.32-.8s-4.06,2.67-7,2.54-5.41-3.18-5.41-3.18,4.75.49,5.85-1-3.94.71-7.22-.66a19.33,19.33,0,0,1-5.47-3.48s1.59-3.78,2.71-4.69c2.47,1.88,5.54,4.5,6,4s-.51-2.54-4.17-4.37a3.18,3.18,0,0,1,3-2.27s1.89.29,4.65,5.24c.58,1,1.88,2-.38-2a13.15,13.15,0,0,0-3.58-4.4,5,5,0,0,1,6.23.65c5.37,4.61,5.56,6.87,6.35,6.54.29-.12-.12-1.3-2.14-4.17a17.57,17.57,0,0,0-3.78-4.08s2.34-2.67,6.11-.13,6,7.78,6.24,7.87c.68.25-.32-3.93-1.81-6.19-1.38-2.11-2.15-3.08-2.15-3.08a5.6,5.6,0,0,1,6.3,2.19c2.71,3.55,2.26,8.73,3.14,8.48s-.67-8.48-.67-8.48S58.56,310.44,53.77,315.55Z" style="fill:#FF725E"></path><path d="M53.77,315.55c2.31,4.18-.91,11.31-7.65,12.58,2.11-2.95,4-7.56,2.27-8.21s.26,3.67-3.49,7.65c0,0-2,1-4.81-1.32,4.18-2.91,6.07-9,4.59-8.13-.6.34-1.64,3.35-4.15,5.23s-5,2-8.7-1.17c2.24-.36,5.47-1.22,7.34-3.49,1.34-1.63,1.75-2.67-1.32-.8s-4.06,2.67-7,2.54-5.41-3.18-5.41-3.18,4.75.49,5.85-1-3.94.71-7.22-.66a19.33,19.33,0,0,1-5.47-3.48s1.59-3.78,2.71-4.69c2.47,1.88,5.54,4.5,6,4s-.51-2.54-4.17-4.37a3.18,3.18,0,0,1,3-2.27s1.89.29,4.65,5.24c.58,1,1.88,2-.38-2a13.15,13.15,0,0,0-3.58-4.4,5,5,0,0,1,6.23.65c5.37,4.61,5.56,6.87,6.35,6.54.29-.12-.12-1.3-2.14-4.17a17.57,17.57,0,0,0-3.78-4.08s2.34-2.67,6.11-.13,6,7.78,6.24,7.87c.68.25-.32-3.93-1.81-6.19-1.38-2.11-2.15-3.08-2.15-3.08a5.6,5.6,0,0,1,6.3,2.19c2.71,3.55,2.26,8.73,3.14,8.48s-.67-8.48-.67-8.48S58.56,310.44,53.77,315.55Z" style="opacity:0.2"></path><path d="M42,328.64c2-2.63,4.74-5.59,8.25-5.95s6.77,1.5,9,4a29.64,29.64,0,0,1,5.17,8.84,67.21,67.21,0,0,1,3.2,10.4c3.41,14.69,4,29.85,3.44,44.87,0,1.17-.1,2.34-.15,3.52h1.59c0-.61.07-1.21.09-1.81a235.55,235.55,0,0,0-.07-23.62,137.45,137.45,0,0,0-3.23-23.28,70.36,70.36,0,0,0-3.41-11,29,29,0,0,0-5.42-9c-2.6-2.74-6.27-4.64-10.13-4.07s-6.36,3.73-8.51,6.83C41.72,328.46,41.85,328.78,42,328.64Z" style="fill:#455a64"></path><path d="M63.65,390.39c.26,2.42.48,4.83.67,7.25h1.76l-.21-2.82c-.66-8.18-1.78-16.31-3-24.43s-2.49-16.18-3.46-24.3c-.47-3.94-.9-7.89-1.13-11.85A50.3,50.3,0,0,1,58.69,323c.61-3.7,1.88-7.72,4.52-10.5,2.48-2.63,7.28-3.82,9.75-.49,0,0,.06,0,0-.05-1.54-2.84-5.53-3.52-8.28-2.2-3.22,1.54-5.17,4.83-6.4,8-2.85,7.41-2.12,15.61-1.35,23.34C58.62,357.63,61.86,373.92,63.65,390.39Z" style="fill:#455a64"></path><path d="M54.14,365.3c.46,4.16.89,8.34,1.19,12.52.39,5.49.61,11,.76,16.46H58c0-.82,0-1.65-.08-2.47a192.67,192.67,0,0,0-2.18-24.92c-.38-2.34-.89-4.65-1.38-7a64.61,64.61,0,0,0-1.82-7.38c-.08-.23-.3-.11-.27.1.26,2.1.72,4.17,1.06,6.26S53.9,363.16,54.14,365.3Z" style="fill:#455a64"></path><path d="M65.81,351.91c.82-3.56,7-8.71,17.94-8.89a28.87,28.87,0,0,1,11.42,2.3c-7.1.31-16.5,1.43-17,4.1s3.15,1,6.53-.35c7.35-2.85,12-3,12-3a21.5,21.5,0,0,1,9.23,6c-7.74-2.75-16.59-1.42-20.17.5s-3.47,3.55-.44,2.5,8.91-3.32,24.18,0c0,0,3.16,2.08,4.38,8.39C111,361,107,360,103.39,359.31a47.29,47.29,0,0,0-11.06-1.15c-.66,0-2,.11-2.31.81s.39,1.39,1,1.62a11.93,11.93,0,0,0,4,.57c1.78,0,3.58.2,5.35.38a51.81,51.81,0,0,1,8.77,1.28c1.56.43,4.77,4.46,4.6,9-3.8-.68-11.8-5.24-17.38-4.67s1,1.62,5.68,3.29c4,1.43,11.21,4.58,11.21,4.58a90.91,90.91,0,0,1-2,11.37,34.66,34.66,0,0,1-11.66.13s-3.75-10.82-6.51-11.82S92.48,378,95,381.81s3.18,5.2,3.18,5.2-11.26,2.12-15.88-1.62c-.16-2.3.12-8.31.18-12.3.06-4.2,1-7.72-.28-8.45s-2.51,2.64-3.26,6.76a46.86,46.86,0,0,0-.13,12.48s-7.91-1.44-10.64-3.69c-3.13-6.7.5-14.39,1.3-15.55s-.94-4.84-4.88.23a11.72,11.72,0,0,0-2.08,11s-5.76-.53-8.17-5.46C50.42,362.45,53.66,354.24,65.81,351.91Z" style="fill:#FF725E"></path><path d="M65.81,351.91c.82-3.56,7-8.71,17.94-8.89a28.87,28.87,0,0,1,11.42,2.3c-7.1.31-16.5,1.43-17,4.1s3.15,1,6.53-.35c7.35-2.85,12-3,12-3a21.5,21.5,0,0,1,9.23,6c-7.74-2.75-16.59-1.42-20.17.5s-3.47,3.55-.44,2.5,8.91-3.32,24.18,0c0,0,3.16,2.08,4.38,8.39C111,361,107,360,103.39,359.31a47.29,47.29,0,0,0-11.06-1.15c-.66,0-2,.11-2.31.81s.39,1.39,1,1.62a11.93,11.93,0,0,0,4,.57c1.78,0,3.58.2,5.35.38a51.81,51.81,0,0,1,8.77,1.28c1.56.43,4.77,4.46,4.6,9-3.8-.68-11.8-5.24-17.38-4.67s1,1.62,5.68,3.29c4,1.43,11.21,4.58,11.21,4.58a90.91,90.91,0,0,1-2,11.37,34.66,34.66,0,0,1-11.66.13s-3.75-10.82-6.51-11.82S92.48,378,95,381.81s3.18,5.2,3.18,5.2-11.26,2.12-15.88-1.62c-.16-2.3.12-8.31.18-12.3.06-4.2,1-7.72-.28-8.45s-2.51,2.64-3.26,6.76a46.86,46.86,0,0,0-.13,12.48s-7.91-1.44-10.64-3.69c-3.13-6.7.5-14.39,1.3-15.55s-.94-4.84-4.88.23a11.72,11.72,0,0,0-2.08,11s-5.76-.53-8.17-5.46C50.42,362.45,53.66,354.24,65.81,351.91Z" style="opacity:0.25"></path><path d="M44,326c5.43-.83,13.12.55,17.07,5s4.15,9.8,3,12.55-2.5-4.22-6.65-7.57-6.13-3.11-2.62.41,8.09,10,8.74,14.06S60.25,359,59,358.7s.26-4.49-1.64-10.43-5.83-9.88-8.92-10.84-2.31.08,1.75,4.75,8.71,14.11,6.76,18.56-6.46,5.9-7.64,5.48,1.81-6-.42-13.25-7.06-12.44-9.7-10.88-.7,3.57,1.76,9,5.66,16.3,4.44,19.75-7.73,5.72-8.67,4.63,2.07-7,.58-14.58-4.62-10.62-5-7.51,3.75,17.94,2.5,20.41-13.06,6.26-13.06,6.26-6-7.66-6.38-9.94,5.19-11.45,8.2-14.06-.74-2.87-3.15-1.11-7.8,8.41-8.26,11.87c-3-3.55-5.72-8-3-10.92s10.87-7.61,15.63-9.25,8.31-6.29,2-5.1S9.58,348.46,7.64,352.87c-.74-4,.37-15.06,7.28-16.84s14.13-1.22,16.29-1.94-.59-2.64-5.81-3-12.16,0-14.88,3.35c.21-4.35.79-8.7,8.79-8.73S30.72,329,32,328.13s-5-4.25-9.62-4.55a10.91,10.91,0,0,1,11.49-3.65A18.39,18.39,0,0,1,44,326Z" style="fill:#FF725E"></path><path d="M71,307.57c1.56-3.87,7.38-5.17,10.14-3.93-3,.71-5.5,3.09-3.83,2.37,3.51-1.52,5.7-2.19,9.75-1.35a6.88,6.88,0,0,1,5.1,4.49A24.59,24.59,0,0,0,83.92,308c-1.35.07-4.9.62-.53.65,6.87,0,9.42,2.53,9.42,2.53a9.26,9.26,0,0,1,2.46,5c-3.56-3.87-9.41-4.54-11.57-4.77s-4.15.88-.58,1.17,10.08,2.81,12,6.41.46,9.16.46,9.16-8-11.16-11-9.88c-.07,1.68,8.41,7.38,9.83,10.53s-1.81,9.63-1.81,9.63-7.89-.61-9.92-2-1.19-10-2.26-11.28-4.08,5.25-2.77,10.93c0,0-4,.54-4.67-2.58s.82-9.53,2.62-12.41-1-2.29-2.52-.1-3.51,7-3.1,10.27c0,0-4.55-2.16-5.71-4.59s3.18-8.87,5.35-10.47.26-2.94-1.91-1.34-5.75,6.51-6.14,9c-2.32-4.44-2.49-10.06,1.49-14.11C67.33,305.51,71,307.57,71,307.57Z" style="fill:#FF725E"></path></g></g></g><g id="freepik--Bags--inject-11"><g id="freepik--light-bag--inject-11"><path d="M439.64,189.55c2.39-1.37,5.33-1.2,8.26.49,6.78,3.91,12.29,15.21,12.29,25.2v23.53a1.07,1.07,0,1,1-2.14,0V215.24c0-9.3-5-19.77-11.21-23.34-2.29-1.32-4.41-1.49-6.13-.49-2.55,1.47-4,5.21-4,10.26V225.1a1.07,1.07,0,1,1-2.14,0V201.67C434.55,195.84,436.41,191.42,439.64,189.55Z" style="fill:#263238"></path><polygon points="387.07 324.48 393.66 211.36 412.53 200.5 418.71 306.21 387.07 324.48" style="fill:#FF725E"></polygon><polygon points="387.07 324.48 393.66 211.36 412.53 200.5 418.71 306.21 387.07 324.48" style="fill:#fff;opacity:0.4"></polygon><polygon points="478.81 238.77 485 344.48 418.71 306.21 412.53 200.5 478.81 238.77" style="fill:#FF725E"></polygon><polygon points="478.81 238.77 485 344.48 418.71 306.21 412.53 200.5 478.81 238.77" style="fill:#fff;opacity:0.30000000000000004"></polygon><polygon points="478.81 238.77 485 344.48 418.71 306.21 412.53 200.5 478.81 238.77" style="opacity:0.05"></polygon><polygon points="478.81 238.77 459.94 249.63 453.35 362.75 485 344.48 478.81 238.77" style="fill:#FF725E"></polygon><polygon points="478.81 238.77 459.94 249.63 453.35 362.75 485 344.48 478.81 238.77" style="fill:#fff;opacity:0.55"></polygon><polygon points="453.35 362.75 466.95 343.65 468.66 276.98 470.36 342.5 485 344.48 453.35 362.75" style="fill:#FF725E;opacity:0.5"></polygon><path d="M387.07,324.48l66.28,38.27,6.59-113.12-66.28-38.27Zm50.77-76.31c0-1.52,1.06-2.14,2.37-1.39a5.25,5.25,0,0,1,2.37,4.1c0,1.51-1.06,2.14-2.37,1.39A5.19,5.19,0,0,1,437.84,248.17Zm-23.49-13.66c0-1.53,1.06-2.15,2.37-1.39a5.24,5.24,0,0,1,2.36,4.1c0,1.51-1.06,2.13-2.36,1.39A5.2,5.2,0,0,1,414.35,234.51Z" style="fill:#FF725E"></path><path d="M387.07,324.48l66.28,38.27,6.59-113.12-66.28-38.27Zm50.77-76.31c0-1.52,1.06-2.14,2.37-1.39a5.25,5.25,0,0,1,2.37,4.1c0,1.51-1.06,2.14-2.37,1.39A5.19,5.19,0,0,1,437.84,248.17Zm-23.49-13.66c0-1.53,1.06-2.15,2.37-1.39a5.24,5.24,0,0,1,2.36,4.1c0,1.51-1.06,2.13-2.36,1.39A5.2,5.2,0,0,1,414.35,234.51Z" style="fill:#fff;opacity:0.7000000000000001"></path><path d="M420.73,200.31c2.4-1.38,5.33-1.2,8.27.49,6.77,3.91,12.28,15.21,12.28,25.19v23.54a1.07,1.07,0,0,1-2.14,0V226c0-9.29-5-19.76-11.21-23.33-2.28-1.32-4.4-1.49-6.13-.5-2.55,1.48-4,5.22-4,10.27v23.43a1.07,1.07,0,1,1-2.14,0V212.43C415.65,206.6,417.5,202.18,420.73,200.31Z" style="fill:#37474f"></path></g><g id="freepik--dark-bag--inject-11"><path d="M385.63,217.55c2.09-1.2,4.65-1.05,7.22.43,5.91,3.41,10.72,13.27,10.72,22V260.5a.94.94,0,0,1-1.87,0V240c0-8.11-4.39-17.25-9.79-20.37-2-1.15-3.84-1.29-5.34-.42-2.23,1.28-3.51,4.55-3.51,9v20.44a.94.94,0,0,1-1.87,0V228.13C381.19,223,382.81,219.18,385.63,217.55Z" style="fill:#263238"></path><polygon points="339.75 335.3 345.5 236.58 361.97 227.1 367.37 319.36 339.75 335.3" style="fill:#FF725E"></polygon><polygon points="339.75 335.3 345.5 236.58 361.97 227.1 367.37 319.36 339.75 335.3" style="opacity:0.2"></polygon><polygon points="419.82 260.5 425.22 352.76 367.37 319.36 361.97 227.1 419.82 260.5" style="fill:#FF725E"></polygon><polygon points="419.82 260.5 425.22 352.76 367.37 319.36 361.97 227.1 419.82 260.5" style="opacity:0.30000000000000004"></polygon><polygon points="419.82 260.5 403.35 269.98 397.6 368.7 425.22 352.76 419.82 260.5" style="fill:#FF725E"></polygon><polygon points="419.82 260.5 403.35 269.98 397.6 368.7 425.22 352.76 419.82 260.5" style="opacity:0.15"></polygon><polygon points="397.6 368.7 409.47 352.04 410.96 293.85 412.44 351.03 425.22 352.76 397.6 368.7" style="opacity:0.15"></polygon><path d="M339.75,335.3l57.85,33.4L403.35,270l-57.84-33.4Zm44.31-66.59c0-1.33.93-1.87,2.07-1.21a4.57,4.57,0,0,1,2.07,3.58c0,1.31-.93,1.86-2.07,1.21A4.54,4.54,0,0,1,384.06,268.71Zm-20.5-11.93c0-1.33.93-1.87,2.07-1.21a4.56,4.56,0,0,1,2.06,3.58c0,1.31-.92,1.86-2.06,1.21A4.54,4.54,0,0,1,363.56,256.78Z" style="fill:#FF725E"></path><path d="M369.13,226.94c2.09-1.21,4.65-1.05,7.22.43,5.91,3.41,10.71,13.27,10.71,22v20.54a.93.93,0,0,1-1.86,0V249.35c0-8.11-4.39-17.25-9.79-20.37-2-1.15-3.84-1.29-5.34-.43-2.23,1.29-3.51,4.56-3.51,9V258a.94.94,0,0,1-1.87,0V237.52C364.69,232.42,366.31,228.57,369.13,226.94Z" style="fill:#37474f"></path></g></g><g id="freepik--Device--inject-11"><g id="freepik--Mobile--inject-11"><path d="M242.56,356.9v-294c0-7.56-3.76-9.65-7.09-11.58s-8.83-3.09-13.58-.35L100.48,121c-4.74,2.73-8.59,9.39-8.59,14.87v294c0,5.47,3.44,8.7,6.77,10.63s9.16,4,13.9,1.3L234,371.77A16.16,16.16,0,0,0,242.56,356.9Z" style="fill:#37474f"></path><path d="M234.84,359.68,110,431.76l0-295.29-15.62-9a17.47,17.47,0,0,0-2.52,8.46v294c0,5.47,3.44,8.7,6.77,10.63s9.16,4,13.9,1.3L234,371.77a16.38,16.38,0,0,0,7.43-8.29l-.48-.28Z" style="fill:#263238"></path><path d="M233.75,60.33,112,130.63a13.37,13.37,0,0,0-6,10.43V432.7c0,5.88,4.17,8.29,9.27,5.34l118.52-68.42a15.14,15.14,0,0,0,6.83-11.83V64.27C240.58,59.93,237.51,58.16,233.75,60.33Z" style="fill:#455a64"></path><path d="M234.64,78.21V350.83a14.37,14.37,0,0,1-6.49,11.24L118.38,425.45c-3.58,2.08-6.48.41-6.48-3.74V147.09a14.47,14.47,0,0,1,4.55-9.77l.61-.56a11.87,11.87,0,0,1,1.32-.9L149.26,118l2-1.16c1.11-.64,2-.13,2,1.16s1,1.78,2.16,1.08l36-20.77a4.61,4.61,0,0,0,2.15-3.56,4.55,4.55,0,0,1,1.8-3.37l.21-.13,30.2-17.43.65-.38C231,70.87,234.64,73,234.64,78.21Z"></path><path d="M218.73,354.79a14.37,14.37,0,0,0,6.49-11.24V74.18l-29.64,17.1-.21.13a4.55,4.55,0,0,0-1.8,3.37,4.61,4.61,0,0,1-2.15,3.56l-36,20.77c-1.19.7-2.16.2-2.16-1.08s-.9-1.8-2-1.16l-2,1.16-30.88,17.83a11.87,11.87,0,0,0-1.32.9l-.61.56a14.47,14.47,0,0,0-4.55,9.77V416.47Z" style="fill:#263238"></path><path d="M160.9,108.14l16.49-9.52c1-.57,1.79-.17,1.79.9a3.83,3.83,0,0,1-1.79,3L160.9,112c-1,.57-1.78.16-1.78-.9A3.83,3.83,0,0,1,160.9,108.14Z" style="fill:#263238"></path><path d="M185.86,93c1.11-.64,2-.12,2,1.16a4.41,4.41,0,0,1-2,3.47c-1.11.64-2,.12-2-1.16A4.42,4.42,0,0,1,185.86,93Z" style="fill:#263238"></path><path d="M103.16,171.18a7.29,7.29,0,0,0-3.18-5.74,2.11,2.11,0,0,0-2.17-.17c-.4.24-2,1.11-2.38,1.36a2.46,2.46,0,0,0-1,2.25v24a7.25,7.25,0,0,0,3.17,5.74,2.18,2.18,0,0,0,2.1.22c.44-.23,2-1.16,2.45-1.4a2.48,2.48,0,0,0,1-2.26Z" style="fill:#455a64"></path><path d="M100.79,172.55V196.5c0,2.16-1.42,3.09-3.17,2.08a7.25,7.25,0,0,1-3.17-5.74v-24c0-2.16,1.42-3.09,3.17-2.07A7.25,7.25,0,0,1,100.79,172.55Z" style="fill:#37474f"></path><path d="M103.16,213.11a7.26,7.26,0,0,0-3.18-5.73,2.09,2.09,0,0,0-2.17-.18c-.4.24-2,1.11-2.38,1.36a2.46,2.46,0,0,0-1,2.25v24a7.25,7.25,0,0,0,3.17,5.74,2.15,2.15,0,0,0,2.1.22c.44-.23,2-1.15,2.45-1.4a2.48,2.48,0,0,0,1-2.26Z" style="fill:#455a64"></path><path d="M100.79,214.48v24c0,2.16-1.42,3.09-3.17,2.08a7.25,7.25,0,0,1-3.17-5.74v-24c0-2.16,1.42-3.08,3.17-2.07A7.25,7.25,0,0,1,100.79,214.48Z" style="fill:#37474f"></path></g><g id="freepik--window--inject-11"><path d="M244.57,80.63c-1.51-.86-3.58-.74-5.87.58l-.65.38L207.39,99.28l-.21.13a4.65,4.65,0,0,0-1.84,3.43,4.7,4.7,0,0,1-2.18,3.61l-36.53,21.09-.08,0a1.42,1.42,0,0,0-.59-1.24l-2.11-1.22a1.43,1.43,0,0,0-1.44.15c-1.13.64-2,1.18-2,1.18L129,144.54a11.31,11.31,0,0,0-1.34.91l-.62.56a14.73,14.73,0,0,0-4.62,9.93V434.71c0,2.1.73,3.57,1.92,4.26l2.12,1.22c1.19.69,2.84.59,4.65-.47l111.43-64.33A14.58,14.58,0,0,0,249.14,364V87.23c0-2.64-.93-4.5-2.43-5.37Z" style="fill:#FF725E"></path><path d="M131.75,438.82v.54l-.62.36c-1.81,1.06-3.46,1.16-4.65.47L124.36,439c-1.19-.7-1.92-2.16-1.92-4.26V155.94a13.71,13.71,0,0,1,2.27-7l2.51,1.44a13.44,13.44,0,0,0-2.2,6.81V435.93a5.06,5.06,0,0,0,.9,3.17,2.78,2.78,0,0,0,2.26,1.07,5.66,5.66,0,0,0,2.72-.85Z" style="opacity:0.30000000000000004"></path><path d="M208.69,101.92a3.89,3.89,0,0,0-.77,2.13,4.67,4.67,0,0,1-.81,2.45L204.58,105a4.19,4.19,0,0,0,.77-2.21,4.43,4.43,0,0,1,.82-2.37Z" style="opacity:0.30000000000000004"></path><path d="M128.18,440.16a2.78,2.78,0,0,1-2.26-1.05,5.11,5.11,0,0,1-.9-3.18V157.16a14.31,14.31,0,0,1,4.47-9.59l.2-.18.41-.37a10.83,10.83,0,0,1,1.26-.86l31.35-18.1,2-1.18a1.45,1.45,0,0,1,.68-.22c.6,0,.66.7.66,1a1.68,1.68,0,0,0,1.63,1.89,2.57,2.57,0,0,0,1.26-.38l36.52-21.09a5.12,5.12,0,0,0,2.42-4,4.15,4.15,0,0,1,1.64-3l.17-.1,30.66-17.7.66-.38a7.12,7.12,0,0,1,3.47-1.07c2.56,0,4.16,2.1,4.16,5.47V364a14,14,0,0,1-6.35,11L130.9,439.32A5.61,5.61,0,0,1,128.18,440.16Z" style="fill:#fafafa"></path><path d="M125,402.62v33.31a5.11,5.11,0,0,0,.9,3.18,2.78,2.78,0,0,0,2.26,1.05,5.61,5.61,0,0,0,2.72-.84L242.33,375a14,14,0,0,0,6.35-11V331.22Z" style="fill:#FF725E"></path><g style="opacity:0.5"><path d="M125,402.62v33.31a5.11,5.11,0,0,0,.9,3.18,2.78,2.78,0,0,0,2.26,1.05,5.61,5.61,0,0,0,2.72-.84L242.33,375a14,14,0,0,0,6.35-11V331.22Z" style="fill:#fff"></path></g><path d="M191.88,383.22c0,3.72-2.26,8-5,9.65s-5.05-.1-5.05-3.82,2.26-8,5.05-9.64S191.88,379.5,191.88,383.22Z" style="fill:#fafafa"></path><path d="M148.48,413.84l-7-.33c-.77,0-.77-1.49,0-2.41l7-8.39c.67-.79,1.43-.59,1.43.39v8.71C149.91,412.79,149.15,413.87,148.48,413.84Z" style="fill:#fafafa"></path><path d="M231.59,361.1a7.91,7.91,0,0,0,.06-.84,6.17,6.17,0,0,0-.06-.77l1.1-1.49a.51.51,0,0,0,.09-.5l-1-1.72c-.07-.11-.23-.08-.34.08l-1.12,1.49a1.91,1.91,0,0,0-1-.21v-1.7c0-.18-.11-.27-.25-.19l-2,1.15a.6.6,0,0,0-.25.48v1.7a7.79,7.79,0,0,0-1,1.4l-1.11-.2c-.12,0-.28.12-.35.31l-1,2.87c-.07.19,0,.37.1.39l1.1.22a7.89,7.89,0,0,0-.05.84,6.23,6.23,0,0,0,.05.77l-1.1,1.5a.52.52,0,0,0-.1.52l1,1.7c.07.13.23.1.35-.07l1.11-1.5a1.86,1.86,0,0,0,1,.21v1.7c0,.18.11.27.25.19l2-1.15a.6.6,0,0,0,.25-.48v-1.7a8.77,8.77,0,0,0,1-1.4l1.12.21c.11,0,.27-.12.34-.32l1-2.85c.07-.21,0-.39-.09-.42Zm-3.54,3.78c-1.05.6-1.9,0-1.9-1.44a4.57,4.57,0,0,1,1.9-3.64c1-.6,1.9,0,1.9,1.44A4.57,4.57,0,0,1,228.05,364.88Z" style="fill:#fafafa"></path><path d="M244.52,81.76a7.12,7.12,0,0,0-3.47,1.07l-.66.38-30.66,17.7-.17.1a4.15,4.15,0,0,0-1.64,3,5.12,5.12,0,0,1-2.42,4L169,129.16a2.57,2.57,0,0,1-1.26.38,1.68,1.68,0,0,1-1.63-1.89c0-.29-.06-1-.66-1a1.45,1.45,0,0,0-.68.22l-2,1.18-31.35,18.1a10.83,10.83,0,0,0-1.26.86l-.41.37-.2.18a14.31,14.31,0,0,0-4.47,9.59v32.75L248.68,118.5V87.23C248.68,83.86,247.08,81.76,244.52,81.76Z" style="fill:#455a64"></path><path d="M133.93,157.25a.39.39,0,0,1,0,.18.31.31,0,0,1-.12.13l-.25.15c-.05,0-.08,0-.12,0a.14.14,0,0,1-.05-.12v-4.5l-1,1.57a.31.31,0,0,1-.12.13.13.13,0,0,1-.11,0l-.15-.17a.17.17,0,0,1,0-.15.43.43,0,0,1,.06-.18l1.31-2.09.1-.12.1-.06.25-.15a.13.13,0,0,1,.12,0,.17.17,0,0,1,0,.13Z" style="fill:#fafafa"></path><path d="M136.51,155.76a.49.49,0,0,1,0,.19.3.3,0,0,1-.12.13l-.25.14a.08.08,0,0,1-.11,0s0-.06,0-.12v-4.5l-1,1.58a.34.34,0,0,1-.12.12.12.12,0,0,1-.12,0l-.14-.17a.2.2,0,0,1,0-.14.49.49,0,0,1,.07-.19l1.31-2.09a.27.27,0,0,1,.1-.11l.09-.07.25-.14s.09,0,.12,0a.14.14,0,0,1,0,.12Z" style="fill:#fafafa"></path><path d="M138,151.31a.11.11,0,0,1,.12,0,.17.17,0,0,1,.05.13V152a.41.41,0,0,1-.05.18.26.26,0,0,1-.12.13l-.41.24a.08.08,0,0,1-.11,0,.16.16,0,0,1-.05-.13v-.54a.49.49,0,0,1,.05-.19.36.36,0,0,1,.11-.13Zm0,2.85a.13.13,0,0,1,.12,0,.16.16,0,0,1,.05.13v.54a.49.49,0,0,1-.05.19.3.3,0,0,1-.12.13l-.41.23a.09.09,0,0,1-.11,0,.17.17,0,0,1-.05-.13v-.55a.41.41,0,0,1,.05-.18.29.29,0,0,1,.11-.13Z" style="fill:#fafafa"></path><path d="M139.37,152.84a.49.49,0,0,0,.35.41.86.86,0,0,0,.63-.13,2.08,2.08,0,0,0,.38-.3,1.74,1.74,0,0,0,.3-.4,1.81,1.81,0,0,0,.21-.49,2,2,0,0,0,.08-.56,1.24,1.24,0,0,0-.08-.47.45.45,0,0,0-.21-.25.43.43,0,0,0-.3-.05,1.07,1.07,0,0,0-.38.15,1.43,1.43,0,0,0-.37.28,1.78,1.78,0,0,0-.23.28l-.16.24a.49.49,0,0,1-.16.16l-.31.18a.09.09,0,0,1-.1,0,.11.11,0,0,1,0-.1l.19-2.83a.39.39,0,0,1,0-.18.34.34,0,0,1,.12-.14l2.16-1.24a.09.09,0,0,1,.12,0,.14.14,0,0,1,0,.12v.29a.45.45,0,0,1,0,.19.51.51,0,0,1-.12.13l-1.78,1-.1,1.47a2.63,2.63,0,0,1,.29-.29,2,2,0,0,1,.45-.32,1.42,1.42,0,0,1,.6-.22.79.79,0,0,1,.49.09.82.82,0,0,1,.34.41,1.92,1.92,0,0,1,.12.73,3.22,3.22,0,0,1-.12.88,3.32,3.32,0,0,1-.34.8,3.23,3.23,0,0,1-.49.66,2.64,2.64,0,0,1-.6.48,1.72,1.72,0,0,1-.59.22.88.88,0,0,1-.49,0,.7.7,0,0,1-.34-.3,1.12,1.12,0,0,1-.13-.55.28.28,0,0,1,0-.15.25.25,0,0,1,.09-.11l.28-.16s.07,0,.1,0S139.36,152.79,139.37,152.84Z" style="fill:#fafafa"></path><path d="M143,150.86a.9.9,0,0,0,.08.21.3.3,0,0,0,.17.14.7.7,0,0,0,.29,0A2.14,2.14,0,0,0,144,151a2,2,0,0,0,.66-.63,2.48,2.48,0,0,0,.2-.44,1.7,1.7,0,0,0,.08-.51.86.86,0,0,0-.08-.4.33.33,0,0,0-.19-.18.62.62,0,0,0-.3,0,1.72,1.72,0,0,0-.37.17l-.51.29a.11.11,0,0,1-.12,0,.17.17,0,0,1,0-.13v-.3a.49.49,0,0,1,0-.15,1,1,0,0,0,.07-.15l1.1-2.21-1.76,1a.09.09,0,0,1-.12,0,.14.14,0,0,1-.05-.12V147a.41.41,0,0,1,.05-.18c0-.06.07-.11.12-.13l2.41-1.39a.11.11,0,0,1,.12,0,.17.17,0,0,1,0,.13v.29a.38.38,0,0,1,0,.17l-.07.18-1.09,2.18a1.65,1.65,0,0,1,.56-.2.64.64,0,0,1,.44.09.7.7,0,0,1,.28.36,1.6,1.6,0,0,1,.1.63,2.79,2.79,0,0,1-.12.81,3.63,3.63,0,0,1-.33.75,3.3,3.3,0,0,1-.48.62,3.12,3.12,0,0,1-.59.47,2.34,2.34,0,0,1-.71.28.85.85,0,0,1-.49-.05.65.65,0,0,1-.29-.3,1.16,1.16,0,0,1-.1-.47.28.28,0,0,1,0-.15.35.35,0,0,1,.09-.11l.29-.16s.08,0,.1,0A.15.15,0,0,1,143,150.86Z" style="fill:#fafafa"></path><path d="M152.54,141.25h0m0,0-1.88,6.43v-2.8l-2.1,1.21,4-4.84m0-.48h0a.42.42,0,0,0-.23.08.39.39,0,0,0-.1.08l0,0-4,4.84a.47.47,0,0,0,0,.61.5.5,0,0,0,.37.17.53.53,0,0,0,.24-.06l1.38-.8v2a.48.48,0,0,0,.41.48h.07a.48.48,0,0,0,.46-.34l1.87-6.39a.58.58,0,0,0,0-.18.49.49,0,0,0-.48-.48Zm0,1h0Z" style="fill:#fafafa"></path><polygon points="217.97 108.89 216.94 109.48 216.94 107.48 217.97 106.89 217.97 108.89" style="fill:#fafafa"></polygon><polygon points="219.59 107.95 218.56 108.55 218.56 105.68 219.59 105.09 219.59 107.95" style="fill:#fafafa"></polygon><polygon points="221.21 107.02 220.19 107.61 220.19 103.66 221.21 103.06 221.21 107.02" style="fill:#fafafa"></polygon><polygon points="222.84 106.08 221.81 106.67 221.81 101.67 222.84 101.08 222.84 106.08" style="fill:#FF725E"></polygon><path d="M230,96.82a7.66,7.66,0,0,0-2.72,3l.68.54a5.58,5.58,0,0,1,2-2.28,1.83,1.83,0,0,1,2-.08l.68-1.32A2.47,2.47,0,0,0,230,96.82Zm-1.77,3.79.62.49A3.24,3.24,0,0,1,230,99.81a1,1,0,0,1,1.15,0l.62-1.21a1.55,1.55,0,0,0-1.77.06A5,5,0,0,0,228.21,100.61Zm.91.73.86.68.86-1.69a.77.77,0,0,0-.86,0A2.38,2.38,0,0,0,229.12,101.34Z" style="fill:#fafafa"></path><path d="M242.34,89.82c.36-.21.66,0,.66.5v3.23a1.6,1.6,0,0,1-.66,1.27l-5.76,3.33c-.37.21-.67,0-.67-.51V94.42a1.58,1.58,0,0,1,.67-1.27l5.76-3.33m0-.28-5.76,3.33a2.09,2.09,0,0,0-.87,1.67v3.22c0,.64.39.94.87.66l5.76-3.32a2.1,2.1,0,0,0,.87-1.67V90.2c0-.64-.39-.93-.87-.66Z" style="fill:#FF725E"></path><path d="M240,95.36l-3.25,1.88c-.15.08-.27,0-.27-.21V94.36a.66.66,0,0,1,.27-.52L240,92c.14-.09.27,0,.27.2v2.68A.65.65,0,0,1,240,95.36Z" style="fill:#fafafa"></path><path d="M243.83,92.33l-.23.14V90.72l.23-.13c.12-.08.23.26.23.74A1.6,1.6,0,0,1,243.83,92.33Z" style="fill:#FF725E"></path><path d="M243.6,110.91a11.46,11.46,0,0,1-1.66,5.65,8.55,8.55,0,0,1-2.91,3.07,3,3,0,0,1-2.89.29c-1-.53-1.67-1.85-1.67-3.74,0-3.36,2.05-7.26,4.56-8.72S243.6,107.55,243.6,110.91Z" style="fill:#FF725E"></path><path d="M243.6,110.91a11.46,11.46,0,0,1-1.66,5.65,8.55,8.55,0,0,1-2.91,3.07,3,3,0,0,1-2.89.29c-1-.53-1.67-1.85-1.67-3.74,0-3.36,2.05-7.26,4.56-8.72S243.6,107.55,243.6,110.91Z" style="fill:#fff;opacity:0.75"></path><path d="M240.49,111.48a3.46,3.46,0,0,1-1.45,2.76c-.8.47-1.45,0-1.45-1.09a3.47,3.47,0,0,1,1.45-2.77C239.84,109.92,240.49,110.41,240.49,111.48Z" style="fill:#FF725E"></path><path d="M241.94,115.3v1.26a8.55,8.55,0,0,1-2.91,3.07,3,3,0,0,1-2.89.29v-1.27a3.36,3.36,0,0,1,1.4-2.68l3-1.73C241.31,113.8,241.94,114.27,241.94,115.3Z" style="fill:#FF725E"></path><path d="M141.09,162.39v11.2l-1.19.69v-7.23q0-.44,0-1l-2.2,7.63a1.13,1.13,0,0,1-.48.73l-.19.11c-.21.13-.37.06-.48-.18l-2.22-5.1,0,.49c0,.16,0,.31,0,.45v7.23l-1.2.69V167l1-.59.16-.09a.27.27,0,0,1,.12,0,.12.12,0,0,1,.09,0,.56.56,0,0,1,.09.14l2.17,5a4.09,4.09,0,0,1,.16.42l.15.46c0-.22.09-.43.14-.64s.11-.41.16-.61l2.15-7.44q0-.14.09-.24a.56.56,0,0,1,.1-.15l.11-.11.16-.1Z" style="fill:#fafafa"></path><path d="M148.94,169.06l-1.05.6a.25.25,0,0,1-.28,0,.44.44,0,0,1-.17-.24l-.54-2-3,1.74-.55,2.6a1.87,1.87,0,0,1-.15.41.8.8,0,0,1-.29.31l-1.06.61,2.87-12.84,1.37-.8Zm-2.39-2.85-.88-3.21a5.27,5.27,0,0,1-.14-.52c-.05-.2-.09-.41-.14-.65,0,.29-.09.56-.14.82s-.09.48-.13.68l-.88,4.21Z" style="fill:#fafafa"></path><path d="M155.37,165.34l-1.22.71c-.23.13-.4.09-.5-.13l-1.53-2.7a.36.36,0,0,0-.19-.18.41.41,0,0,0-.3.09l-.58.34v4.37l-1.36.78V157.43l2.22-1.29a3.54,3.54,0,0,1,1.27-.49,1.16,1.16,0,0,1,.87.16,1.3,1.3,0,0,1,.5.73,3.86,3.86,0,0,1,.16,1.21,6.17,6.17,0,0,1-.1,1.13,6.53,6.53,0,0,1-.32,1.09,5.28,5.28,0,0,1-.5,1,5.5,5.5,0,0,1-.68.89.56.56,0,0,1,.24.13.94.94,0,0,1,.2.26Zm-3.48-3.86a2.49,2.49,0,0,0,.67-.53,3.38,3.38,0,0,0,.47-.67,3.6,3.6,0,0,0,.27-.78,3.84,3.84,0,0,0,.09-.83c0-.57-.12-.94-.36-1.1s-.62-.1-1.12.18l-.86.5V162Z" style="fill:#fafafa"></path><path d="M157.51,157.6l.32-.18a1.18,1.18,0,0,0,.32-.26,2.36,2.36,0,0,0,.22-.39l2-5.07a1.78,1.78,0,0,1,.27-.5,1.13,1.13,0,0,1,.35-.29l1.16-.68-2.45,6.07a3.23,3.23,0,0,1-.45.86.49.49,0,0,1,.3.09.94.94,0,0,1,.26.29l2.52,3.78-1.19.69a.51.51,0,0,1-.36.11.4.4,0,0,1-.2-.19l-2.05-3a.34.34,0,0,0-.23-.17.62.62,0,0,0-.36.13l-.43.24v4.93l-1.35.78v-11.2l1.35-.78Z" style="fill:#fafafa"></path><path d="M164.42,150.58v3.11l2.54-1.47v1.6l-2.54,1.47v3.17l3.22-1.87v1.67l-4.58,2.65v-11.2l4.58-2.65v1.66Z" style="fill:#fafafa"></path><path d="M173.92,145.15l-2.19,1.27v9.48l-1.35.78V147.2l-2.2,1.26v-1.71l5.74-3.31Z" style="fill:#fafafa"></path><path d="M177.24,141.52a3.2,3.2,0,0,1,1.26-.46,1.21,1.21,0,0,1,.88.22,1.64,1.64,0,0,1,.52.84,4.75,4.75,0,0,1,.17,1.34,7,7,0,0,1-.18,1.59,6.13,6.13,0,0,1-.53,1.47,5.55,5.55,0,0,1-.88,1.27,5.25,5.25,0,0,1-1.24,1l-1,.58v3.94l-1.35.78V142.89Zm0,5.63a2.52,2.52,0,0,0,.65-.52,2.85,2.85,0,0,0,.46-.67,3.5,3.5,0,0,0,.27-.81,4.46,4.46,0,0,0,.09-.91,2.78,2.78,0,0,0-.09-.76.9.9,0,0,0-.27-.46.59.59,0,0,0-.46-.13,1.8,1.8,0,0,0-.65.24l-1,.59v4Z" style="fill:#fafafa"></path><path d="M185.36,146.31V148l-4.26,2.46v-11.2l1.35-.78V148Z" style="fill:#fafafa"></path><path d="M192.56,143.87l-1.05.61a.25.25,0,0,1-.28,0,.44.44,0,0,1-.17-.24l-.54-2-3,1.74-.54,2.59a1.45,1.45,0,0,1-.16.42.71.71,0,0,1-.28.31l-1.06.61,2.86-12.85,1.38-.79ZM190.17,141l-.89-3.22c0-.14-.09-.31-.13-.51s-.1-.42-.14-.65c0,.29-.09.56-.14.82s-.09.48-.13.67l-.88,4.22Z" style="fill:#fafafa"></path><path d="M198.09,138a.15.15,0,0,1,.2,0l.53.58a7.75,7.75,0,0,1-1.09,1.92,5.41,5.41,0,0,1-1.55,1.35,2.53,2.53,0,0,1-1.46.41,1.66,1.66,0,0,1-1.1-.54,3.39,3.39,0,0,1-.7-1.41,8.55,8.55,0,0,1-.25-2.16,11.76,11.76,0,0,1,1-4.7,8.34,8.34,0,0,1,1.14-1.83,5.26,5.26,0,0,1,1.46-1.27,2.54,2.54,0,0,1,1.41-.41,1.62,1.62,0,0,1,1,.45l-.45,1.23a.88.88,0,0,1-.1.22.46.46,0,0,1-.17.17.18.18,0,0,1-.16,0l-.18-.06-.22-.08a.84.84,0,0,0-.29,0,1.42,1.42,0,0,0-.38.06,2.19,2.19,0,0,0-.51.23,3.4,3.4,0,0,0-.89.78,5.41,5.41,0,0,0-.7,1.18,7.77,7.77,0,0,0-.45,1.5,9,9,0,0,0-.16,1.76,6.35,6.35,0,0,0,.17,1.58,2.44,2.44,0,0,0,.47,1,1,1,0,0,0,.7.36,1.43,1.43,0,0,0,.87-.23,4.81,4.81,0,0,0,.5-.33,5,5,0,0,0,.41-.39c.12-.14.24-.29.36-.46s.22-.37.33-.59a1,1,0,0,1,.11-.17A.29.29,0,0,1,198.09,138Z" style="fill:#fafafa"></path><path d="M201.11,129.4v3.1l2.54-1.47v1.61l-2.54,1.47v3.16l3.23-1.86v1.66l-4.59,2.65V128.53l4.59-2.65v1.65Z" style="fill:#fafafa"></path><path d="M244.52,82.23h0c2.31,0,3.69,1.87,3.69,5V364a13.73,13.73,0,0,1-6.12,10.61L130.66,438.91a5,5,0,0,1-2.48.79c-1.69,0-2.7-1.41-2.7-3.77V157.16a13.78,13.78,0,0,1,4.32-9.23l.21-.2.36-.33a11.2,11.2,0,0,1,1.23-.84l31.34-18.1,2.05-1.17a1,1,0,0,1,.44-.16c.19,0,.19.47.19.53a2.14,2.14,0,0,0,2.1,2.35,2.92,2.92,0,0,0,1.49-.45l36.53-21.08a5.65,5.65,0,0,0,2.65-4.43,3.69,3.69,0,0,1,1.44-2.66l.14-.08,30.66-17.7.65-.38a6.75,6.75,0,0,1,3.24-1m0-.94a7.61,7.61,0,0,0-3.71,1.13l-.65.38L209.5,100.5l-.21.13a4.63,4.63,0,0,0-1.84,3.42,4.7,4.7,0,0,1-2.18,3.62l-36.53,21.08a2,2,0,0,1-1,.32c-.69,0-1.16-.52-1.16-1.41s-.46-1.46-1.13-1.46a1.86,1.86,0,0,0-.91.28c-1.13.64-2.05,1.18-2.05,1.18l-31.34,18.09a11.41,11.41,0,0,0-1.34.92l-.62.56a14.71,14.71,0,0,0-4.62,9.93V435.93c0,3,1.48,4.7,3.63,4.7a5.92,5.92,0,0,0,2.95-.91l111.43-64.33A14.58,14.58,0,0,0,249.14,364V87.23c0-3.76-1.88-5.94-4.62-5.94Z" style="fill:#FF725E"></path></g><g id="freepik--Awning--inject-11"><polygon points="118.2 135.94 172.05 167.05 283.72 102.58 229.85 71.47 118.2 135.94" style="fill:#f5f5f5"></polygon><polygon points="118.2 135.94 172.05 167.05 184.46 159.89 130.61 128.77 118.2 135.94" style="fill:#FF725E"></polygon><polygon points="143.02 121.61 196.87 152.73 209.27 145.56 155.43 114.44 143.02 121.61" style="fill:#FF725E"></polygon><polygon points="167.83 107.28 221.68 138.4 234.09 131.24 180.24 100.12 167.83 107.28" style="fill:#FF725E"></polygon><polygon points="192.65 92.95 246.5 124.07 258.9 116.91 205.06 85.79 192.65 92.95" style="fill:#FF725E"></polygon><polygon points="217.46 78.63 271.31 109.75 283.72 102.58 229.87 71.46 217.46 78.63" style="fill:#FF725E"></polygon><path d="M184.46,159.89c0,4.57,2.78,6.67,6.21,4.69s6.2-7.29,6.2-11.85Z" style="fill:#e6e6e6"></path><path d="M209.28,145.57c0,4.56,2.78,6.67,6.21,4.69s6.2-7.29,6.2-11.86Z" style="fill:#e6e6e6"></path><path d="M234.1,131.24c0,4.57,2.78,6.67,6.21,4.69s6.2-7.29,6.2-11.85Z" style="fill:#e6e6e6"></path><path d="M258.92,116.92c0,4.56,2.78,6.67,6.21,4.69s6.2-7.29,6.2-11.86Z" style="fill:#e6e6e6"></path><path d="M172.05,167.05c0,4.57,2.78,6.67,6.21,4.69s6.2-7.28,6.2-11.85Z" style="fill:#FF725E"></path><path d="M196.87,152.73c0,4.57,2.78,6.67,6.21,4.69s6.2-7.29,6.2-11.86Z" style="fill:#FF725E"></path><path d="M221.69,138.4c0,4.57,2.78,6.67,6.21,4.69s6.2-7.28,6.2-11.85Z" style="fill:#FF725E"></path><path d="M246.51,124.08c0,4.57,2.78,6.67,6.21,4.69s6.2-7.29,6.2-11.86Z" style="fill:#FF725E"></path><path d="M271.33,109.75c0,4.57,2.78,6.67,6.21,4.69s6.2-7.28,6.2-11.85Z" style="fill:#FF725E"></path><g style="opacity:0.2"><path d="M172.05,167.05c0,4.57,2.78,6.67,6.21,4.69s6.2-7.28,6.2-11.85Z"></path><path d="M196.87,152.73c0,4.57,2.78,6.67,6.21,4.69s6.2-7.29,6.2-11.86Z"></path><path d="M221.69,138.4c0,4.57,2.78,6.67,6.21,4.69s6.2-7.28,6.2-11.85Z"></path><path d="M246.51,124.08c0,4.57,2.78,6.67,6.21,4.69s6.2-7.29,6.2-11.86Z"></path><path d="M271.33,109.75c0,4.57,2.78,6.67,6.21,4.69s6.2-7.28,6.2-11.85Z"></path></g></g></g><g id="freepik--Products--inject-11"><g id="freepik--Product--inject-11"><path d="M190.24,226l-41.6,24c-.58.33-1,0-1-.8v-.21a2.53,2.53,0,0,1,1-2l41.6-24c.58-.33,1,0,1,.8V224A2.53,2.53,0,0,1,190.24,226Z" style="fill:#e0e0e0"></path><path d="M190.24,232.49l-41.6,24c-.58.33-1,0-1-.8v-.21a2.53,2.53,0,0,1,1-2l41.6-24c.58-.33,1,0,1,.8v.21A2.53,2.53,0,0,1,190.24,232.49Z" style="fill:#e0e0e0"></path><g id="freepik--stars--inject-11"><path d="M166.75,253.55l.49,1a.13.13,0,0,0,.16.06l1.1-.42c.18-.07.25.18.12.41l-.8,1.49a.54.54,0,0,0-.06.29l.19,1.35c0,.21-.15.5-.31.48l-1-.12a.23.23,0,0,0-.2.11l-1,1.26c-.16.2-.34.12-.31-.12l.19-1.57a.25.25,0,0,0-.06-.22l-.8-.57c-.12-.09-.05-.42.12-.55l1.1-.85a.49.49,0,0,0,.16-.25l.49-1.61C166.45,253.52,166.67,253.39,166.75,253.55Z" style="fill:#FF725E"></path><path d="M172.31,250.37l.49,1a.12.12,0,0,0,.16.07l1.1-.43c.18-.06.24.18.12.42l-.8,1.49a.52.52,0,0,0-.06.29l.19,1.35c0,.21-.15.49-.31.47l-1-.12a.27.27,0,0,0-.2.12l-1,1.25c-.16.2-.34.13-.31-.12l.19-1.56a.25.25,0,0,0-.06-.22l-.8-.57c-.12-.1-.05-.42.12-.56l1.1-.84a.54.54,0,0,0,.16-.25l.49-1.61C172,250.33,172.23,250.2,172.31,250.37Z" style="fill:#FF725E"></path><path d="M177.87,247.19l.49,1a.11.11,0,0,0,.16.06l1.1-.42c.17-.07.24.18.12.42l-.8,1.49a.49.49,0,0,0-.06.28l.19,1.35c0,.22-.15.5-.31.48l-1-.12a.26.26,0,0,0-.2.11l-1,1.26c-.16.2-.34.13-.31-.12l.19-1.57c0-.1,0-.18-.06-.21l-.8-.58c-.12-.09-.05-.41.12-.55l1.1-.85A.46.46,0,0,0,177,249l.49-1.61C177.57,247.15,177.79,247,177.87,247.19Z" style="fill:#FF725E"></path><path d="M183.43,244l.49,1.05a.12.12,0,0,0,.16.06l1.1-.42c.17-.07.24.18.12.41l-.8,1.49a.54.54,0,0,0-.06.29l.19,1.35c0,.22-.15.5-.31.48l-1-.12a.23.23,0,0,0-.2.11l-1,1.26c-.16.2-.34.13-.31-.12l.19-1.57a.25.25,0,0,0-.06-.22l-.8-.57c-.13-.09-.06-.42.12-.55l1.1-.85a.45.45,0,0,0,.16-.25l.49-1.61C183.13,244,183.35,243.84,183.43,244Z" style="fill:#FF725E"></path><path d="M189,240.82l.49,1a.12.12,0,0,0,.16.07l1.1-.43c.17-.06.24.18.12.42l-.8,1.49a.52.52,0,0,0-.06.29l.19,1.35c0,.21-.15.49-.31.48l-1-.13a.27.27,0,0,0-.2.12l-1,1.25c-.16.2-.34.13-.31-.12l.19-1.56a.25.25,0,0,0-.06-.22l-.8-.57c-.13-.09-.06-.42.12-.56l1.1-.84a.54.54,0,0,0,.16-.25l.49-1.61C188.69,240.78,188.91,240.65,189,240.82Z" style="fill:#455a64"></path></g></g><g id="freepik--product--inject-11"><g id="freepik--speech-bubble--inject-11"><g id="freepik--speech-bubble--inject-11"><path d="M212.37,238.85V167.21a2.23,2.23,0,0,1,1-1.77l52.23-30.16c.56-.33,1-.06,1,.59v71.64a2.26,2.26,0,0,1-1,1.77L213.4,239.44C212.83,239.76,212.37,239.5,212.37,238.85Z" style="fill:#fafafa"></path><path d="M266.14,136.09h0m-.44.26v71.16a1.36,1.36,0,0,1-.55,1l-51.82,29.91V167.21a1.33,1.33,0,0,1,.54-1l51.83-29.91m.38-1.21a.86.86,0,0,0-.45.14L213.4,165.44a2.23,2.23,0,0,0-1,1.77v71.64c0,.46.23.73.57.73a1,1,0,0,0,.46-.14l52.23-30.16a2.26,2.26,0,0,0,1-1.77V135.87c0-.46-.23-.73-.57-.73Z" style="fill:#FF725E"></path><path d="M266.64,135.68c-.08-.51-.5-.7-1-.4L213.4,165.44a2,2,0,0,0-.72.76L207,163a2,2,0,0,1,.7-.73l52.23-30.15a2.28,2.28,0,0,1,2,0l3.66,2.05A2.22,2.22,0,0,1,266.64,135.68Z" style="fill:#FF725E"></path><g style="opacity:0.5"><path d="M266.64,135.68c-.08-.51-.5-.7-1-.4L213.4,165.44a2,2,0,0,0-.72.76L207,163a2,2,0,0,1,.7-.73l52.23-30.15a2.28,2.28,0,0,1,2,0l3.66,2.05A2.22,2.22,0,0,1,266.64,135.68Z" style="fill:#fff"></path></g><path d="M213.4,239.44a2.42,2.42,0,0,1-2.07,0l-3.64-2.09a2.2,2.2,0,0,1-1-1.75V164a2.07,2.07,0,0,1,.32-1l5.7,3.25a2,2,0,0,0-.31,1v71.64C212.37,239.44,212.79,239.79,213.4,239.44Z" style="fill:#FF725E"></path></g><polygon points="217.94 169.15 260.59 144.52 260.59 175.86 217.94 200.49 217.94 169.15" style="fill:#fff"></polygon><path d="M217.94,201a.5.5,0,0,1-.24-.06.49.49,0,0,1-.24-.42V169.14a.47.47,0,0,1,.24-.41l42.65-24.62a.46.46,0,0,1,.48,0,.48.48,0,0,1,.24.41v31.34a.48.48,0,0,1-.24.41L218.18,200.9A.53.53,0,0,1,217.94,201Zm.47-31.54v30.24l41.69-24.08V145.35Z" style="fill:#455a64"></path><path d="M228.69,169.93c1.05-3-2.08-3.19-4.37-1.06C224.07,170.85,227.43,173.56,228.69,169.93Z" style="fill:#FF725E"></path><path d="M228.69,169.93a2.8,2.8,0,0,0,.1-.36c-.62-1.27-2.57,0-3.69,1.3C226.12,172,227.86,172.32,228.69,169.93Z" style="opacity:0.15"></path><path d="M228.44,170.15c-.86-2-3.89,2-4.72,5.39C224.7,176.32,229.49,172.6,228.44,170.15Z" style="fill:#FF725E"></path><path d="M229.77,168.28l-2.14,9.5a2.19,2.19,0,0,0,1.6,2.6l11.53,2.87,13-18.21a2.2,2.2,0,0,0,.31-1.91l-2.3-7.53a40.78,40.78,0,0,1-11,9.5C234,169,229.77,168.28,229.77,168.28Z" style="fill:#FF725E"></path><g style="opacity:0.30000000000000004"><path d="M229.77,168.28l-2.14,9.5a2.19,2.19,0,0,0,1.6,2.6l11.53,2.87,13-18.21a2.2,2.2,0,0,0,.31-1.91l-2.3-7.53a40.78,40.78,0,0,1-11,9.5C234,169,229.77,168.28,229.77,168.28Z" style="fill:#fff"></path></g><path d="M232.32,178.83c-2.13-2.28-2.51-4.47-1.66-10.49a5.2,5.2,0,0,1-.89-.06l-2.14,9.5a2.19,2.19,0,0,0,1.6,2.6l11.53,2.87S234.56,181.23,232.32,178.83Z" style="fill:#FF725E"></path><path d="M220.29,220.18a1.26,1.26,0,0,1,.55,0,1.1,1.1,0,0,1,.42.24,1,1,0,0,1,.27.39,1.17,1.17,0,0,1,.11.49.41.41,0,0,1,0,.19.25.25,0,0,1-.1.12l-.88.51a.24.24,0,0,1-.15,0,.21.21,0,0,1-.12,0l-.06-.07a.36.36,0,0,0-.12-.08.44.44,0,0,0-.2,0,.79.79,0,0,0-.3.11,1.31,1.31,0,0,0-.24.17,1.34,1.34,0,0,0-.21.2,1,1,0,0,0-.15.24.71.71,0,0,0,0,.29.35.35,0,0,0,.06.23.29.29,0,0,0,.21.06,1.76,1.76,0,0,0,.4-.06l.62-.16A2.23,2.23,0,0,1,221,223a.78.78,0,0,1,.46.17,1,1,0,0,1,.27.46,2.91,2.91,0,0,1,.09.79,3.55,3.55,0,0,1-.1.86,4.63,4.63,0,0,1-.3.81,4,4,0,0,1-1.08,1.35v.74a.44.44,0,0,1,0,.22.36.36,0,0,1-.13.16l-.87.5a.1.1,0,0,1-.13,0,.22.22,0,0,1-.05-.17v-.76a1.27,1.27,0,0,1-.58,0,1,1,0,0,1-.45-.23,1,1,0,0,1-.28-.42,1.7,1.7,0,0,1-.11-.57.41.41,0,0,1,.05-.18.27.27,0,0,1,.09-.13l.88-.5a.21.21,0,0,1,.15,0,.21.21,0,0,1,.1,0l.08.09a.58.58,0,0,0,.15.11.5.5,0,0,0,.23,0,1,1,0,0,0,.33-.12,2.41,2.41,0,0,0,.6-.47.79.79,0,0,0,.24-.56.23.23,0,0,0-.09-.21.49.49,0,0,0-.26,0,2.53,2.53,0,0,0-.45.09l-.64.16a1,1,0,0,1-1-.17,1.87,1.87,0,0,1-.31-1.24,3.16,3.16,0,0,1,.08-.74,4,4,0,0,1,.25-.76,4.3,4.3,0,0,1,.41-.72,3.22,3.22,0,0,1,.54-.63v-.76a.48.48,0,0,1,.05-.23.31.31,0,0,1,.13-.16l.87-.5a.1.1,0,0,1,.13,0,.22.22,0,0,1,0,.17Z" style="fill:#455a64"></path><path d="M225.32,217.28a1.22,1.22,0,0,1,.54,0,1,1,0,0,1,.42.24,1,1,0,0,1,.28.39,1.34,1.34,0,0,1,.1.49.41.41,0,0,1,0,.19.25.25,0,0,1-.1.12l-.87.51c-.07,0-.12.05-.15,0a.21.21,0,0,1-.12-.05l-.07-.07a.28.28,0,0,0-.12-.08.43.43,0,0,0-.2,0,.65.65,0,0,0-.3.11,1.77,1.77,0,0,0-.24.17,1.34,1.34,0,0,0-.21.2.89.89,0,0,0-.2.53.35.35,0,0,0,.06.23.32.32,0,0,0,.22.06,1.84,1.84,0,0,0,.4-.06l.61-.16a2.3,2.3,0,0,1,.65-.08.75.75,0,0,1,.45.17.92.92,0,0,1,.28.46,2.91,2.91,0,0,1,.09.79,3.56,3.56,0,0,1-.11.86,4,4,0,0,1-.3.81,4.41,4.41,0,0,1-.47.74,3.85,3.85,0,0,1-.6.61v.73a.46.46,0,0,1-.06.23.3.3,0,0,1-.12.16l-.88.5a.09.09,0,0,1-.13,0,.22.22,0,0,1,0-.16v-.76a1.43,1.43,0,0,1-.58,0,1.09,1.09,0,0,1-.44-.23.93.93,0,0,1-.29-.42,1.7,1.7,0,0,1-.1-.57.39.39,0,0,1,0-.18.24.24,0,0,1,.1-.13l.87-.5c.07,0,.12-.06.15,0a.25.25,0,0,1,.11,0l.08.09a.4.4,0,0,0,.14.11.53.53,0,0,0,.23,0,1,1,0,0,0,.34-.12,2.6,2.6,0,0,0,.59-.47.79.79,0,0,0,.24-.56.23.23,0,0,0-.09-.21.47.47,0,0,0-.26,0,2.45,2.45,0,0,0-.44.09l-.64.16a1,1,0,0,1-1-.18,1.83,1.83,0,0,1-.32-1.23,3.18,3.18,0,0,1,.09-.74,4,4,0,0,1,.25-.76,4.24,4.24,0,0,1,.4-.72,4.08,4.08,0,0,1,.54-.63v-.76a.59.59,0,0,1,0-.23.36.36,0,0,1,.13-.16l.88-.5q.08,0,.12,0a.22.22,0,0,1,.06.17Z" style="fill:#455a64"></path></g><path d="M260.11,185.68l-41.6,24c-.59.34-1.06,0-1.06-.79v-.21a2.49,2.49,0,0,1,1.06-2l41.6-24c.58-.34,1.05,0,1.05.79v.21A2.5,2.5,0,0,1,260.11,185.68Z" style="fill:#e0e0e0"></path><path d="M260.11,192.13l-41.6,24c-.59.34-1.06,0-1.06-.79v-.21a2.49,2.49,0,0,1,1.06-2l41.6-24c.58-.34,1.05,0,1.05.79v.21A2.5,2.5,0,0,1,260.11,192.13Z" style="fill:#e0e0e0"></path><g id="freepik--stars--inject-11"><path d="M236.62,213.2l.49,1a.11.11,0,0,0,.16.06l1.09-.42c.18-.07.25.18.12.42l-.79,1.49a.42.42,0,0,0-.06.28l.18,1.35c0,.22-.15.5-.3.48l-1-.12c-.06,0-.13,0-.19.11l-1,1.26c-.15.2-.34.13-.31-.12l.19-1.57c0-.1,0-.18-.06-.21l-.79-.58c-.13-.09-.06-.41.11-.55l1.1-.85a.46.46,0,0,0,.16-.24l.49-1.61C236.31,213.16,236.54,213,236.62,213.2Z" style="fill:#FF725E"></path><path d="M242.17,210l.5,1.05a.12.12,0,0,0,.16.06l1.09-.42c.18-.07.25.18.12.41l-.79,1.5a.42.42,0,0,0-.06.28l.18,1.35c0,.22-.15.5-.3.48l-1-.12c-.06,0-.13,0-.2.11l-1,1.26c-.15.2-.34.13-.31-.12l.19-1.57a.25.25,0,0,0-.06-.22l-.79-.57c-.13-.09-.06-.42.11-.55l1.1-.85a.45.45,0,0,0,.16-.25l.49-1.61C241.87,210,242.1,209.85,242.17,210Z" style="fill:#FF725E"></path><path d="M247.73,206.83l.5,1a.12.12,0,0,0,.16.07l1.09-.42c.18-.07.25.17.12.41l-.79,1.49a.45.45,0,0,0-.06.29l.18,1.35c0,.21-.15.5-.31.48l-1-.13a.29.29,0,0,0-.2.12l-1,1.25c-.15.2-.34.13-.31-.12l.19-1.56a.25.25,0,0,0-.06-.22l-.79-.57c-.13-.09-.06-.42.11-.55l1.1-.85a.49.49,0,0,0,.16-.25l.49-1.61C247.43,206.79,247.66,206.66,247.73,206.83Z" style="fill:#FF725E"></path><path d="M253.29,203.65l.49,1a.12.12,0,0,0,.16.06l1.1-.42c.18-.06.25.18.12.42l-.79,1.49a.52.52,0,0,0-.07.29l.19,1.35c0,.21-.15.49-.31.47l-1-.12c-.06,0-.13,0-.2.12l-1,1.25c-.15.2-.34.13-.31-.12l.19-1.57a.22.22,0,0,0-.06-.21l-.8-.58c-.12-.09,0-.41.12-.55l1.1-.84a.54.54,0,0,0,.16-.25l.49-1.61C253,203.61,253.22,203.48,253.29,203.65Z" style="fill:#FF725E"></path><path d="M258.85,200.46l.49,1a.12.12,0,0,0,.16.06l1.1-.42c.18-.07.25.18.12.41l-.79,1.5a.51.51,0,0,0-.07.28l.19,1.35c0,.22-.15.5-.31.48l-1-.12c-.06,0-.13,0-.2.11l-1,1.26c-.16.2-.34.13-.31-.12l.19-1.57c0-.1,0-.18-.06-.21l-.8-.58c-.12-.09-.05-.42.12-.55l1.1-.85a.46.46,0,0,0,.16-.24l.49-1.62C258.55,200.43,258.77,200.3,258.85,200.46Z" style="fill:#455a64"></path></g></g><g id="freepik--product--inject-11"><g id="freepik--speech-bubble--inject-11"><g id="freepik--speech-bubble--inject-11"><path d="M142.51,374.93V303.29a2.28,2.28,0,0,1,1-1.77l52.23-30.16c.57-.32,1-.06,1,.59V343.6a2.26,2.26,0,0,1-1,1.77l-52.23,30.15C143,375.85,142.51,375.59,142.51,374.93Z" style="fill:#fafafa"></path><path d="M196.28,272.17h0m-.45.26V343.6a1.33,1.33,0,0,1-.54.94l-51.82,29.92V303.29a1.31,1.31,0,0,1,.54-.94l51.82-29.92m.39-1.21a1,1,0,0,0-.46.14l-52.23,30.16a2.28,2.28,0,0,0-1,1.77v71.64c0,.47.23.73.57.73a.86.86,0,0,0,.45-.14l52.23-30.15a2.26,2.26,0,0,0,1-1.77V272c0-.46-.23-.73-.57-.73Z" style="fill:#FF725E"></path><path d="M196.77,271.77c-.08-.52-.5-.7-1-.41l-52.23,30.16a2.2,2.2,0,0,0-.72.76l-5.7-3.25a2,2,0,0,1,.71-.72l52.23-30.16a2.28,2.28,0,0,1,2,0l3.66,2.05A2.26,2.26,0,0,1,196.77,271.77Z" style="fill:#FF725E"></path><g style="opacity:0.5"><path d="M196.77,271.77c-.08-.52-.5-.7-1-.41l-52.23,30.16a2.2,2.2,0,0,0-.72.76l-5.7-3.25a2,2,0,0,1,.71-.72l52.23-30.16a2.28,2.28,0,0,1,2,0l3.66,2.05A2.26,2.26,0,0,1,196.77,271.77Z" style="fill:#fff"></path></g><path d="M143.53,375.52a2.33,2.33,0,0,1-2.06,0l-3.65-2.08a2.24,2.24,0,0,1-1-1.76V300.08a2.15,2.15,0,0,1,.33-1.05l5.69,3.25a2,2,0,0,0-.3,1v71.64C142.51,375.53,142.93,375.87,143.53,375.52Z" style="fill:#FF725E"></path></g><polygon points="148.07 305.23 190.73 280.61 190.73 311.94 148.08 336.57 148.07 305.23" style="fill:#fff"></polygon><path d="M148.08,337.05a.48.48,0,0,1-.24-.07.46.46,0,0,1-.24-.41V305.23a.46.46,0,0,1,.24-.41l42.65-24.63a.49.49,0,0,1,.47,0,.47.47,0,0,1,.24.41v31.34a.49.49,0,0,1-.24.42L148.31,337A.48.48,0,0,1,148.08,337.05Zm.47-31.54v30.23l41.7-24.07V281.43Z" style="fill:#455a64"></path><path d="M181.92,298.21c-1.06-2.32-1.19-2.84-2.31-3.49L159.19,306.5c-1.12,1.95-1.25,2.63-2.31,6.17-1.26,4.23-2.22,8.34-1.62,9h0c.85,2.16,6.85.76,14.13-3.44s13.28-9.73,14.13-12.89h0C184.14,304,183.18,301,181.92,298.21Z" style="fill:#FF725E"></path><path d="M169.4,318.25a53.36,53.36,0,0,0,10.28-7.6c-.84.54-1.62,1.2-2.41,1.81a25.68,25.68,0,0,1-6.83,3.79,10.32,10.32,0,0,1-4.73.79,4.78,4.78,0,0,1-3.87-2.54,6.84,6.84,0,0,1-.12-4.13,35.89,35.89,0,0,1,1.58-5.49l-.93-.21-3.18,1.83c-1.12,1.95-1.25,2.63-2.31,6.17-1.26,4.23-2.22,8.34-1.62,9h0C156.12,323.85,162.12,322.45,169.4,318.25Z" style="opacity:0.15"></path><path d="M180.17,295.69c0,2.25-4.82,6.86-10.77,10.29s-10.77,4.4-10.77,2.15,4.82-6.86,10.77-10.29S180.17,293.45,180.17,295.69Z" style="fill:#FF725E"></path><g style="opacity:0.30000000000000004"><path d="M180.17,295.69c0,2.25-4.82,6.86-10.77,10.29s-10.77,4.4-10.77,2.15,4.82-6.86,10.77-10.29S180.17,293.45,180.17,295.69Z" style="fill:#fff"></path></g><path d="M178,297c0,1.56-3.84,5.05-8.58,7.79s-8.58,3.68-8.58,2.11,3.84-5.05,8.58-7.78S178,295.39,178,297Z" style="fill:#FF725E;opacity:0.5"></path><path d="M163.21,307.44a24.83,24.83,0,0,0,6.19-2.69,35.42,35.42,0,0,0,6.19-4.46,25.31,25.31,0,0,0-6.19,2.7A35.94,35.94,0,0,0,163.21,307.44Z" style="opacity:0.15"></path><path d="M165.51,312.92a.35.35,0,0,1,0,.25c-.15.44-.51,1.7.35,2s1.43-.84,1.67-1.34a.79.79,0,0,1,.3-.36l1.57-.91,1.57-.9a.23.23,0,0,1,.3,0c.24.22.87.59,1.67-.59a2.16,2.16,0,0,0,.35-2.37.36.36,0,0,1,0-.25c.15-.45.51-1.7-.35-2s-1.43.83-1.67,1.34a.84.84,0,0,1-.3.36l-1.57.9-1.57.91a.24.24,0,0,1-.3,0c-.24-.23-.87-.59-1.67.59A2.16,2.16,0,0,0,165.51,312.92Z" style="fill:#fff"></path><path d="M150.43,356.27a1.13,1.13,0,0,1,.55,0,1.08,1.08,0,0,1,.42.23,1.36,1.36,0,0,1,.27.39,1.4,1.4,0,0,1,.11.5.41.41,0,0,1-.05.18.36.36,0,0,1-.09.13l-.88.5a.21.21,0,0,1-.15.05.23.23,0,0,1-.12-.06l-.06-.06a.32.32,0,0,0-.13-.08.41.41,0,0,0-.2,0,.88.88,0,0,0-.29.11,2.2,2.2,0,0,0-.25.17,1.89,1.89,0,0,0-.2.2,1.28,1.28,0,0,0-.15.25.68.68,0,0,0-.06.29.28.28,0,0,0,.07.22.29.29,0,0,0,.21.07,1.84,1.84,0,0,0,.4-.06l.62-.16a1.68,1.68,0,0,1,.64-.08.74.74,0,0,1,.46.17.94.94,0,0,1,.27.46,2.81,2.81,0,0,1,.09.79,3.05,3.05,0,0,1-.11.85,4,4,0,0,1-.3.82,3.78,3.78,0,0,1-.47.73,3.92,3.92,0,0,1-.6.62v.73a.64.64,0,0,1-.05.23.39.39,0,0,1-.13.15l-.88.51c-.05,0-.09,0-.12,0a.2.2,0,0,1-.06-.16v-.77a1.27,1.27,0,0,1-.58,0,1.07,1.07,0,0,1-.44-.22,1,1,0,0,1-.28-.42,1.48,1.48,0,0,1-.11-.57.43.43,0,0,1,0-.19.25.25,0,0,1,.1-.12l.88-.51a.26.26,0,0,1,.14,0,.22.22,0,0,1,.11,0l.08.09a.56.56,0,0,0,.15.1.38.38,0,0,0,.22,0,.67.67,0,0,0,.34-.12,2.64,2.64,0,0,0,.6-.46.85.85,0,0,0,.23-.57.22.22,0,0,0-.08-.2.43.43,0,0,0-.27,0,2.45,2.45,0,0,0-.44.08l-.64.17a1,1,0,0,1-1-.18,1.83,1.83,0,0,1-.32-1.23,3.33,3.33,0,0,1,.09-.75,4.3,4.3,0,0,1,.65-1.48,4.61,4.61,0,0,1,.54-.63v-.76a.49.49,0,0,1,.06-.23.27.27,0,0,1,.12-.15l.88-.51a.1.1,0,0,1,.13,0,.25.25,0,0,1,.05.17Z" style="fill:#455a64"></path><path d="M155.46,353.37a1.09,1.09,0,0,1,.54,0,1,1,0,0,1,.42.23,1.05,1.05,0,0,1,.27.39,1.22,1.22,0,0,1,.11.5.39.39,0,0,1,0,.18.28.28,0,0,1-.1.13l-.88.5a.26.26,0,0,1-.15.05.24.24,0,0,1-.11-.06l-.07-.06a.36.36,0,0,0-.12-.08.41.41,0,0,0-.2,0,1,1,0,0,0-.3.11l-.24.17a1.34,1.34,0,0,0-.21.2,1,1,0,0,0-.15.25.68.68,0,0,0,0,.29.32.32,0,0,0,.06.22.29.29,0,0,0,.21.07,1.76,1.76,0,0,0,.4-.06l.62-.16a2,2,0,0,1,.64-.09.79.79,0,0,1,.46.18,1,1,0,0,1,.28.46,2.81,2.81,0,0,1,.09.79,3.48,3.48,0,0,1-.11.85,4.26,4.26,0,0,1-.3.82,4.32,4.32,0,0,1-.47.73,5.89,5.89,0,0,1-.6.62v.73a.53.53,0,0,1-.06.23.38.38,0,0,1-.12.15l-.88.51a.1.1,0,0,1-.13,0s-.05-.09-.05-.17v-.76a1.27,1.27,0,0,1-.58,0,1.18,1.18,0,0,1-.45-.22,1.15,1.15,0,0,1-.28-.42,1.7,1.7,0,0,1-.11-.57.41.41,0,0,1,0-.19.31.31,0,0,1,.09-.12l.88-.51a.26.26,0,0,1,.15-.05.34.34,0,0,1,.11.05l.08.09a.39.39,0,0,0,.14.1.41.41,0,0,0,.23,0,.73.73,0,0,0,.34-.12,2.81,2.81,0,0,0,.59-.46.81.81,0,0,0,.24-.57.2.2,0,0,0-.09-.2.41.41,0,0,0-.26,0,1.78,1.78,0,0,0-.45.08l-.64.17a1,1,0,0,1-1-.18,1.84,1.84,0,0,1-.31-1.23,4,4,0,0,1,.08-.75,4.26,4.26,0,0,1,.26-.76,3.65,3.65,0,0,1,.4-.72,4.08,4.08,0,0,1,.54-.63v-.76a.48.48,0,0,1,.05-.23.33.33,0,0,1,.13-.15l.88-.51a.09.09,0,0,1,.12,0,.2.2,0,0,1,.06.16Z" style="fill:#455a64"></path></g><path d="M190.24,321.77l-41.6,24c-.58.33-1,0-1-.8v-.21a2.53,2.53,0,0,1,1-2l41.6-24c.58-.33,1,0,1,.8v.21A2.53,2.53,0,0,1,190.24,321.77Z" style="fill:#e0e0e0"></path><path d="M190.24,328.22l-41.6,24c-.58.33-1,0-1-.8v-.21a2.53,2.53,0,0,1,1-2l41.6-24c.58-.33,1,0,1,.8v.21A2.53,2.53,0,0,1,190.24,328.22Z" style="fill:#e0e0e0"></path><g id="freepik--stars--inject-11"><path d="M166.75,349.28l.49,1a.12.12,0,0,0,.16.07l1.1-.42c.18-.07.25.17.12.41l-.8,1.49a.52.52,0,0,0-.06.29l.19,1.35c0,.21-.15.5-.31.48l-1-.12a.23.23,0,0,0-.2.11l-1,1.26c-.16.19-.34.12-.31-.13l.19-1.56a.25.25,0,0,0-.06-.22l-.8-.57c-.12-.09-.05-.42.12-.55l1.1-.85a.49.49,0,0,0,.16-.25l.49-1.61C166.45,349.25,166.67,349.12,166.75,349.28Z" style="fill:#FF725E"></path><path d="M172.31,346.1l.49,1a.11.11,0,0,0,.16.06l1.1-.42c.18-.06.24.18.12.42l-.8,1.49a.51.51,0,0,0-.06.29l.19,1.35c0,.21-.15.49-.31.47l-1-.12a.24.24,0,0,0-.2.12l-1,1.25c-.16.2-.34.13-.31-.12l.19-1.57a.23.23,0,0,0-.06-.21l-.8-.57c-.12-.1-.05-.42.12-.56l1.1-.84a.54.54,0,0,0,.16-.25l.49-1.61C172,346.06,172.23,345.93,172.31,346.1Z" style="fill:#FF725E"></path><path d="M177.87,342.92l.49,1a.12.12,0,0,0,.16.06l1.1-.42c.17-.07.24.18.12.42l-.8,1.49a.49.49,0,0,0-.06.28l.19,1.35c0,.22-.15.5-.31.48l-1-.12a.23.23,0,0,0-.2.11l-1,1.26c-.16.2-.34.13-.31-.12l.19-1.57c0-.1,0-.18-.06-.21l-.8-.58c-.12-.09-.05-.42.12-.55l1.1-.85a.46.46,0,0,0,.16-.24l.49-1.61C177.57,342.88,177.79,342.75,177.87,342.92Z" style="fill:#FF725E"></path><path d="M183.43,339.73l.49,1a.13.13,0,0,0,.16.06l1.1-.42c.17-.07.24.18.12.41l-.8,1.49a.54.54,0,0,0-.06.29l.19,1.35c0,.22-.15.5-.31.48l-1-.12a.23.23,0,0,0-.2.11l-1,1.26c-.16.2-.34.12-.31-.12L182,344a.25.25,0,0,0-.06-.22l-.8-.57c-.13-.09-.06-.42.12-.55l1.1-.85a.49.49,0,0,0,.16-.25l.49-1.61C183.13,339.7,183.35,339.57,183.43,339.73Z" style="fill:#FF725E"></path><path d="M189,336.55l.49,1a.12.12,0,0,0,.16.07l1.1-.43c.17-.06.24.18.12.42l-.8,1.49a.52.52,0,0,0-.06.29l.19,1.35c0,.21-.15.49-.31.47l-1-.12a.27.27,0,0,0-.2.12l-1,1.25c-.16.2-.34.13-.31-.12l.19-1.56a.25.25,0,0,0-.06-.22l-.8-.57c-.13-.1-.06-.42.12-.56l1.1-.84a.54.54,0,0,0,.16-.25l.49-1.61C188.69,336.51,188.91,336.38,189,336.55Z" style="fill:#FF725E"></path></g></g><g id="freepik--product--inject-11"><g id="freepik--speech-bubble--inject-11"><g id="freepik--speech-bubble--inject-11"><path d="M212.37,334.58V262.93a2.26,2.26,0,0,1,1-1.77L265.63,231c.56-.33,1-.06,1,.59v71.64a2.26,2.26,0,0,1-1,1.77L213.4,335.17C212.83,335.49,212.37,335.23,212.37,334.58Z" style="fill:#fafafa"></path><path d="M266.14,231.82h0m-.44.25v71.17a1.32,1.32,0,0,1-.55.94L213.33,334.1V262.93a1.33,1.33,0,0,1,.54-.94l51.83-29.92m.38-1.2a.86.86,0,0,0-.45.14L213.4,261.16a2.26,2.26,0,0,0-1,1.77v71.65c0,.46.23.73.57.73a1,1,0,0,0,.46-.14L265.63,305a2.26,2.26,0,0,0,1-1.77V231.6c0-.46-.23-.73-.57-.73Z" style="fill:#FF725E"></path><path d="M266.64,231.41c-.08-.51-.5-.7-1-.4L213.4,261.16a2.06,2.06,0,0,0-.72.77l-5.7-3.25a2,2,0,0,1,.7-.73l52.23-30.16a2.28,2.28,0,0,1,2,0l3.66,2.05A2.22,2.22,0,0,1,266.64,231.41Z" style="fill:#FF725E"></path><g style="opacity:0.5"><path d="M266.64,231.41c-.08-.51-.5-.7-1-.4L213.4,261.16a2.06,2.06,0,0,0-.72.77l-5.7-3.25a2,2,0,0,1,.7-.73l52.23-30.16a2.28,2.28,0,0,1,2,0l3.66,2.05A2.22,2.22,0,0,1,266.64,231.41Z" style="fill:#fff"></path></g><path d="M213.4,335.17a2.42,2.42,0,0,1-2.07,0l-3.64-2.09a2.2,2.2,0,0,1-1-1.75V259.72a2.07,2.07,0,0,1,.32-1l5.7,3.25a2,2,0,0,0-.31,1v71.65C212.37,335.17,212.79,335.52,213.4,335.17Z" style="fill:#FF725E"></path></g><polygon points="217.94 264.87 260.59 240.25 260.59 271.59 217.94 296.21 217.94 264.87" style="fill:#fff"></polygon><path d="M217.94,296.69a.5.5,0,0,1-.24-.06.49.49,0,0,1-.24-.42V264.87a.47.47,0,0,1,.24-.41l42.65-24.62a.46.46,0,0,1,.48,0,.48.48,0,0,1,.24.41v31.34a.48.48,0,0,1-.24.41l-42.65,24.63A.53.53,0,0,1,217.94,296.69Zm.47-31.54v30.24l41.69-24.08V241.08Z" style="fill:#455a64"></path><path d="M247.23,263.55c0,5.68-3.46,12.28-7.72,14.74s-7.71-.15-7.71-5.83,3.45-12.28,7.71-14.74S247.23,257.87,247.23,263.55Z" style="fill:#FF725E"></path><path d="M245.86,268.67a10.79,10.79,0,0,1-1.28-2.27,12.07,12.07,0,0,1-.62-6.58,21,21,0,0,1,.5-2.16c0-.12.07-.23.1-.35l-.39-.19a2.76,2.76,0,0,1-.08.27c-.19.67-.38,1.33-.52,2a14.6,14.6,0,0,0-.32,3.76,11.22,11.22,0,0,0,1.78,5.61c.26.4.55.74.81,1.14,0,0,0,.09.08.14.11-.29.22-.58.32-.88Z" style="fill:#fff"></path><path d="M240,270.89a9,9,0,0,0-1.24-4.53,4.78,4.78,0,0,0-2.83-2.07,6.27,6.27,0,0,0-2-.17c-.14.29-.28.58-.41.87a5.29,5.29,0,0,1,4.32,1.58c1.63,1.85,2,5.45,1,9.28a18.43,18.43,0,0,1-1.07,3.08.47.47,0,0,1-.05.1,6.35,6.35,0,0,0,.7-.23c.26-.61.49-1.23.67-1.8A18.25,18.25,0,0,0,240,270.89Z" style="fill:#fff"></path><path d="M247.12,265.32a24.13,24.13,0,0,1-2.67,4.21c-1.93,2.4-4.25,4-6.28,4.23-2.78.25-4.4-2.22-4.22-6.21a22.31,22.31,0,0,1,.74-4.79,19.44,19.44,0,0,0-2.89,9.7c0,5.68,3.45,8.29,7.71,5.83C243.34,276.08,246.51,270.54,247.12,265.32Z" style="opacity:0.15"></path><path d="M220.29,315.91a1.26,1.26,0,0,1,.55,0,1.1,1.1,0,0,1,.42.24.91.91,0,0,1,.27.39,1.17,1.17,0,0,1,.11.49.43.43,0,0,1,0,.19.25.25,0,0,1-.1.12l-.88.51a.19.19,0,0,1-.15,0,.21.21,0,0,1-.12,0l-.06-.07a.36.36,0,0,0-.12-.08.44.44,0,0,0-.2,0,.65.65,0,0,0-.3.11,1.31,1.31,0,0,0-.24.17,1.34,1.34,0,0,0-.21.2,1,1,0,0,0-.15.24.71.71,0,0,0,0,.29.35.35,0,0,0,.06.23.29.29,0,0,0,.21.06,1.76,1.76,0,0,0,.4-.06l.62-.16a2.23,2.23,0,0,1,.64-.08.78.78,0,0,1,.46.17,1,1,0,0,1,.27.46,2.86,2.86,0,0,1,.09.79,3.55,3.55,0,0,1-.1.86,4.63,4.63,0,0,1-.3.81,4.41,4.41,0,0,1-.47.74,5,5,0,0,1-.61.61v.73a.46.46,0,0,1,0,.23.36.36,0,0,1-.13.16l-.87.5a.09.09,0,0,1-.13,0,.19.19,0,0,1-.05-.16v-.76a1.43,1.43,0,0,1-.58,0,1.13,1.13,0,0,1-.45-.23,1.15,1.15,0,0,1-.28-.42,1.7,1.7,0,0,1-.11-.57.41.41,0,0,1,.05-.18.27.27,0,0,1,.09-.13l.88-.5a.21.21,0,0,1,.15-.05.21.21,0,0,1,.1,0l.08.09a.58.58,0,0,0,.15.11.5.5,0,0,0,.23,0,.83.83,0,0,0,.33-.13,2.38,2.38,0,0,0,.6-.46.79.79,0,0,0,.24-.56.23.23,0,0,0-.09-.21.49.49,0,0,0-.26,0,2.53,2.53,0,0,0-.45.09l-.64.16a1,1,0,0,1-1-.18,1.84,1.84,0,0,1-.31-1.23,3.16,3.16,0,0,1,.08-.74,4,4,0,0,1,.25-.76,4.3,4.3,0,0,1,.41-.72,3.22,3.22,0,0,1,.54-.63v-.77a.44.44,0,0,1,.05-.22.31.31,0,0,1,.13-.16l.87-.51a.12.12,0,0,1,.13,0,.22.22,0,0,1,0,.17Z" style="fill:#455a64"></path><path d="M225.32,313a1.22,1.22,0,0,1,.54,0,1,1,0,0,1,.42.24,1,1,0,0,1,.28.39,1.34,1.34,0,0,1,.1.49.43.43,0,0,1,0,.19.25.25,0,0,1-.1.12l-.87.51c-.07,0-.12.05-.15,0a.21.21,0,0,1-.12-.05l-.07-.07a.28.28,0,0,0-.12-.08.43.43,0,0,0-.2,0,.65.65,0,0,0-.3.11l-.24.16a1.39,1.39,0,0,0-.21.21.89.89,0,0,0-.2.53.35.35,0,0,0,.06.23.32.32,0,0,0,.22.06,1.84,1.84,0,0,0,.4-.06l.61-.16a2.3,2.3,0,0,1,.65-.08.75.75,0,0,1,.45.17.92.92,0,0,1,.28.46,2.86,2.86,0,0,1,.09.79,3.56,3.56,0,0,1-.11.86,4,4,0,0,1-.3.81,4.41,4.41,0,0,1-.47.74,4.32,4.32,0,0,1-.6.61V321a.49.49,0,0,1-.06.23.3.3,0,0,1-.12.16l-.88.5a.09.09,0,0,1-.13,0,.23.23,0,0,1,0-.16v-.76a1.43,1.43,0,0,1-.58,0,1.09,1.09,0,0,1-.44-.23,1.06,1.06,0,0,1-.29-.42,1.7,1.7,0,0,1-.1-.57.46.46,0,0,1,0-.19.25.25,0,0,1,.1-.12l.87-.5c.07,0,.12-.06.15,0a.25.25,0,0,1,.11,0l.08.09a.4.4,0,0,0,.14.11.53.53,0,0,0,.23,0,.86.86,0,0,0,.34-.13,2.32,2.32,0,0,0,.59-.46.81.81,0,0,0,.24-.56.23.23,0,0,0-.09-.21.47.47,0,0,0-.26,0,2.45,2.45,0,0,0-.44.09l-.64.16a1,1,0,0,1-1-.18,1.83,1.83,0,0,1-.32-1.23,3.33,3.33,0,0,1,.09-.75,4.5,4.5,0,0,1,.25-.76,4.58,4.58,0,0,1,.4-.71,4.08,4.08,0,0,1,.54-.63V313a.59.59,0,0,1,0-.22.36.36,0,0,1,.13-.16l.88-.51a.1.1,0,0,1,.12,0,.22.22,0,0,1,.06.17Z" style="fill:#455a64"></path></g><path d="M260.11,281.41l-41.6,24c-.59.34-1.06,0-1.06-.79v-.21a2.49,2.49,0,0,1,1.06-2l41.6-24c.58-.34,1.05,0,1.05.79v.21A2.5,2.5,0,0,1,260.11,281.41Z" style="fill:#e0e0e0"></path><path d="M260.11,287.86l-41.6,24c-.59.34-1.06,0-1.06-.79v-.21a2.52,2.52,0,0,1,1.06-2l41.6-24c.58-.34,1.05,0,1.05.79v.21A2.5,2.5,0,0,1,260.11,287.86Z" style="fill:#e0e0e0"></path><g id="freepik--stars--inject-11"><path d="M236.62,308.93l.49,1a.12.12,0,0,0,.16.06l1.09-.42c.18-.07.25.18.12.42l-.79,1.49a.42.42,0,0,0-.06.28l.18,1.35c0,.22-.15.5-.3.48l-1-.12a.22.22,0,0,0-.19.11l-1,1.26c-.15.2-.34.13-.31-.12l.19-1.57c0-.1,0-.18-.06-.21l-.79-.58c-.13-.09-.06-.41.11-.55l1.1-.85a.46.46,0,0,0,.16-.24l.49-1.61C236.31,308.89,236.54,308.76,236.62,308.93Z" style="fill:#FF725E"></path><path d="M242.17,305.74l.5,1.05a.12.12,0,0,0,.16.06l1.09-.42c.18-.07.25.18.12.41l-.79,1.49a.46.46,0,0,0-.06.29l.18,1.35c0,.22-.15.5-.3.48l-1-.12c-.06,0-.13,0-.2.11l-1,1.26c-.15.2-.34.12-.31-.12l.19-1.57a.25.25,0,0,0-.06-.22l-.79-.57c-.13-.09-.06-.42.11-.55l1.1-.85a.49.49,0,0,0,.16-.25l.49-1.61C241.87,305.71,242.1,305.58,242.17,305.74Z" style="fill:#FF725E"></path><path d="M247.73,302.56l.5,1a.12.12,0,0,0,.16.07l1.09-.43c.18-.06.25.18.12.42l-.79,1.49a.45.45,0,0,0-.06.29l.18,1.35c0,.21-.15.49-.31.48l-1-.13a.29.29,0,0,0-.2.12l-1,1.25c-.15.2-.34.13-.31-.12l.19-1.56a.25.25,0,0,0-.06-.22l-.79-.57c-.13-.09-.06-.42.11-.56l1.1-.84a.54.54,0,0,0,.16-.25l.49-1.61C247.43,302.52,247.66,302.39,247.73,302.56Z" style="fill:#FF725E"></path><path d="M253.29,299.38l.49,1a.12.12,0,0,0,.16.06l1.1-.42c.18-.07.25.18.12.42l-.79,1.49a.51.51,0,0,0-.07.28l.19,1.35c0,.22-.15.5-.31.48l-1-.12c-.06,0-.13,0-.2.11l-1,1.26c-.15.2-.34.13-.31-.12l.19-1.57c0-.1,0-.18-.06-.21l-.8-.58c-.12-.09,0-.41.12-.55l1.1-.85a.46.46,0,0,0,.16-.24l.49-1.61C253,299.34,253.22,299.21,253.29,299.38Z" style="fill:#455a64"></path><path d="M258.85,296.19l.49,1.05a.12.12,0,0,0,.16.06l1.1-.42c.18-.07.25.18.12.41l-.79,1.5a.51.51,0,0,0-.07.28l.19,1.35c0,.22-.15.5-.31.48l-1-.12c-.06,0-.13,0-.2.11l-1,1.26c-.16.2-.34.13-.31-.12l.19-1.57a.25.25,0,0,0-.06-.22l-.8-.57c-.12-.09-.05-.42.12-.55l1.1-.85A.45.45,0,0,0,258,298l.49-1.61C258.55,296.16,258.77,296,258.85,296.19Z" style="fill:#455a64"></path></g></g></g><g id="freepik--Character--inject-11"><g id="freepik--character--inject-11"><g id="freepik--Bottom--inject-11"><path d="M260.1,434.11c-.75-.15-.91,2.1-.75,3.09s2.87,4.56,8.22,6.3,13,1.56,16.28,1.78,8,2.34,11.16,3.36c7.26,2.36,11.72.13,13.84-1.48a3.38,3.38,0,0,0,1.09-2.59c.18-2.16,0-2.61-.22-2.62Z" style="fill:#37474f"></path><path d="M309.48,435a41.49,41.49,0,0,1,.7,4.58c.17,1.85.26,4.22-1.12,5.53-2.34,2.21-5,2.58-7.69,2.58a23,23,0,0,1-9.38-2.08c-2.74-1.22-4.92-2.29-8-2.45-3.37-.18-8.05-.1-11.35-.81a27.17,27.17,0,0,1-8.09-2.7,10.44,10.44,0,0,1-4.51-5.09,7.61,7.61,0,0,1,5.11-7,17,17,0,0,1,8.61-.79c3.16.39,5.5,1.08,8.32,1.21a13.72,13.72,0,0,0,5.73-.69,5.49,5.49,0,0,0,2.05-2.29c.57-.94.83-1.81,1.74-1.8,0,0,14.79,1.65,16.13,1.87,1.52.26,1.1,2.31,1,3.42-.05,1,0,1-.07,1.95a13.45,13.45,0,0,0,.46,3.21Q309.35,434.26,309.48,435Z" style="fill:#455a64"></path><path d="M279.72,427.07a2,2,0,0,0-.66-.33c-1.26-.34-2.39.81-3.05,1.73a8.44,8.44,0,0,0-.89,1.84,4.48,4.48,0,0,0-.34,2.5c0,.21.18.47.39.45s.28-.27.32-.46a9.65,9.65,0,0,1,1.36-3.26,3.92,3.92,0,0,1,.92-1.14,3.58,3.58,0,0,1,1.38-.65c.2-.05,1.06.05.89-.35a.47.47,0,0,0-.15-.19Z" style="fill:#fafafa"></path><path d="M283.43,427.5a2.49,2.49,0,0,0-1.75.28,3.56,3.56,0,0,0-1.21,1.58c-.62,1.19-1.2,3-.6,4.3.2.42.56.26.74-.08a6.35,6.35,0,0,0,.31-1.32A12.21,12.21,0,0,1,282,429.5a4.57,4.57,0,0,1,.65-1,1.93,1.93,0,0,1,.63-.47,1.58,1.58,0,0,1,.37-.11h.36c0-.18-.18-.31-.35-.37Z" style="fill:#fafafa"></path><path d="M287.3,426.87a2.35,2.35,0,0,0-1.18.61,3.19,3.19,0,0,0-.64,1.08,11.7,11.7,0,0,0-.83,2.76,3.47,3.47,0,0,0,.25,2c.12.24.35.49.61.41s.3-.52.35-.76c.09-.44.1-.91.16-1.36a7.93,7.93,0,0,1,2.07-4.44c.05-.07.11-.14.1-.22s-.19-.15-.31-.15A3.68,3.68,0,0,0,287.3,426.87Z" style="fill:#fafafa"></path><path d="M275.74,427c-1.3-.17-4.26,1.3-6.05,5.16a23,23,0,0,0-1.61,9,12.92,12.92,0,0,1-6.87-4.25,7.68,7.68,0,0,1-1.56-2.5,8,8,0,0,1,2.05-6c2.16-2.06,5.26-3.22,9.91-2.94,5.22.31,5.51,1.74,5.51,1.74Z" style="fill:#fafafa"></path><path d="M310.92,402.17s-2.84,20.62-3.27,24.86c-.19,1.8-4.17,3.78-9.69,3.23-3.88-.38-6.28-2.72-6.63-4.73s-1.48-26.3-1.48-26.3Z" style="fill:#c8856a"></path><path d="M368.42,403.22l-6.26-19.9-18.59,3.45s11.33,21.47,12.82,23.42C358.82,413.42,368.42,403.22,368.42,403.22Z" style="fill:#c8856a"></path><path d="M375.69,409.11c.45,1.83,0,3.74-.26,5.57s-.52,3.65-.66,5.51a20.77,20.77,0,0,1-.46,3.35,20.26,20.26,0,0,0-.16,4c0,1.42-.06,2.84-.08,4.25a7.91,7.91,0,0,0,0,1.82c.15.59-9,5.82-12.66,7.83-.21.12-.42.21-.66.32-3.36,1.32-6-1.4-6-1.4a10.15,10.15,0,0,1,2.48-11.18s.47,0,.38-3.57c0-2.57,0-5.17-.28-7.72a16.39,16.39,0,0,0-1.21-4.68c-.56-1.36-1.63-2.81-1.57-4.33.05-1.23.86-2,1.44-3,1.34-2.3,4.29-4.2,6.67-5.27,1.35-.6,3.56-1.27,4.95-.43.75.46,1.1,1.34,1.64,2a10.13,10.13,0,0,0,2.39,2,9.36,9.36,0,0,1,3.91,4.45A3.17,3.17,0,0,1,375.69,409.11Z" style="fill:#455a64"></path><path d="M357.25,429.23a13.17,13.17,0,0,0-1.18,1.72h0a12.82,12.82,0,0,0-1.28,9.46c-6.44-.59-8.13-4.31-8.13-4.31s-.37-3.21,3.34-5.55a9.9,9.9,0,0,1,1.4-.73l.07,0A9.45,9.45,0,0,1,357.25,429.23Z" style="fill:#fafafa"></path><path d="M377.19,410.11c1.7.66,1.26,5.31.19,9.79s-1.65,6-1.11,9.77.86,5.39-.66,6.76-13.6,7-13.6,7a44.54,44.54,0,0,0,2.7-14c.31-8.25.86-13.57,4.7-17.32S377.19,410.11,377.19,410.11Z" style="fill:#263238"></path><path d="M346.63,436.1s4.69,3.79,10.09,4.4,5.66-1.46,6.22-7.85.79-15.23,3.31-19.12,6.74-5.61,8.41-5.22c.34-.17,2,1.06,2.53,1.8a9.21,9.21,0,0,0-7.06,2.84c-3.36,3.29-4,10.24-4.13,16.56s-.44,13.63-5.47,14.4-10.38-1.39-13.71-4.17C344.9,438.14,346.63,436.1,346.63,436.1Z" style="fill:#37474f"></path><path d="M357.63,426.88a1.77,1.77,0,0,0-.74,1.17,3.62,3.62,0,0,0,1.83,3.32c.68.39,1.26.23.16-1.1A7,7,0,0,1,357.63,426.88Z" style="fill:#fafafa"></path><path d="M357.53,422.43a1.55,1.55,0,0,0-.46,1c0,.58,1,3,2.22,3.48s.55-.78,0-1.38A23.36,23.36,0,0,1,357.53,422.43Z" style="fill:#fafafa"></path><path d="M357.23,417.54a1.06,1.06,0,0,0-.55.79c0,.51,2.4,2.34,3.15,2.28s.95-.31,0-.95A33.24,33.24,0,0,1,357.23,417.54Z" style="fill:#fafafa"></path><path d="M351.28,402.27s-14.3-26-22.86-43.55c-2.94-6-4.27-8.63-5.17-13.27s-4.38-17.39-4.38-17.39l-4.72,27a91.65,91.65,0,0,1,2.13,15c.28,5.67-.63,12.28-2.65,24.64-2.91,17.84-4.19,22.23-4.19,22.23-1.27,1-4.55,1.15-7.84,1.3-7.61.35-11.27-3.21-11.27-3.21s-2-31.41-2.7-38.62c-2.35-24.61-2.5-35-1.94-63.74.48-24.48,3.12-53.92,3.12-53.92l54.43-13.05s10,17.5,9,34.63c-1.1,18.62-1.7,59.67-1.7,59.67,2.94,4.81,5.57,9.71,8.34,21.5,1.63,6.9,4.79,21.85,7,32.8A16.58,16.58,0,0,0,351.28,402.27Z" style="fill:#37474f"></path><path d="M318.87,328.06l6.93-38.27s7.44-.87,17.25-9.49c0,0-.66,6.72-13.7,12.47l-7.46,34,1.36,18.67Z" style="fill:#263238"></path></g><g id="freepik--Top--inject-11"><path d="M335,187.84c7.55-.89,13,1.77,18.33,12,5,9.66,12.16,23.63,14.91,30.71,1.35,3.45,3.57,6.49-2.58,13.16a104.9,104.9,0,0,1-19.19,15.81l-7.61-13.72,8.43-11.17-4-8.64Z" style="fill:#37474f"></path><path d="M347.25,234.61a18.4,18.4,0,0,0,7.72,5.28c-2.86.91-8-1.7-9.08-3.48Z" style="fill:#263238"></path><path d="M297.19,155.75s-4.8,7-4.29,7.64,3,1.26,3,1.26Z" style="fill:#af6152"></path><path d="M308.23,138.59c-3.24,1.65-8.88,3.35-11.4,12.68-.43,1.6.2,4.09,0,6.11-.28,2.26-1.26,4.78-1.31,6.6-.26,9.49,2.48,13.14,4.13,14.69,1.32,1.25,8.13,1.7,11.69.62,4.44-1.36,14.08-6,18.59-13.32,5.32-8.56,6.42-20,.28-24.45C321.54,135.22,311.44,137,308.23,138.59Z" style="fill:#c8856a"></path><path d="M300,178.92c1.6.88,6.13,1.25,9.51.76l-.11-2.54a24.37,24.37,0,0,1-4.49,1.47A16,16,0,0,1,300,178.92Z" style="fill:#af6152"></path><path d="M303.23,135.11c-2.29,1.77-4.88,4.37-6,7.17a12.86,12.86,0,0,0,1.91,13.49,10,10,0,0,1,0-3.93c-.23,1.12,1.3,3,2,3.71a14.73,14.73,0,0,0,3.66,2.37.56.56,0,0,1,.23.2.49.49,0,0,1,.05.27l0,1.6a2.16,2.16,0,0,0,.29,1.26,1.35,1.35,0,0,0,1.46.42,2.7,2.7,0,0,0,1.29-.95c.34-.43.6-.9.93-1.33a4.76,4.76,0,0,1,3.56-2.3,4.07,4.07,0,0,1,3.93,2.11,8.26,8.26,0,0,1-.74,6.77c-1.14,1.78-2.51,2.8-3.9,2.88-.7,0-2.36-.27-2.94-1.23,0,0-.7,7.79,5.63,10.29,0,0,7,1.85,13.2-.52.7-.26,1.79-2.35,2.3-3,1-1.17,2-2.32,3-3.46a36,36,0,0,0,4-6.1c2.7-4.65,3.41-10.16,3.1-15.61-.23-4.08-3.22-8.52-3.22-8.52C332.41,129.19,313.93,126.84,303.23,135.11Z" style="fill:#263238"></path><path d="M344.19,195.77c-1.39-5.45-3.21-9-13.53-8.53l-1.44,0c-3.68.53-8.82.83-18.27,1.55-1.19.22-12.46,2.11-14.34,2.36,0,0-8.44,5.07-12.63,22.88-1.19,5-.61,10.35,5.63,15.19-.15,5.12,1,9.56.35,14.49a206.68,206.68,0,0,0-2,24.11s12.88,6.33,34.2,4.27c13.13-1.27,25.65-8.54,28.13-10.91,0,0-2.24-8.24-9.15-22.18C343.22,221.4,349,214.43,344.19,195.77Z" style="fill:#FF725E"></path><g id="freepik--Arm--inject-11"><path d="M238.55,194.91c-2.18-3.53-3.39-5-4.67-6s-5.5-5.09-7.25-6.34c-1.11-.8-2.38,1-1.35,2.93.8,1.51,3.4,4.11,4.47,5.41s2.48,5.65,2.48,5.65Z" style="fill:#af6152"></path><path d="M246.39,210.75c-1.92-1.82-4.79-10.43-5.95-13-1.59-3.47-3-3.65-4.37-4-4.52-1.05-5.6-1.06-6.73-.84a2,2,0,0,0-1.48,1.33c-1.19-.31-2.87-1-3.83.76a5.75,5.75,0,0,0-.66,1.46,1.32,1.32,0,0,0-.9.13c-1.37.72-1.25,5.14-.59,6.47.46.93,1.46,1.42,2.88,1.77,1.21.3,1.14-1.08,1.14-1.08l1.56.73c2.5,3.84.74,8.79,4.9,11.68a34.15,34.15,0,0,1,5.16,3.3c9.83,10,19.92,19.18,23.17,21.57l5.62-17.5S248.3,212.56,246.39,210.75Z" style="fill:#c8856a"></path><path d="M227.86,194.29l5.46,1-5.08-1.64A2.21,2.21,0,0,0,227.86,194.29Z" style="fill:#af6152"></path><path d="M223.37,196.51l6.13,1.56-5.86-2.24A3.71,3.71,0,0,0,223.37,196.51Z" style="fill:#af6152"></path><path d="M227.46,204.53a12.46,12.46,0,0,1-.75-1.39,2.48,2.48,0,0,1-.28-1.41s-1.29-.54-1.91-.9a6.85,6.85,0,0,1-.76-.57,2.27,2.27,0,0,1-.63-.87,2,2,0,0,0,.51,1,4.22,4.22,0,0,0,.75.65l.05.87a1.25,1.25,0,0,0-.69,0,1.69,1.69,0,0,0-.81.56,2,2,0,0,1,.84-.4,1.27,1.27,0,0,1,.84.17,2.7,2.7,0,0,1,1.28,1.6Z" style="fill:#af6152"></path><path d="M296.88,191.25c-6.56,1.41-10.94,7.46-12.69,10.14-5.65,8.65-15.76,23-15.76,23l-13-7.59s-2.12.44-4.71,4.48-1.9,9.85-1.9,9.85,9.95,10,11.92,11.76c9,8.16,13.6,5.14,16.16,2.84,8.25-7.38,19.41-23.16,21.6-25.65C302.7,215.26,303.54,198.45,296.88,191.25Z" style="fill:#37474f"></path></g><path d="M337,140.74s5.42,2.69,5.59,13.66c.12,7.79.4,18.1.49,28,.05,5,.57,9.7-.69,14.59a30.46,30.46,0,0,1-7.22,13.21l-.33-7.47a14.18,14.18,0,0,1-3.86,9.16,31,31,0,0,1-8.09,6.1,39,39,0,0,0-.41-7.4,11,11,0,0,0-2.08,5.2,12.15,12.15,0,0,1-4-5.8c-.31,1.25-.62,2.5-.92,3.75a1,1,0,0,1-.27.54c-.29.26-.74.1-1.08-.08-4.13-2.15-10.82-13.44-10.71-24l-6.84,1.18a25.44,25.44,0,0,1,5.24-7.64c3.81-3.93,6.87-8.53,7.14-16.08,1.56,3.92,6.44,5.3,11.09,2.23S337,140.74,337,140.74Z" style="fill:#263238"></path></g></g></g><g id="freepik--speech-bubble--inject-11"><g id="freepik--speech-bubble--inject-11"><g id="freepik--speech-bubble--inject-11"><path d="M380.41,94.19a33.36,33.36,0,0,1-18.07,16.65L358.7,112a33.43,33.43,0,0,1-22-62.91l3.59-1.35a33.43,33.43,0,0,1,40.11,46.44Z" style="fill:#fff"></path><path d="M366,47a36.29,36.29,0,0,0-36.75,62.3l-.9,11.24a2.11,2.11,0,0,0,3.55,1.71l8.23-7.7A36.29,36.29,0,0,0,366,47Zm14.37,47.23a33.36,33.36,0,0,1-18.07,16.65L358.7,112a33.43,33.43,0,0,1-22-62.91l3.59-1.35a33.43,33.43,0,0,1,40.11,46.44Z" style="fill:#FF725E"></path><path d="M380.41,94.19a33.36,33.36,0,0,1-18.07,16.65L358.7,112a33.43,33.43,0,0,1-22-62.91l3.59-1.35a33.43,33.43,0,0,1,40.11,46.44Z" style="fill:#fff"></path></g><g id="freepik--Dog--inject-11"><path d="M344.82,80.65c0-.06-.11-.16-.19-.12a3.18,3.18,0,0,0-.73.48,4.19,4.19,0,0,0-.61.58,4.86,4.86,0,0,0-.48.64,2,2,0,0,0-.38,1c0,.12.17.37.31.23A1.68,1.68,0,0,0,343,83l.22-.33a5,5,0,0,1,.46-.64,6.8,6.8,0,0,1,.5-.57c.19-.19.39-.35.58-.54A.2.2,0,0,0,344.82,80.65Z" style="fill:#455a64"></path><path d="M341.14,86A9.89,9.89,0,0,0,337,86,13,13,0,0,0,333,87.28c-.18.1,0,.47.16.43,1.27-.19,2.5-.64,3.76-.92a14.7,14.7,0,0,1,4.24-.3C341.52,86.51,341.36,86.06,341.14,86Z" style="fill:#455a64"></path><path d="M339.59,89.37a3.84,3.84,0,0,0-1.56.72c-.46.3-.9.62-1.33,1a8.66,8.66,0,0,0-2.09,2.39c-.05.1.06.42.2.29.8-.74,1.59-1.49,2.44-2.18a15.56,15.56,0,0,1,1.26-.92l.71-.47a1.73,1.73,0,0,0,.55-.45C339.84,89.61,339.75,89.35,339.59,89.37Z" style="fill:#455a64"></path><path d="M337.82,88.91c.63-.19,1.28-.32,1.9-.56.23-.08,0-.49-.2-.48A10.9,10.9,0,0,0,335.3,89,8.53,8.53,0,0,0,332,91.38c-.09.11,0,.37.2.29,1.29-.65,2.47-1.48,3.8-2.07A15.23,15.23,0,0,1,337.82,88.91Z" style="fill:#455a64"></path><path d="M344.89,77.38a1.4,1.4,0,0,0-.36-.88,3.07,3.07,0,0,0-3.42-.83,2.94,2.94,0,0,0-1.34,1.86,1.28,1.28,0,0,0,.24,1.26,2.93,2.93,0,0,0,2,.56,3.88,3.88,0,0,0,2-.49,2.17,2.17,0,0,0,.57-.52A1.53,1.53,0,0,0,344.89,77.38Z" style="fill:#263238"></path><path d="M375.86,69a10.56,10.56,0,0,0-2.76-1.35c-1.11-.42-2.22-.82-3.35-1.2a37.8,37.8,0,0,0-7.08-1.76,9.33,9.33,0,0,0-5.66.61.64.64,0,0,1,.2.23l.23.13c1.9-.71,4.31-.32,6.21.09a50.82,50.82,0,0,1,6.87,2.07c1.8.65,4.07,1.17,5.3,2.67,1.4,1.72.81,3.75,0,5.57a40.48,40.48,0,0,0-2,5.68c-.26,1-.48,2-.65,3-.09.52-.15,1-.22,1.56,0,.27-.08.76-.32.94-.9.7-1.28-1.94-1.33-2.36a16.27,16.27,0,0,1-.05-3.12A12.56,12.56,0,0,0,370.7,76a12.33,12.33,0,0,0-3.22-4.32,25.94,25.94,0,0,0-2.41-1.88,16.35,16.35,0,0,0-2.57-1.57c-.28-.13,4.57,4.28,5.36,5.17a10.08,10.08,0,0,1,1.07,1.41,4.57,4.57,0,0,0-1.28,0,6.73,6.73,0,0,0-3.41,1.57c-.12.11-.22.22-.33.34a5.36,5.36,0,0,1,0,.7l0,.25a3.21,3.21,0,0,1,.21-.3,5.79,5.79,0,0,1,.54-.57A5.33,5.33,0,0,1,366,76a5.64,5.64,0,0,1,1.61-.53,13.22,13.22,0,0,1,1.66-.11,8.93,8.93,0,0,1,1.11,4.6c-.06,2.26-.48,4.7.27,6.92a1.71,1.71,0,0,0,3.35-.12c.27-1,.33-2,.53-3s.51-2.2.84-3.27.75-2.2,1.2-3.27a19.47,19.47,0,0,0,1.21-3.13A4.9,4.9,0,0,0,375.86,69Z" style="fill:#455a64"></path><path d="M324.68,69a10.72,10.72,0,0,1,2.76-1.35c1.11-.42,2.23-.82,3.35-1.2a38.19,38.19,0,0,1,7.08-1.76,9.36,9.36,0,0,1,5.67.61.64.64,0,0,0-.2.23l-.24.13c-1.9-.71-4.3-.32-6.2.09A50.82,50.82,0,0,0,330,67.78c-1.8.65-4.07,1.17-5.3,2.67-1.4,1.72-.81,3.75,0,5.57a41.79,41.79,0,0,1,2,5.68c.26,1,.48,2,.65,3,.09.52.15,1,.22,1.56,0,.27.08.76.32.94.9.7,1.27-1.94,1.33-2.36a18.07,18.07,0,0,0,.05-3.12,12.56,12.56,0,0,1,.53-5.71,12.36,12.36,0,0,1,3.23-4.32,25.8,25.8,0,0,1,2.4-1.88A17.32,17.32,0,0,1,338,68.23c.29-.13-4.56,4.28-5.35,5.17a10.16,10.16,0,0,0-1.08,1.41,4.64,4.64,0,0,1,1.29,0,7,7,0,0,1,1.79.53,6.89,6.89,0,0,1,1.62,1l.32.34c0,.23,0,.46-.05.7l0,.25a3.13,3.13,0,0,0-.2-.3,7.27,7.27,0,0,0-.54-.57,5.55,5.55,0,0,0-1.25-.83,5.64,5.64,0,0,0-1.61-.53,13.22,13.22,0,0,0-1.66-.11,8.93,8.93,0,0,0-1.11,4.6c.05,2.26.47,4.7-.27,6.92A1.8,1.8,0,0,1,328,88.18a1.77,1.77,0,0,1-1.44-1.41c-.28-1-.34-2-.54-3a30.14,30.14,0,0,0-.84-3.27,32,32,0,0,0-1.2-3.27,20.41,20.41,0,0,1-1.2-3.13A4.91,4.91,0,0,1,324.68,69Z" style="fill:#455a64"></path><path d="M364.7,77.45l-.08-.86c0-.17,0-.33,0-.5a15.18,15.18,0,0,0-5.06-9.32,17.44,17.44,0,0,0-4.45-2.83c-3.43-1.53-6.44-1.63-9.68,0a20.75,20.75,0,0,0-4.45,2.83,15.21,15.21,0,0,0-5.05,9.32c0,.17,0,.33-.05.5l-.08.86a14.87,14.87,0,0,0,.35,4,26.45,26.45,0,0,0,2.18,5.36,9.07,9.07,0,0,1,.89,2.77,15,15,0,0,1-.22,3.06,4.27,4.27,0,0,0,.44,2.67,7,7,0,0,0,1.77,1.83c.71.56,1.48,1.44,2.46,1.53A2.59,2.59,0,0,0,346,97.29a4.33,4.33,0,0,1,2-1.74,11.82,11.82,0,0,1,4.59,0,4.25,4.25,0,0,1,2,1.74,2.61,2.61,0,0,0,2.34,1.37c1-.09,1.74-1,2.45-1.53a6.69,6.69,0,0,0,1.77-1.83,4.34,4.34,0,0,0,.45-2.67,14.29,14.29,0,0,1-.22-3.06,8.56,8.56,0,0,1,.89-2.77,26.45,26.45,0,0,0,2.18-5.36A15.28,15.28,0,0,0,364.7,77.45Zm-1.84,5.37c-.58,1.69-1.58,3.22-2.2,4.89a7.44,7.44,0,0,0-.52,2.49c0,.94.23,1.86.29,2.79a3.33,3.33,0,0,1-.75,2.55,18.6,18.6,0,0,1-2,1.73c-.43.36-.83.72-1.43.39a3.12,3.12,0,0,1-1-1,4.41,4.41,0,0,0-1.8-1.7A9.52,9.52,0,0,0,347,95a4.49,4.49,0,0,0-1.81,1.7,3,3,0,0,1-.95,1c-.6.33-1,0-1.43-.39a17.59,17.59,0,0,1-2-1.73A3.34,3.34,0,0,1,340,93c.07-.93.3-1.85.29-2.79a7.68,7.68,0,0,0-.51-2.49c-.62-1.67-1.62-3.2-2.2-4.89a14.28,14.28,0,0,1,3.3-14.57,16.24,16.24,0,0,1,4.5-3.25l0,0A11.1,11.1,0,0,1,355,65l0,0a16.43,16.43,0,0,1,4.51,3.25,14.3,14.3,0,0,1,4,9.42A14.11,14.11,0,0,1,362.86,82.82Z" style="fill:#455a64"></path><path d="M350.6,93.15c0-.25,0-.49,0-.73a1.58,1.58,0,0,0,0-.38.81.81,0,0,0-.25-.45.26.26,0,0,0-.22-.09c-.1,0-.09.06-.15.12a.55.55,0,0,0-.19.29c0,.06,0,.13,0,.19l0,.37c0,.29,0,.57,0,.86,0,.5.05,1,.1,1.49,0,.25.36.43.58.41a.38.38,0,0,0,.39-.45C350.66,94.24,350.64,93.69,350.6,93.15Z" style="fill:#455a64"></path><path d="M355.65,80.65c0-.06.11-.16.2-.12a3.35,3.35,0,0,1,.72.48,4.84,4.84,0,0,1,.62.58,5.84,5.84,0,0,1,.47.64,1.91,1.91,0,0,1,.38,1c0,.12-.17.37-.31.23a2.35,2.35,0,0,1-.3-.45l-.22-.33a5,5,0,0,0-.46-.64,6.8,6.8,0,0,0-.5-.57c-.18-.19-.39-.35-.57-.54A.2.2,0,0,1,355.65,80.65Z" style="fill:#455a64"></path><path d="M354.87,89.12c.07.49.05,1-.33.94s-.46-.41-.68-.57a1.09,1.09,0,0,0-.73-.22.84.84,0,0,0-.79,1c.06.28.35.53.35.82s-.24.44-.45.57a9.34,9.34,0,0,1-.89.46c-.14.07-.29.15-.44.21a1.75,1.75,0,0,1-1.35,0c-.15-.06-.29-.14-.44-.21a9.34,9.34,0,0,1-.89-.46c-.21-.13-.45-.31-.45-.57s.3-.54.36-.82a.85.85,0,0,0-.8-1,1.13,1.13,0,0,0-.73.22c-.22.16-.4.53-.68.57-.66.1-.22-1.5-.15-1.77a5.22,5.22,0,0,1,.79-1.79,3.32,3.32,0,0,1,1.31-1.12,6,6,0,0,1,4.71,0,3.32,3.32,0,0,1,1.31,1.12,5.22,5.22,0,0,1,.79,1.79A7.34,7.34,0,0,1,354.87,89.12Z" style="fill:#263238"></path><path d="M359.34,86a9.84,9.84,0,0,1,4.15,0,13.11,13.11,0,0,1,3.95,1.25c.17.1,0,.47-.17.43-1.27-.19-2.5-.64-3.75-.92a14.73,14.73,0,0,0-4.24-.3C359,86.51,359.11,86.06,359.34,86Z" style="fill:#455a64"></path><path d="M360.88,89.37a3.78,3.78,0,0,1,1.56.72,16.07,16.07,0,0,1,1.33,1,8.66,8.66,0,0,1,2.09,2.39c.06.1-.06.42-.2.29-.8-.74-1.59-1.49-2.44-2.18a12.7,12.7,0,0,0-1.26-.92l-.71-.47a1.84,1.84,0,0,1-.55-.45C360.63,89.61,360.73,89.35,360.88,89.37Z" style="fill:#455a64"></path><path d="M362.66,88.91c-.64-.19-1.29-.32-1.91-.56-.22-.08,0-.49.2-.48A10.85,10.85,0,0,1,365.17,89a8.45,8.45,0,0,1,3.33,2.35c.09.11,0,.37-.19.29-1.3-.65-2.47-1.48-3.8-2.07A15.23,15.23,0,0,0,362.66,88.91Z" style="fill:#455a64"></path><path d="M355.94,78.34a2.34,2.34,0,0,0,.57.52,3.92,3.92,0,0,0,2,.49,2.9,2.9,0,0,0,2-.56,1.28,1.28,0,0,0,.25-1.26,3,3,0,0,0-1.35-1.86,3.06,3.06,0,0,0-3.41.83,1.42,1.42,0,0,0-.37.88A1.53,1.53,0,0,0,355.94,78.34Z" style="fill:#263238"></path><path d="M354.49,97.06a5.93,5.93,0,0,1-4.57,1.49,10.19,10.19,0,0,1-2.32-.36,8.64,8.64,0,0,1-2-1c-.19-.12-.25.12-.23.25.17.79,1.17,1.27,1.86,1.5a11.22,11.22,0,0,0,2.88.5c1.84.1,4-.32,5.27-1.81C355.76,97.16,354.87,96.7,354.49,97.06Z" style="fill:#455a64"></path><path d="M343.42,77a.7.7,0,1,1-.7-.7A.7.7,0,0,1,343.42,77Z" style="fill:#fff"></path><path d="M358.23,77a.7.7,0,1,1-.7-.7A.7.7,0,0,1,358.23,77Z" style="fill:#fff"></path></g></g></g></svg>
