<?xml version="1.0" encoding="utf-8"?>
<!-- Generator: Adobe Illustrator 27.8.0, SVG Export Plug-In . SVG Version: 6.00 Build 0)  -->
<svg version="1.1" id="Layer_1" xmlns="http://www.w3.org/2000/svg" xmlns:xlink="http://www.w3.org/1999/xlink" x="0px" y="0px"
	 viewBox="0 0 750 500" style="enable-background:new 0 0 750 500;" xml:space="preserve">
<style type="text/css">
	.st0{fill:#263238;}
	.st1{fill:#E0E0E0;}
	.st2{fill:#FFFFFF;}
	.st3{fill:#455A64;}
	.st4{fill:#FFBF9D;}
	.st5{fill:#FF9A6C;}
	.st6{fill:#FF725E;}
</style>
<g id="freepik--Graphics--inject-516">
	<path class="st0" d="M514,232c0,0,0-0.8-0.1-2.3c0-0.8,0-1.7-0.1-2.8s-0.1-2.4-0.2-3.9s-0.2-3.1-0.4-4.9s-0.5-3.8-0.7-5.9
		c-0.7-4.9-1.7-9.7-2.8-14.5c-1.5-6-3.4-11.8-5.7-17.6c-2.7-6.8-6-13.4-9.7-19.7c-9.2-15.4-21.2-28.8-35.5-39.7
		c-17.3-13.2-37.4-22.1-58.8-26.1c-18.1-3.3-36.7-3.1-54.7,0.6c-3.1,0.7-6.3,1.4-9.4,2.3s-6.2,1.9-9.3,3c-12.6,4.6-24.6,11-35.4,19
		c-5.6,4.2-10.8,8.7-15.8,13.6c-5,5-9.6,10.4-13.8,16.1c-4.3,5.8-8.1,11.9-11.4,18.3c-0.8,1.6-1.7,3.2-2.4,4.9l-2.2,5l-2,5.1
		L243,184l-0.4,1.3l-0.9,2.6l-0.9,2.6l-0.8,2.7c-0.5,1.8-1.1,3.5-1.4,5.4s-0.8,3.6-1.2,5.4s-0.6,3.7-1,5.5
		c-2.4,14.9-2.4,30.1,0,44.9c1.2,7.3,3,14.6,5.3,21.6l0.9,2.6l0.5,1.3l0.5,1.3l2,5.1l2.2,5c0.4,0.8,0.8,1.6,1.2,2.5l1.2,2.4
		c3.3,6.4,7.1,12.5,11.4,18.3c4.2,5.7,8.8,11.1,13.8,16.1c4.9,4.9,10.2,9.4,15.8,13.6c5.5,4,11.2,7.7,17.2,10.9
		c5.9,3.1,11.9,5.8,18.2,8.1c3.1,1,6.2,2.2,9.3,3s6.2,1.6,9.4,2.3c18,3.8,36.6,4,54.7,0.6c21.4-4,41.5-12.9,58.8-26.1
		c14.2-10.9,26.3-24.3,35.5-39.7c3.8-6.3,7-12.9,9.7-19.7c0.6-1.6,1.3-3.1,1.8-4.6s1-3,1.5-4.5s0.9-2.9,1.3-4.3s0.8-2.8,1.1-4.1
		c1.2-4.8,2.1-9.6,2.8-14.5c0.3-2.1,0.5-4.1,0.7-5.9s0.3-3.4,0.4-4.9s0.2-2.7,0.2-3.9s0.1-2,0.1-2.8C513.9,232.8,514,232,514,232
		c0,0,0,0.8,0,2.3c0,0.8,0,1.7,0,2.8s0,2.4-0.2,3.9s-0.2,3.1-0.4,4.9s-0.5,3.8-0.7,5.9c-0.7,4.9-1.6,9.7-2.8,14.5
		c-0.3,1.4-0.8,2.7-1.1,4.1s-0.8,2.9-1.3,4.3l-1.5,4.5c-0.5,1.5-1.2,3-1.8,4.6c-2.7,6.8-5.9,13.4-9.7,19.7
		c-9.2,15.4-21.3,28.9-35.5,39.8c-17.3,13.2-37.6,22.2-59,26.2c-18.2,3.4-36.8,3.2-54.9-0.6c-3.1-0.7-6.3-1.4-9.4-2.4
		s-6.2-1.9-9.4-3c-6.3-2.3-12.3-5-18.2-8.1c-6-3.2-11.8-6.9-17.3-10.9c-11.3-8.4-21.3-18.4-29.7-29.8c-4.3-5.8-8.1-12-11.4-18.4
		l-1.2-2.4c-0.4-0.8-0.8-1.6-1.2-2.5l-2.3-5c-0.7-1.7-1.3-3.4-2-5.1l-0.5-1.3l-0.4-1.3l-0.9-2.6c-2.4-7.1-4.2-14.3-5.3-21.7
		c-2.4-14.9-2.4-30.2,0-45.1l1-5.5c0.4-1.8,0.8-3.6,1.2-5.4c0.4-1.8,1-3.6,1.5-5.4l0.8-2.7l0.9-2.6l0.9-2.6l0.4-1.3l0.5-1.3
		c0.7-1.7,1.3-3.4,2-5.1l2.3-5c0.7-1.7,1.6-3.3,2.4-4.9c3.3-6.4,7.1-12.6,11.4-18.4c4.2-5.7,8.9-11.1,13.9-16.1
		c5-4.9,10.2-9.4,15.8-13.6c5.5-4,11.3-7.7,17.3-10.9c5.9-3.1,12-5.8,18.2-8.1c3.1-1,6.2-2.2,9.4-3s6.3-1.6,9.4-2.3
		c18.1-3.8,36.7-4,54.9-0.6c21.4,4,41.6,13,59,26.2c14.3,10.9,26.3,24.4,35.5,39.9c3.8,6.3,7,12.9,9.7,19.8
		c2.3,5.7,4.2,11.6,5.7,17.6c1.2,4.8,2.1,9.6,2.8,14.5c0.3,2.1,0.5,4.1,0.7,5.9s0.3,3.4,0.4,4.9s0.2,2.8,0.2,3.9s0,2.1,0,2.8
		C514,231.2,514,232,514,232z"/>
	<path class="st1" d="M188.6,180.4c0,0,0-0.1,0-0.2s0-0.4,0.1-0.7c0.1-0.6,0.2-1.5,0.4-2.6c0.4-2.3,1.1-5.7,2.3-10.1
		c3.6-12.2,8.6-23.9,15.1-34.8c0.5-0.9,1-1.7,1.5-2.6s1.1-1.8,1.6-2.7l3.5-5.4c1.2-1.8,2.6-3.6,3.9-5.5s2.8-3.7,4.2-5.6
		c2.9-3.8,6.1-7.4,9.4-11.3l5.3-5.6l1.4-1.4l1.4-1.4l2.9-2.8c8.2-7.7,16.9-14.7,26.1-21c4.8-3.3,9.8-6.5,15.1-9.4
		c5.3-3,10.8-5.8,16.4-8.2l0.3-0.1l0.1,0.3c0.5,2.1,1.1,4.3,1.7,6.5c0.8,3,1.6,6,2.3,8.8l0.1,0.2l-0.2,0.1
		c-16.2,6.7-31.1,16-44.4,27.4c-11.5,10.1-21.7,21.6-30.4,34.2c-7,10.2-13.1,21.1-18.1,32.4c-2.1,4.9-3.9,9.4-5.3,13.6
		c-0.7,2.1-1.3,4-1.9,5.9c-0.3,0.9-0.5,1.8-0.7,2.7c-0.2,0.8-0.4,1.7-0.4,2.5v0.1h-0.1l-10.2-2.5l-2.6-0.7L188.6,180.4
		c0,0.1,0.3,0.1,0.9,0.3l2.6,0.6l10.2,2.4l-0.1,0.1c0-0.9,0.2-1.8,0.4-2.6c0.2-0.9,0.4-1.8,0.7-2.7c0.5-1.9,1.1-3.8,1.8-5.9
		c1.4-4.1,3.1-8.7,5.3-13.6c5-11.4,11-22.3,18-32.5c8.7-12.7,18.9-24.2,30.5-34.3c13.3-11.5,28.4-20.8,44.6-27.5l-0.1,0.3
		c-0.7-2.8-1.5-5.8-2.3-8.8c-0.6-2.2-1.2-4.5-1.7-6.5l0.3,0.2c-5.6,2.4-11.1,5.1-16.4,8.1c-5.2,2.9-10.2,6.1-15.1,9.4
		c-9.2,6.3-17.9,13.3-26.1,21l-2.9,2.7l-1.4,1.3l-1.4,1.4l-5.3,5.6c-3.3,3.8-6.6,7.4-9.4,11.2c-1.5,1.8-2.9,3.7-4.2,5.5
		s-2.7,3.7-3.9,5.5s-2.4,3.6-3.5,5.4c-0.6,0.9-1.1,1.8-1.6,2.6s-1,1.8-1.6,2.6c-6.5,10.9-11.6,22.6-15.2,34.7c-1.2,4.3-2,7.7-2.4,10
		c-0.2,1.2-0.4,2.1-0.4,2.6l-0.1,0.7C188.6,180.3,188.6,180.3,188.6,180.4z"/>
	<path class="st1" d="M540.8,229.9c0,0,0-0.9-0.1-2.7c0-0.9-0.1-2-0.1-3.3s-0.1-2.9-0.2-4.6s-0.3-3.7-0.5-5.8s-0.6-4.5-0.9-7
		c-0.7-5-1.8-10.8-3.4-17.2c-0.4-1.6-0.9-3.2-1.4-4.9c-0.2-0.8-0.5-1.7-0.7-2.6c-0.1-0.4-0.2-0.9-0.4-1.3s-0.3-0.9-0.4-1.3l-1.8-5.3
		c-0.6-1.8-1.4-3.6-2.1-5.5c-3.2-8.1-7.1-16-11.6-23.5c-11-18.3-25.3-34.4-42.3-47.3c-20.6-15.7-44.6-26.3-70.1-31.1
		c-21.6-4-43.7-3.7-65.2,0.7c-3.7,0.9-7.5,1.7-11.1,2.8s-7.4,2.3-11.1,3.6c-15.1,5.5-29.3,13.1-42.1,22.7
		c-6.6,5-12.9,10.4-18.8,16.2c-5.9,6-11.4,12.4-16.4,19.2c-1.2,1.7-2.5,3.5-3.7,5.2s-2.3,3.6-3.5,5.4s-2.2,3.7-3.3,5.5l-1.6,2.8
		l-1.5,2.9l-1.5,2.9c-0.5,1-1,1.9-1.4,2.9l-2.6,5.9c-0.8,2-1.6,4.1-2.4,6.1l-0.6,1.5l-0.5,1.6l-1,3.1l-1.1,3.1l-0.9,3.2l-0.9,3.2
		l-0.4,1.6l-0.4,1.6c-0.5,2.1-1,4.3-1.5,6.5l-1.3,6.6c-1.4,8.9-2.1,17.8-2.2,26.8c0.1,9,0.8,17.9,2.2,26.8c0.4,2.2,0.8,4.4,1.2,6.6
		c0.5,2.2,1,4.3,1.5,6.5s1.1,4.3,1.7,6.4l0.9,3.2l1.1,3.1l1.1,3.1l0.5,1.6l0.6,1.5l2.4,6.1c0.9,2,1.8,4,2.7,6l0.7,1.5l0.7,1.4
		l1.5,2.9l1.5,2.9l1.6,2.8c1.1,1.9,2.1,3.8,3.3,5.5s2.3,3.6,3.5,5.4l3.7,5.2c5,6.8,10.5,13.2,16.4,19.2c5.9,5.8,12.2,11.2,18.8,16.2
		c12.9,9.5,27.1,17.2,42.1,22.7c3.7,1.2,7.4,2.6,11.1,3.5c3.7,1.1,7.4,1.9,11.1,2.8c7.4,1.5,14.8,2.6,22.3,3.1
		c14.3,1.1,28.8,0.3,42.9-2.4c25.5-4.7,49.5-15.4,70.1-31.1c17-13,31.3-29,42.3-47.3c4.5-7.5,8.4-15.3,11.6-23.5
		c0.7-1.9,1.5-3.7,2.1-5.5l1.8-5.3c0.3-0.9,0.6-1.7,0.8-2.6s0.5-1.7,0.7-2.5c0.5-1.7,1-3.3,1.3-4.9c1.6-6.4,2.7-12.2,3.4-17.2
		c0.3-2.5,0.7-4.9,0.9-7s0.3-4.1,0.5-5.8s0.2-3.3,0.2-4.6s0.1-2.4,0.1-3.3C540.8,230.8,540.8,229.9,540.8,229.9c0,0,0,0.9,0,2.7
		c0,0.9,0,2-0.1,3.3s0,2.9-0.2,4.6s-0.3,3.7-0.4,5.8s-0.5,4.5-0.8,7c-0.8,5.8-1.9,11.6-3.3,17.3c-0.4,1.6-0.9,3.2-1.3,4.9
		c-0.2,0.8-0.5,1.7-0.7,2.6s-0.5,1.7-0.8,2.6l-1.8,5.4c-0.6,1.8-1.4,3.6-2.1,5.5c-3.2,8.1-7.1,16-11.6,23.5
		c-11,18.4-25.3,34.5-42.3,47.5c-20.7,15.8-44.7,26.5-70.3,31.2c-21.6,4-43.8,3.8-65.4-0.7c-3.7-0.9-7.5-1.7-11.2-2.8
		c-3.8-1-7.4-2.3-11.1-3.5c-15.1-5.5-29.4-13.2-42.3-22.7c-13.5-10-25.4-21.9-35.3-35.5l-3.7-5.2l-3.5-5.4c-1.2-1.8-2.2-3.7-3.3-5.6
		l-1.6-2.8l-1.5-2.9l-1.5-2.9l-0.8-1.5l-0.7-1.5l-2.7-6c-0.8-2-1.6-4.1-2.4-6.1l-0.6-1.5l-0.5-1.6l-1-3.1l-1.1-3.1l-0.9-3.2
		c-0.6-2.1-1.3-4.2-1.7-6.4s-1-4.3-1.5-6.5s-0.8-4.4-1.2-6.6c-2.9-17.8-2.9-35.9,0-53.7l1.2-6.6l1.5-6.5l0.4-1.6l0.4-1.6l0.9-3.2
		l0.9-3.2l1.1-3.1l1-3.1l0.5-1.6l0.6-1.5c0.8-2,1.6-4.1,2.4-6.1l2.7-6c0.4-1,0.9-2,1.4-2.9l1.5-2.9l1.5-2.9l1.6-2.8
		c1.1-1.9,2.1-3.8,3.3-5.6l3.5-5.4l3.7-5.2c9.9-13.5,21.8-25.4,35.3-35.4c12.9-9.6,27.2-17.2,42.3-22.7c3.7-1.2,7.4-2.6,11.1-3.6
		c3.7-1.1,7.5-1.9,11.2-2.8c7.4-1.5,14.9-2.6,22.4-3.1c14.4-1.1,28.8-0.2,43,2.5c25.5,4.8,49.6,15.5,70.2,31.2
		c17,13,31.3,29.1,42.3,47.5c4.5,7.5,8.3,15.4,11.5,23.5c0.7,1.9,1.5,3.7,2.1,5.5s1.2,3.6,1.8,5.4c0.2,0.4,0.3,0.9,0.4,1.3l0.4,1.3
		c0.2,0.9,0.5,1.7,0.7,2.6c0.5,1.7,1,3.3,1.3,4.9c1.4,5.7,2.5,11.5,3.3,17.3c0.3,2.5,0.6,4.9,0.8,7s0.3,4.1,0.4,5.8s0.2,3.3,0.2,4.6
		s0,2.4,0.1,3.3C540.8,229,540.8,229.9,540.8,229.9z"/>
	<path class="st1" d="M390.7,40.9c-0.1,0,0-0.6-0.3-1.6c-0.4-1.4-1.2-2.7-2.4-3.5c-1.8-1.3-4-1.6-6.1-0.9c-1.2,0.4-2.2,1.2-3,2.2
		c-0.8,1.1-1.2,2.4-1.2,3.8c0,3.6,2.9,6.4,6.5,6.4c1.4,0,2.7-0.5,3.8-1.3c1.2-0.9,2-2.1,2.4-3.5C390.6,41.5,390.6,40.9,390.7,40.9
		c0,0.1,0,0.2,0,0.4c0,0.4-0.1,0.8-0.1,1.2c-0.3,1.5-1.2,2.8-2.4,3.8c-1.8,1.4-4.3,1.8-6.5,1c-1.3-0.4-2.4-1.2-3.2-2.3
		c-1.8-2.4-1.8-5.7,0-8.2c2.2-3,6.5-3.7,9.6-1.5c0,0,0.1,0.1,0.1,0.1c1.2,0.9,2.1,2.3,2.4,3.8c0.1,0.4,0.1,0.8,0.1,1.2
		C390.7,40.6,390.7,40.8,390.7,40.9z"/>
	<path class="st1" d="M208.2,216.4h-0.5h-1.5l-5.8,0.1l-20.3,0.1h-0.1l-0.1-0.1L168.6,201c-5.1-7.1-10-13.8-14-19.5l0.2,0.1
		l-16.9-0.1l-4.7-0.1h-1.2c-0.1,0-0.3,0-0.4,0c0.1,0,0.3,0,0.4,0h1.2l4.7-0.1l16.9-0.1h0.1l0.1,0.1l14.1,19.4l11.2,15.5l-0.2-0.1
		l20.3,0.1l5.8,0.1h1.5C207.8,216.3,208,216.4,208.2,216.4z"/>
	<path class="st1" d="M131.8,181.4c0,0,0,0.1,0,0.3c0,0.3,0,0.7-0.1,1c-0.3,1.2-0.9,2.3-1.9,3c-1.5,1.1-3.4,1.5-5.1,0.8
		c-1-0.4-1.9-1-2.6-1.9c-1.4-1.9-1.4-4.5,0-6.5c0.6-0.9,1.5-1.5,2.6-1.9c1.7-0.6,3.7-0.3,5.1,0.8c1,0.7,1.6,1.8,1.9,3
		c0.1,0.3,0.1,0.7,0.1,1C131.8,181.4,131.8,181.5,131.8,181.4c0,0.1,0-0.4-0.3-1.2c-0.3-1.1-1-2.1-1.9-2.8c-2.2-1.7-5.3-1.2-7,1
		s-1.2,5.3,1,7c1.8,1.3,4.2,1.3,6,0c0.9-0.7,1.6-1.6,1.9-2.8C131.8,181.9,131.8,181.4,131.8,181.4z"/>
	<path class="st1" d="M628.2,310.2c0,0,0-0.1,0-0.3c0-0.3,0-0.7,0.1-1c0.3-1.2,0.9-2.3,1.9-3c2.3-1.8,5.7-1.4,7.6,0.9
		c0,0,0.1,0.1,0.1,0.1c1.8,2.4,1.3,5.8-1.1,7.6c-0.4,0.3-0.9,0.6-1.4,0.8c-1.7,0.6-3.7,0.3-5.1-0.8c-1-0.7-1.6-1.8-1.9-3
		c-0.1-0.3-0.1-0.7-0.1-1C628.2,310.3,628.2,310.2,628.2,310.2c0-0.1,0,0.4,0.3,1.2c0.3,1.1,1,2.1,1.9,2.8c2.2,1.7,5.3,1.2,7-1
		c1.7-2.2,1.2-5.3-1-7c-0.4-0.3-0.8-0.5-1.3-0.7c-1.6-0.6-3.4-0.3-4.7,0.7c-0.9,0.7-1.6,1.6-1.9,2.8
		C628.2,309.8,628.3,310.2,628.2,310.2z"/>
	<path class="st1" d="M527.7,298.9c0.1,0,0.2,0.1,0.3,0.2l0.9,0.6l3.4,2.2l12.3,8.3h-0.1l31.8-0.1l36.9,0.1l11.2,0.1l3,0h0.8
		c0.1,0,0.2,0,0.3,0h-0.3h-0.8h-3l-11.2,0.1l-36.9,0.1l-31.8,0h-0.1l0,0l-12.2-8.4l-3.3-2.3L528,299
		C527.7,299,527.6,298.9,527.7,298.9z"/>
	<path class="st1" d="M452.2,402.2c0,0-0.1,0-0.2,0.1l-0.7,0.3l-2.6,1.1c-1.1,0.5-2.5,1.1-4.2,1.7l-5.6,2c-2.1,0.8-4.4,1.4-6.9,2.2
		s-5.2,1.5-8,2.2c-5.7,1.4-12,2.7-18.7,3.7c-9.2,1.4-18.6,2.1-27.9,1.9h-0.2v-0.2c0-6.3,0.1-11.5,0.1-15.2c0-1.8,0-3.2,0.1-4.2
		c0-0.5,0-0.8,0-1.1c-0.1,0-0.2-0.1-0.2-0.2c0-0.1,0.1-0.2,0.2-0.2s0.2,0.1,0.2,0.2c0,0.1-0.1,0.1-0.2,0.2c0,0.3,0,0.7,0,1.1
		c0,1,0,2.4,0,4.2c0,3.7,0.1,8.9,0.1,15.2l-0.2-0.2c9.3,0.1,18.6-0.6,27.9-2c6.7-1,13-2.3,18.6-3.7c2.8-0.8,5.5-1.4,8-2.2
		s4.8-1.4,6.9-2.2l5.6-2c1.6-0.6,3-1.2,4.2-1.6l2.7-1l0.7-0.2L452.2,402.2z"/>
	<path class="st1" d="M545,396.5c-0.1,0-0.2,0.1-0.3,0.1l-0.8,0.2l-2.9,0.9l-10.8,3.1l-35.7,9.9l-2.6,0.7l-0.2,0l-0.1-0.1
		c-8.5-11-16.1-20.8-21.6-27.9l-6.4-8.4l-1.7-2.3l-0.4-0.6c-0.1-0.1-0.1-0.1-0.1-0.2l0.2,0.2l0.5,0.6l1.8,2.2l6.6,8.3L492,411
		l-0.3-0.1l2.6-0.7l35.8-9.8l10.9-2.9l3-0.8l0.8-0.2C544.8,396.5,544.9,396.5,545,396.5z"/>
	<path class="st1" d="M377.4,40.9c-0.3,0-0.5,0.1-0.8,0.1l-2.3,0.1l-3.6,0.1l-2.2,0.1l-2.5,0.2l-5.8,0.4l-6.6,0.7
		c-2.3,0.2-4.8,0.6-7.3,1s-5.1,0.9-7.8,1.3c-9.1,1.7-18,4.1-26.6,7.3c-3.3,1.2-6,2.4-7.8,3.2l-2.1,1c-0.2,0.1-0.5,0.2-0.7,0.3
		c0.2-0.2,0.5-0.3,0.7-0.5c0.5-0.3,1.1-0.6,2-1c1.8-0.9,4.4-2.1,7.7-3.3c8.7-3.2,17.6-5.7,26.7-7.4c2.7-0.5,5.3-1,7.8-1.3
		s5-0.7,7.3-0.9l6.6-0.6l5.8-0.3l2.5-0.1h2.2h3.6h2.3C376.8,40.9,377.1,40.9,377.4,40.9z"/>
	<path class="st1" d="M374.5,362.8c-70.9,0-128.6-59-128.6-131.5S303.6,99.7,374.5,99.7s128.6,59,128.6,131.5
		S445.4,362.8,374.5,362.8z M374.5,100.8c-70.3,0-127.5,58.5-127.5,130.5s57.2,130.5,127.6,130.5s127.5-58.5,127.5-130.5
		S444.9,100.7,374.5,100.8L374.5,100.8z"/>
	<path class="st1" d="M367.4,362.4c-0.6-0.6-58.9-59-58.9-134.2c0-39.3,17.9-72.1,32.8-92.7c16.2-22.3,32.7-35.6,32.8-35.7l0.6,0.8
		c-0.2,0.1-16.5,13.3-32.7,35.5c-14.9,20.5-32.6,53.1-32.6,92.1c0,74.8,58,132.9,58.6,133.5L367.4,362.4z"/>
	<path class="st1" d="M372.7,181.9c-34.8,0-67-10.6-98.3-32.4l0.6-0.8c31.1,21.7,63.1,32.2,97.7,32.2c42.2,0,79.2-16.3,102.7-30
		l0.5,0.9C452.3,165.5,415.2,181.9,372.7,181.9z"/>
	<path class="st1" d="M475.4,312.2c-22.6-15.5-58.6-33.9-102-33.9c-43,0-80.6,16.3-104.6,30l-0.5-0.9
		c24.1-13.7,61.8-30.1,105.1-30.1c43.6,0,79.8,18.5,102.5,34L475.4,312.2z"/>
	<path class="st1" d="M381.3,362.4l-0.7-0.7c0.6-0.6,58.6-58.7,58.6-133.5c0-39-17.8-71.7-32.6-92.2c-16.1-22.2-32.5-35.3-32.6-35.5
		l0.6-0.8c0.2,0.1,16.6,13.3,32.8,35.7c15,20.6,32.8,53.4,32.8,92.7C440.2,303.4,381.9,361.9,381.3,362.4z"/>
	<rect x="244.9" y="224.5" class="st1" width="258.7" height="1"/>
	<polygon class="st1" points="543.3,337.5 525.9,324.1 520.8,331.1 537.5,344.8 	"/>
	<polygon class="st1" points="534.3,349.1 517.5,334.8 512.1,341.5 528.2,356 	"/>
	<polygon class="st1" points="524.7,360 508.8,344.9 502.9,351.3 518.4,366.8 	"/>
	<polygon class="st1" points="514.9,370.3 499.9,354.6 493.7,360.7 508.3,376.8 	"/>
	<path class="st1" d="M487.1,79.2l-0.2-0.2l-0.5-0.5l-1.9-1.9c-0.8-0.8-1.8-1.9-3.1-3l-2-1.8c-0.7-0.6-1.4-1.3-2.3-2
		c-1.7-1.3-3.4-2.8-5.4-4.2l-3.1-2.2l-3.4-2.2c-5.1-3.2-10.4-6.1-15.8-8.7c-6-2.8-12.2-5.1-18.5-7l0.3-0.1l-7.5,17.7
		c-0.9,2.1-1.7,3.8-2.2,5l-0.6,1.3c-0.1,0.2-0.1,0.3-0.2,0.4c0-0.2,0.1-0.3,0.2-0.5c0.1-0.3,0.3-0.8,0.5-1.3
		c0.5-1.2,1.2-2.9,2.1-5.1c1.8-4.4,4.4-10.5,7.4-17.8l0.1-0.2L431,45c6.4,1.8,12.6,4.2,18.6,7c5.5,2.6,10.8,5.5,15.9,8.7l3.4,2.2
		l3.1,2.3c2,1.4,3.8,3,5.4,4.3c0.8,0.7,1.5,1.3,2.2,2l2,1.8c1.2,1.1,2.2,2.2,3,3.1l1.8,2l0.5,0.5C487,79.1,487.1,79.2,487.1,79.2z"
		/>
	<polygon class="st1" points="453,42 442.4,61.3 454.2,67.9 465.8,49.2 	"/>
	<polygon class="st1" points="465.8,49.2 454.2,67.9 461.6,72.3 473.6,54.2 	"/>
	<polygon class="st1" points="478.1,57 465.5,75.1 472.7,79.9 485.8,62.2 	"/>
	<polygon class="st1" points="489.7,65.2 476.5,82.4 483.4,87.5 497.1,70.7 	"/>
	<polygon class="st1" points="179.8,247.4 201.8,246.8 201.3,238.1 179.4,238.1 	"/>
	<polygon class="st1" points="179.4,233.2 201.2,233.6 201.1,225 179.5,223.9 	"/>
	<circle class="st2" cx="545" cy="396.5" r="5.2"/>
	<path class="st1" d="M539.8,396.5c0,0,0-0.1,0-0.3c0-0.3,0-0.7,0.1-1c0.3-1.2,0.9-2.3,1.9-3c1.5-1.1,3.4-1.5,5.1-0.8
		c1,0.4,1.9,1,2.5,1.9c0.7,0.9,1.1,2.1,1.1,3.2c0,1.2-0.4,2.3-1.1,3.2c-1.8,2.4-5.2,2.9-7.6,1.1c0,0-0.1-0.1-0.1-0.1
		c-1-0.7-1.6-1.8-1.9-3c-0.1-0.3-0.1-0.7-0.1-1C539.8,396.5,539.8,396.4,539.8,396.5c0-0.1,0,0.4,0.3,1.2c0.3,1.1,1,2.1,1.9,2.8
		c2.2,1.7,5.3,1.2,7-1s1.2-5.3-1-7c-1.8-1.3-4.2-1.3-6,0c-0.9,0.7-1.6,1.6-1.9,2.8C539.8,396,539.8,396.5,539.8,396.5z"/>
	<circle class="st1" cx="275.6" cy="131.8" r="7.6"/>
</g>
<g id="freepik--character-1--inject-516">
	<path class="st2" d="M76.2,262.5h237.2c8.2,0,14.9,6.7,14.9,14.9v168.5c0,8.2-6.7,14.9-14.9,14.9H76.2c-8.2,0-14.9-6.7-14.9-14.9
		V277.4C61.3,269.2,68,262.5,76.2,262.5z"/>
	<path class="st1" d="M73.9,262.5h240.2c8.1,0,14.8,6.6,14.8,14.8l0,0v20l0,0h-267l0,0v-22.7c0-6.6,5.3-12,12-12
		C73.8,262.5,73.9,262.5,73.9,262.5z"/>
	<path class="st2" d="M81.8,278.8c0,2.2-1.8,3.9-3.9,3.9c-2.2,0-3.9-1.8-3.9-3.9c0-2.2,1.8-3.9,3.9-3.9h0
		C80,274.9,81.8,276.7,81.8,278.8z"/>
	<path class="st2" d="M93.6,278.8c0,2.2-1.8,3.9-3.9,3.9c-2.2,0-3.9-1.8-3.9-3.9c0-2.2,1.8-3.9,3.9-3.9h0
		C91.9,274.9,93.6,276.7,93.6,278.8z"/>
	<path class="st2" d="M105.5,278.8c0,2.2-1.8,3.9-3.9,3.9c-2.2,0-3.9-1.8-3.9-3.9c0-2.2,1.8-3.9,3.9-3.9h0
		C103.7,274.9,105.5,276.7,105.5,278.8z"/>
	<path class="st0" d="M314,460.8l0.6,0c0.6,0,1.2-0.1,1.7-0.2c6.1-1,10.9-5.6,12.2-11.7c0.3-2.3,0.4-4.7,0.3-7.1c0-2.5,0-5.2,0-8.1
		c0-22.9,0-56.1-0.1-97.1c0-10.2,0-21,0-32.1c0-5.6,0-11.3,0-17.1v-8.8c0-1.5-0.1-2.9-0.4-4.4c-0.7-2.9-2.2-5.6-4.4-7.6
		c-1.1-1-2.4-1.9-3.7-2.5c-1.4-0.6-2.8-1.1-4.4-1.3c-1.5-0.1-3.1-0.2-4.6-0.1h-19h-39.6H76.4h-1.5c-0.5,0-1,0-1.4,0.1
		c-1,0.1-1.9,0.3-2.8,0.6c-3.7,1.3-6.5,4.1-7.8,7.8c-0.3,0.9-0.5,1.8-0.7,2.8c-0.1,1-0.1,1.9-0.1,2.9v23c0,15.2,0,30.2,0,45
		c0,29.5,0,57.9,0,85V445c0,0.8,0,1.6,0.1,2.5l0.2,1.2c0.1,0.4,0.2,0.8,0.3,1.2c0.9,3.1,2.8,5.9,5.4,7.8c1.3,0.9,2.7,1.7,4.2,2.2
		c1.5,0.5,3.1,0.7,4.7,0.7h37.3h67l97,0.1h26.4h6.9h2.3h-2.3h-6.9h-26.4l-97,0.1h-67L77,461c-1.6,0-3.3-0.2-4.8-0.7
		c-4.8-1.6-8.5-5.4-9.9-10.3c-0.1-0.4-0.2-0.8-0.3-1.2l-0.2-1.2c0-0.8-0.1-1.7-0.1-2.5v-15.1c0-27.1,0-55.5,0-85V277
		c0-1,0-1.9,0.1-2.9c0.1-1,0.3-1.9,0.7-2.9c1.3-3.8,4.3-6.8,8.1-8.1c0.9-0.3,1.9-0.5,2.9-0.7c0.5,0,1,0,1.5-0.1h1.5h176.2h58.5
		c1.6,0,3.1,0,4.7,0.1c1.5,0.2,3.1,0.6,4.5,1.3c1.4,0.6,2.7,1.5,3.8,2.6c1.1,1,2.1,2.2,2.9,3.6c0.8,1.3,1.3,2.7,1.6,4.2
		c0.3,1.5,0.4,3,0.4,4.5v8.8c0,5.8,0,11.5,0,17.1c0,11.2,0,21.9,0,32.1c0,41-0.1,74.1-0.1,97.1c0,2.9,0,5.6,0,8.1
		c0.1,2.4,0,4.8-0.3,7.1c-0.8,3.7-2.9,7-6,9.1c-1.9,1.3-4,2.2-6.3,2.5c-0.6,0.1-1.2,0.2-1.7,0.2L314,460.8z"/>
	<path class="st0" d="M160.6,245.7c-3.3-2.1-4.1-7-2.3-10.5s5.6-5.6,9.5-6.2c5.7-0.9,11.5,1,15.5,5.1c2.1,2.2,3.9,5.1,6.8,6.1
		c2.5,0.9,5.4,0.1,8,0.4c3.6,0.5,6.6,3,8.5,6.1c1.7,3.2,2.7,6.7,3,10.3c0.4,3.3,0.6,6.9,2.9,9.3s5.8,2.8,8.5,4.5
		c5.3,3.5,6.8,10.6,3.5,15.9c-1.1,1.6-2.7,3.1-2.8,5c-0.1,1.8,1,3.3,1.6,5c1.4,4.3-2.2,9.5-6.7,9.8c-2.3,0.1-4.8-0.8-6.8,0.3
		s-2.8,3.5-4.1,5.4c-2.8,3.7-7.8,5-12,3.1c-1.7-0.8-3.3-2.2-5.2-2.1s-3.4,1.7-5.2,2.1c-2.4,0.5-4.7-1.3-6.1-3.3s-2.4-4.4-4.3-6
		c-2.4-2.1-5.8-2.7-8.8-3.7c-13-4.5-19.9-18.6-15.4-31.6c0.4-1.1,0.8-2.2,1.4-3.2"/>
	<path class="st3" d="M195.6,288.9c0.7-0.8,1.7-1.4,2.7-1.8H198c0.2,0,0.4-0.1,0.6-0.1c0.7-0.2,1.5-0.1,2.1,0.3l0,0
		c1.2,0.4,2.1,1.3,2.7,2.4c0.9,2,0.6,4.3-0.7,6.1c-1.3,2.1-4.1,2.8-6.2,1.5c-1.1-0.7-1.8-1.8-2.1-3
		C193.9,292.3,194.3,290.4,195.6,288.9z"/>
	<path class="st4" d="M151.7,320.3l-3.3-60.7c-0.1-2.8,1.9-5.3,4.7-5.7l28.9-8.2c9.3-1.2,15.8,10,16.6,19.4c1,10.4,1.7,23,0.7,30.8
		c-2,15.6-14.8,18-14.8,18s-0.1,3.9,0,9.6l-5.9,19.2L151.7,320.3z"/>
	<path class="st0" d="M194.6,278.3c0,1.1-0.8,2-1.9,2.1c-1,0.1-2-0.6-2.1-1.7c0,0,0,0,0-0.1c0-1.1,0.8-2,1.9-2.1
		C193.5,276.4,194.5,277.2,194.6,278.3C194.6,278.3,194.6,278.3,194.6,278.3z"/>
	<path class="st0" d="M196.1,271.7c-0.2,0.3-1.8-0.8-3.9-0.8s-3.7,1.2-3.9,0.9s0.1-0.6,0.8-1.1c0.9-0.7,2-1,3.1-1.1
		c1.1,0,2.2,0.3,3.1,0.9C196,271.1,196.2,271.6,196.1,271.7z"/>
	<path class="st0" d="M175.6,278.6c0,1.1-0.8,2-1.9,2.1c-1,0.1-2-0.6-2.1-1.7c0,0,0,0,0,0c0-1.1,0.8-2,1.9-2.1
		C174.5,276.8,175.5,277.5,175.6,278.6C175.6,278.6,175.6,278.6,175.6,278.6z"/>
	<path class="st0" d="M175,272.7c-0.2,0.3-1.8-0.8-3.9-0.7s-3.7,1.2-3.9,0.9s0.1-0.6,0.8-1.1c0.9-0.7,2-1,3.1-1.1
		c1.1,0,2.2,0.3,3.1,0.9C174.8,272.1,175.1,272.6,175,272.7z"/>
	<path class="st0" d="M183.2,288.5c1.1-0.4,2.3-0.6,3.5-0.7c0.6-0.1,1.1-0.2,1.1-0.6c0-0.6-0.1-1.1-0.4-1.6l-1.7-4.1
		c-2.4-5.9-4.2-10.7-3.9-10.8s2.4,4.6,4.8,10.5c0.6,1.5,1.1,2.8,1.7,4.1c0.4,0.7,0.5,1.4,0.3,2.1c-0.2,0.4-0.5,0.7-0.9,0.8
		c-0.3,0.1-0.6,0.1-0.9,0.1C185.6,288.5,184.4,288.6,183.2,288.5z"/>
	<path class="st5" d="M184.5,313.9c-7,0.3-14-1.5-20.1-5c0,0,4.5,11.6,20,9.7L184.5,313.9z"/>
	<path class="st5" d="M183,293.6c-1-1.4-2.7-2.2-4.4-2.2c-1.1,0-2.2,0.6-2.8,1.6c-0.9,1.5-0.4,3.4,1.1,4.3c0.8,0.5,1.7,0.6,2.6,0.3
		c1.2-0.4,2.2-1.1,3.1-2c0.3-0.2,0.5-0.5,0.6-0.8c0.2-0.4,0.1-0.8-0.1-1.1"/>
	<path class="st0" d="M176.9,290.1c0.4,0,0.4,2.3,2.5,3.9s4.5,1.3,4.6,1.6c0,0.1-0.5,0.5-1.6,0.5c-1.4,0.1-2.7-0.4-3.8-1.2
		c-1-0.8-1.7-2-1.9-3.3C176.5,290.7,176.8,290.1,176.9,290.1z"/>
	<path class="st0" d="M175.7,263.9c-0.2,0.6-2.4,0.4-4.9,0.8s-4.5,1.1-4.9,0.6c-0.2-0.2,0.2-0.8,1-1.4c1.1-0.7,2.3-1.2,3.6-1.4
		c1.3-0.2,2.6-0.1,3.8,0.3C175.3,263.1,175.7,263.6,175.7,263.9z"/>
	<path class="st0" d="M195.1,264.4c-0.4,0.5-1.9,0-3.6,0.1s-3.3,0.4-3.6-0.1c-0.2-0.2,0.1-0.7,0.7-1.2c0.9-0.6,1.9-0.9,2.9-0.9
		c1,0,2.1,0.3,2.9,0.9C195,263.6,195.3,264.1,195.1,264.4z"/>
	<path class="st0" d="M209.1,261.8c-0.6-2.4-2.1-4.5-4.1-5.9c-1.1-0.7-2.4-1.2-3.5-2c-2.2-1.8-2.8-5-4.2-7.5c-1.8-3.3-5.2-5.6-8.9-6
		c-3.1-0.3-6.3,0.6-9.3-0.1c-2.2-0.6-4.2-2-6.4-2.4c-4.4-0.8-8.5,2.3-11.6,5.4c0,3.1,2.5,5.2,4.9,7.2c2.5,2,5.7,2.9,8.8,2.3
		c2.4-0.4,5-1.6,7.1-0.4s2.3,4.6,4.2,6.3c2.8,2.4,7.2,0.1,10.7,1.2c2.7,0.8,4.4,3.4,6.2,5.6s4.5,4.2,7.2,3.5
		C210.1,266.6,209.8,264.1,209.1,261.8z"/>
	<path class="st0" d="M176.2,248.5c-2-0.6-6-1.8-7-3.5c-2.3-3.7-6.3-6.2-10.4-6c-4.4,0.3-8,3.5-8.9,7.8c-5.2,0.2-9.9,3.2-12.3,7.9
		c-0.3,0.6-0.6,1.2-0.8,1.8c-1.6,2.8-1.8,6.1-0.7,9.1c0.7,1.8,1.8,3.8,0.9,5.4s-3.3,1.8-5.1,2.4c-3.2,1.2-5.1,4.6-4.5,8
		c0.2,1.2,0.8,2.4,0.6,3.5s-1.3,2.1-2.1,3.1c-3.2,3.8-2.7,9.5,1.1,12.7c1.2,1,2.6,1.7,4.1,1.9c1.4,0.3,2.9,0.2,4.1,0.9
		c1.4,0.9,2,2.5,3,3.8c2,2.5,5.3,3.6,8.4,2.6c0.6-0.2,1.2-0.5,1.7-0.8c0.9,1.3,2.4,2.2,4.9,2.2l-0.6-32.8c0.4,0.8,1.1,1.4,2,1.6
		c5.3,1.2,6-9.7,4.9-12.6c2-1.6,3.8-3.5,5.3-5.5c1.5-2.1,2.7-8,2.4-10.7C169,251.4,177.1,248.8,176.2,248.5z"/>
	<path class="st4" d="M154,281.2c-0.2-3.3-4.2-4-7.1-2.4c-1.6,0.9-2.8,2.8-2.6,6.3c0.4,9.4,9.8,7.1,9.8,6.8S154.2,285.2,154,281.2z"
		/>
	<path class="st5" d="M150.9,288.5c0,0-0.2,0.1-0.4,0.3c-0.4,0.2-0.8,0.2-1.2,0.1c-1-0.3-1.9-1.9-2-3.6c-0.1-0.8,0.1-1.6,0.4-2.4
		c0.2-0.6,0.6-1.1,1.2-1.3c0.4-0.1,0.8,0,1,0.4c0.1,0.3,0.1,0.5,0.1,0.5s0.2-0.2,0.1-0.5c-0.1-0.2-0.2-0.4-0.4-0.6
		c-0.3-0.2-0.6-0.3-0.9-0.2c-0.8,0.2-1.5,0.7-1.7,1.5c-0.4,0.8-0.5,1.7-0.5,2.7c0.1,1.9,1.2,3.6,2.6,4c0.5,0.1,1.1,0,1.5-0.3
		C150.9,288.8,151,288.6,150.9,288.5z"/>
	<path class="st3" d="M163.2,246c-0.7,0.4-1.4,0.9-1.9,1.6c-0.9,1.3-1.3,3.8-0.7,6.5v0.2l-0.2,0.1c-2.8,0.7-5,2.7-6.1,5.4
		c-0.3,0.7-0.5,1.5-0.5,2.3c0,0.8,0.1,1.7,0.3,2.5c0.2,0.9,0.3,1.8,0.4,2.7c0.1,1-0.2,2-0.8,2.8c-1.2,1.8-3.1,2.7-4.7,3.5
		c-1.6,0.7-3.1,1.7-4.4,2.9c-2.1,2.1-3.4,4.9-3.5,7.9c-0.1,2,0.4,4,1.2,5.8c0.6,1.3,1.2,1.9,1.1,2c-0.2-0.1-0.3-0.3-0.4-0.4
		c-0.4-0.4-0.7-0.9-0.9-1.4c-1-1.8-1.5-3.9-1.5-6c0.1-3.1,1.3-6.1,3.6-8.3c1.3-1.2,2.9-2.3,4.5-3c1.6-0.9,3.4-1.7,4.4-3.3
		s0.6-3.3,0.3-5c-0.2-0.9-0.3-1.7-0.3-2.6c0-0.9,0.2-1.7,0.6-2.5c1.2-2.8,3.6-4.9,6.6-5.6l-0.2,0.3c-0.6-2.9-0.1-5.5,1-6.8
		c0.4-0.5,0.9-0.9,1.5-1.2C163,246,163.2,245.9,163.2,246z"/>
	<path class="st3" d="M147.4,292.1c0.7-0.8,1.7-1.4,2.7-1.8h-0.2c0.2,0,0.4-0.1,0.6-0.1c0.7-0.2,1.5-0.1,2.1,0.3l0,0
		c1.2,0.4,2.1,1.3,2.7,2.4c0.9,2,0.7,4.3-0.7,6.1c-1.3,2.1-4.1,2.8-6.2,1.5c-1.1-0.7-1.8-1.8-2.1-3
		C145.8,295.5,146.2,293.5,147.4,292.1z"/>
	<path class="st4" d="M291.8,330.3c0,0,7.4-10.2,10-10.5s19,0.3,21.3,0s15.2-6,15.2-6s2.3,0.8,2,3s-14.6,10.3-16.4,10.6
		s-15.5,1.4-15.5,1.4l-8.4,13.1L291.8,330.3z"/>
	<path class="st6" d="M292.7,327.1l-31.3,30.8L217,330.1c-2.5-1.6-5.3-2.5-8.3-2.8l-17.4-1.8l-7-6.5l-5.7,18.8l-28-21.5l-5.2,9.8
		l-18.6,8.9l17.9,87.8c0,0-0.1,1.4-3.9,12.2c-1.1,3.2-5.5,19.1-4.7,25.7l48.3,0.4l50.2-0.2l-9-30.3l-5.3-23.4
		c1.4-28.7,2-33.3,0.6-40.4l0,0c0,0,29.1,17.1,43.5,18.7c2.2,0.3,8.5-2.7,11.5-6.2c11.8-13.9,32.2-38.9,32.2-38.9L292.7,327.1z"/>
	<path class="st6" d="M137.2,378.8l-7.6,27.9l51,27.1l-9.8,20.1l-60.3-24c-3.4-1.3-6.3-3.5-8.4-6.5c-2.4-3.5-4.2-7.7-1.8-15.5
		l13-48.7c0.8-3.1,2.2-8,3.7-12c1.3-3.8,3.5-7.2,6.5-9.9c1-0.9,2.2-1.8,3.4-2.5"/>
	<path class="st0" d="M126.8,334.9l-0.6,0.4c-0.4,0.3-1,0.7-1.7,1.3c-2.1,1.7-3.9,3.8-5.3,6.1c-1.8,3-3,7.2-4.5,11.9
		s-2.7,10.3-4.4,16.4l-5.3,19.8c-0.9,3.6-1.9,7.2-2.9,11c-0.5,1.9-1,3.8-1.5,5.8c-0.6,1.9-1,4-1.2,6c-0.2,2.1,0.1,4.1,0.9,6.1
		c0.8,2,1.9,3.8,3.4,5.4c1.5,1.6,3.3,2.9,5.2,3.9c1,0.5,2,0.9,3.1,1.3l3.2,1.3l26.5,10.5l29.2,11.6l-0.3,0.1
		c3.4-7,6.6-13.7,9.8-20.1l0.1,0.3l-50.9-27.2l-0.1,0v-0.1l5.6-20.6l1.5-5.5c0.2-0.6,0.3-1.1,0.4-1.4s0.1-0.5,0.1-0.5s0,0.2-0.1,0.5
		s-0.2,0.8-0.4,1.4c-0.3,1.2-0.8,3.1-1.4,5.5l-5.5,20.6l-0.1-0.2l51,27.1l0.2,0.1l-0.1,0.2l-9.7,20.1l-0.1,0.2l-0.2-0.1l-29.2-11.6
		L115,432.1l-3.2-1.3c-1-0.4-2.1-0.8-3.2-1.4c-2-1-3.8-2.4-5.4-4c-0.7-0.8-1.4-1.7-2-2.6c-0.6-0.9-1.1-1.9-1.5-2.9
		c-0.7-2-1.1-4.1-0.9-6.3c0.2-2.1,0.6-4.1,1.2-6c0.5-2,1-3.9,1.6-5.8c1-3.8,2-7.5,3-11c1.9-7.1,3.7-13.8,5.3-19.8s3-11.5,4.5-16.3
		s2.7-8.9,4.6-12c1.4-2.3,3.2-4.4,5.4-6.1C125.2,336,126,335.4,126.8,334.9z"/>
	<path class="st4" d="M232.5,449l-14.5-7l-28.3-2.2l-9.5-5l-6.5,14c0,0,14.4,8.7,18.3,9l23.8-0.7l12.4,1.3L232.5,449z"/>
	<path class="st0" d="M139.8,374.7c-0.1,0,0.3-1.9,0.5-4.9c0.1-1.8,0.1-3.6-0.1-5.4c-0.2-2.2-0.6-4.3-1.1-6.5
		c-0.6-2.1-1.3-4.2-2.2-6.2c-0.8-1.6-1.6-3.2-2.6-4.7c-1.7-2.6-3-4-2.9-4.1c0.3,0.3,0.7,0.6,0.9,1c0.4,0.4,0.7,0.8,1,1.2
		c0.4,0.5,0.8,1,1.2,1.7c1,1.5,1.9,3.1,2.7,4.7c1.9,4,3.1,8.3,3.4,12.8c0.1,1.8,0.1,3.6,0,5.4c0,0.8-0.2,1.5-0.2,2.1
		c-0.1,0.5-0.2,1-0.3,1.5C140,373.9,139.9,374.3,139.8,374.7z"/>
	<path class="st0" d="M130.1,407c0,0.1-0.8-0.1-2.1-0.1c-1.7,0-3.4,0.3-5,0.8c-1.6,0.6-3.1,1.4-4.4,2.5c-1,0.8-1.6,1.4-1.6,1.4
		c0.4-0.6,0.8-1.2,1.4-1.6c1.3-1.2,2.8-2.1,4.5-2.6c1.7-0.6,3.4-0.8,5.2-0.7C128.7,406.6,129.4,406.7,130.1,407z"/>
	<path class="st0" d="M213.7,346.5c0.4,0.4,0.7,0.8,0.9,1.3l0.5,0.7l0.5,0.9c0.4,0.7,0.8,1.5,1.1,2.2l0.6,1.3c0.2,0.5,0.4,1,0.6,1.5
		c0.4,1,0.7,2.1,1.1,3.3c0.7,2.5,1.3,5.1,1.7,7.7c0.7,4.7,0.9,9.5,0.8,14.3c0,1.8-0.1,3.3-0.2,4.4c0,0.5-0.1,1.1-0.2,1.6
		c0-0.5,0-1.1,0-1.6c0-1,0-2.5,0-4.3c0-4.8-0.3-9.5-1-14.2c-0.4-2.6-0.9-5.2-1.6-7.7c-0.4-1.1-0.6-2.3-1-3.3c-0.2-0.5-0.4-1-0.5-1.5
		s-0.4-0.9-0.6-1.3c-0.3-0.9-0.7-1.6-1-2.2l-0.4-0.9c-0.1-0.3-0.3-0.5-0.4-0.7C214.3,347.4,214,347,213.7,346.5z"/>
	<path class="st0" d="M177.9,339.3c-0.1,0-0.3-0.1-0.4-0.2c-0.2-0.1-0.6-0.3-1.1-0.5c-1.3-0.7-2.6-1.5-3.7-2.5h0.3
		c-2.4,3.7-4.4,7.7-5.9,11.9l-0.1,0.4l-0.3-0.3l-3.8-3.8c-4.9-4.9-9.2-9.3-12.4-12.5l-3.7-3.8l-1-1.1c-0.1-0.1-0.2-0.2-0.3-0.4
		c0.1,0.1,0.3,0.2,0.4,0.3c0.3,0.3,0.6,0.6,1.1,1l3.8,3.7c3.2,3.1,7.6,7.5,12.5,12.4l3.8,3.8l-0.4,0.1c1.6-4.2,3.6-8.2,6.1-11.9
		l0.1-0.2l0.1,0.1c1.1,1,2.3,1.8,3.6,2.6C177,338.7,177.5,339,177.9,339.3z"/>
	<path class="st0" d="M191,325.8c0.1,0.4,0.1,0.8,0.1,1.3c0,1.2-0.1,2.3-0.2,3.5c-0.5,3.8-1.9,7.5-4,10.7l-0.3,0.5l-0.2,0.3
		l-0.2-0.3c-1.9-2.6-3.5-5.5-4.7-8.5h0.4c-0.7,1.6-1.3,2.9-1.7,3.9c-0.2,0.5-0.4,1-0.7,1.4c0.1-0.5,0.3-1,0.5-1.5
		c0.4-1,0.9-2.4,1.6-4l0.2-0.5l0.2,0.5c1.3,3,2.9,5.8,4.8,8.4h-0.4c0.1-0.1,0.2-0.3,0.3-0.5c2-3.2,3.4-6.8,4.1-10.5
		C191,327.6,190.9,325.8,191,325.8z"/>
	<path class="st0" d="M197.9,424.2c-0.1-0.3-0.1-0.6-0.1-0.9c-0.1-0.6-0.2-1.5-0.3-2.5c-0.3-2.2-0.6-5.4-1.1-9.2
		c-0.9-7.8-2.2-18.6-4.5-30.3c-1.1-5.9-2.5-11.4-3.9-16.4c-0.8-2.5-1.4-4.9-2.2-7c-0.4-1.1-0.7-2.2-1.1-3.2l-1.1-2.9
		c-0.7-1.9-1.4-3.5-2-4.9l-0.8-2l-0.8-1.7l-1-2.3c-0.1-0.3-0.2-0.5-0.3-0.8c0.2,0.2,0.3,0.5,0.4,0.8c0.3,0.6,0.7,1.3,1.1,2.3
		l0.8,1.6c0.3,0.6,0.6,1.3,0.9,2c0.6,1.4,1.4,3,2.1,4.9c0.4,0.9,0.7,1.9,1.1,2.9s0.7,2.1,1.1,3.2c0.8,2.2,1.5,4.5,2.2,7
		c1.4,5,2.8,10.6,3.9,16.5c2.3,11.8,3.5,22.6,4.4,30.4c0.4,3.9,0.7,7.1,0.9,9.3c0.1,1.1,0.2,1.9,0.2,2.5
		C197.9,423.7,197.9,423.9,197.9,424.2z"/>
	<path class="st0" d="M212.1,412.1c-0.5,0.1-1,0.1-1.6,0c-1,0-2.5-0.1-4.3-0.1c-3.6-0.2-8.6-0.5-14.1-1.1s-10.4-1.4-14-2
		c-1.8-0.3-3.2-0.6-4.2-0.8c-0.5-0.1-1-0.2-1.5-0.4c0.5,0,1,0.1,1.6,0.2l4.2,0.6c3.6,0.5,8.5,1.2,14,1.8s10.4,1,14,1.3l4.3,0.3
		C211,411.9,211.5,412,212.1,412.1z"/>
	<path class="st0" d="M207.4,426.2c-0.4-0.1-0.9-0.2-1.3-0.4l-3.4-1.2c-2.9-1-6.9-2.5-11.3-3.9s-8.5-2.6-11.4-3.5l-3.5-1
		c-0.4-0.1-0.9-0.2-1.3-0.4c0.4,0,0.9,0.1,1.3,0.2c0.8,0.2,2.1,0.5,3.5,0.8c3,0.8,7.1,1.9,11.5,3.4s8.4,2.9,11.2,4.1
		c1.4,0.6,2.6,1,3.4,1.4C206.6,425.7,207,425.9,207.4,426.2z"/>
	<path class="st0" d="M263.8,370.8c-0.4-0.5-0.8-1.1-1-1.7c-0.7-1.5-1.1-3-1.4-4.5c-0.3-1.6-0.4-3.2-0.3-4.8c0-0.7,0.1-1.4,0.3-2
		c0,2.2,0.2,4.4,0.5,6.6C262.4,366.5,263,368.7,263.8,370.8z"/>
	<path class="st1" d="M311,391.9l-81.7,0.7c-2.6,0-5.2,1.3-5.6,3.9l-8.9,59.6h-42.1c-1.4,0-2.4,1.1-2.4,2.5c0,1.4,1.1,2.4,2.4,2.4
		h134.3l9.2-62.9c0.4-2.9-1.6-5.6-4.5-6.1C311.5,391.9,311.3,391.9,311,391.9z"/>
	<path class="st0" d="M311.1,391.9c0.4,0,0.9,0,1.3,0.1c1.3,0.3,2.4,1,3.1,2.1c0.6,0.8,0.9,1.7,1,2.6c0,1.1-0.1,2.2-0.3,3.4
		l-1.2,8.3c-1.8,12.5-4.4,30.5-7.6,52.6v0.2h-0.2L177,461.2h-3.5c-0.6,0.1-1.3-0.1-1.9-0.4c-1.3-0.7-1.8-2.4-1.1-3.8
		c0.3-0.5,0.6-0.8,1.1-1.1c0.6-0.3,1.2-0.4,1.8-0.4H215l-0.3,0.3c3.2-21.3,6.2-41.2,8.9-59c0.1-1.2,0.6-2.3,1.5-3.1
		c0.9-0.7,2-1.2,3.1-1.4c1.1-0.1,2.2-0.1,3.3-0.1h3.2l12.3-0.1l21.8-0.1l31.1-0.2h10.5C310.9,391.9,311.2,391.9,311.1,391.9l-0.7,0
		h-2.1L300,392l-31.1,0.4l-21.9,0.2l-12.3,0.1h-3.2c-1.1,0-2.1,0-3.2,0.1c-1.1,0.1-2,0.6-2.9,1.2c-0.8,0.8-1.3,1.8-1.3,2.9
		c-2.7,17.8-5.6,37.7-8.8,59v0.3h-41.9c-0.5-0.1-1,0-1.5,0.3c-0.9,0.5-1.3,1.6-1,2.6c0.2,0.5,0.5,0.9,1,1.1c0.5,0.2,1,0.3,1.5,0.3
		h3.5l130.3,0.1l-0.2,0.2c3.3-22.1,5.9-40.1,7.8-52.5c0.5-3.1,0.9-5.9,1.2-8.3c0.2-1.1,0.3-2.2,0.3-3.3c-0.1-0.9-0.4-1.8-0.9-2.5
		c-0.7-1-1.8-1.8-3-2.1C312,392,311.6,391.9,311.1,391.9z"/>
	<path class="st0" d="M218.3,460.3c0.1,0,2.7-15.1,5.8-33.9s5.5-33.9,5.4-33.9s-2.7,15.1-5.8,33.9S218.2,460.3,218.3,460.3z"/>
	<circle class="st2" cx="267.5" cy="427.5" r="5.1"/>
</g>
<g id="freepik--speech-bubble-2--inject-516">
	<path class="st2" d="M436,160.3H306.9c-5.8,0-10.6,4.7-10.6,10.6V276c0,5.8,4.7,10.6,10.6,10.6h16.6v21.7l21.7-21.7H436
		c5.8,0,10.5-4.7,10.5-10.6V170.9C446.5,165.1,441.8,160.4,436,160.3z"/>
	<path class="st0" d="M436,160.3c0,0,0.4,0,1.1,0c1.1,0.1,2.2,0.4,3.2,0.9c1.7,0.7,3.1,1.9,4.2,3.4c0.7,0.9,1.2,2,1.6,3.1
		c0.4,1.3,0.5,2.6,0.5,3.9c0,11.3,0,27.6,0.1,48.1c0,10.2,0,21.5,0,33.6c0,6.1,0,12.4,0,18.9v2.4c0,0.8,0,1.6-0.1,2.5
		c-0.4,3.5-2.4,6.5-5.4,8.2c-1.5,0.9-3.2,1.3-5,1.4h-91l0.2-0.1l-21.7,21.7l-0.4,0.5v-22.2l0.3,0.3h-15.8c-2.5,0.2-4.9-0.5-7-1.9
		c-2-1.4-3.5-3.5-4.2-5.8c-0.3-1.2-0.5-2.4-0.4-3.6V251c0-18.4,0-36.2,0-53.1c0-8.5,0-16.7,0-24.7c0-1,0-2,0-3c0-1,0.3-2,0.6-3
		c1.4-3.8,4.8-6.5,8.9-7c1-0.1,1.9-0.1,2.9-0.1h2.8H353l60.6,0.1l16.5,0.1h4.3h1.5h-1.5h-4.3l-16.5,0.1l-60.6,0.1h-41.8h-2.8
		c-0.9,0-1.9,0-2.8,0.1c-3.9,0.5-7.2,3.1-8.5,6.7c-0.7,1.8-0.6,3.8-0.6,5.8c0,8,0,16.2,0,24.7c0,16.9,0,34.7,0,53.1v13.9
		c0,2.3,0,4.7,0,7v3.5c0,1.2,0.1,2.3,0.4,3.4c0.7,2.3,2.1,4.2,4,5.6c2,1.3,4.3,2,6.7,1.8h16.1v22l-0.4-0.2
		c7.5-7.5,14.8-14.8,21.7-21.7l0.1-0.1h91.2c1.7,0,3.3-0.4,4.8-1.1c1.4-0.8,2.7-2,3.6-3.4c0.9-1.4,1.5-2.9,1.6-4.5
		c0.1-0.8,0.1-1.6,0.1-2.5v-2.4c0-6.5,0-12.8,0-18.9c0-12.1,0-23.4,0-33.6c0-20.4,0.1-36.8,0.1-48.1c0.1-1.3-0.1-2.6-0.5-3.9
		c-0.3-1.1-0.9-2.1-1.5-3.1c-1.1-1.5-2.5-2.6-4.1-3.4C438.9,160.7,437.5,160.4,436,160.3z"/>
	<path class="st6" d="M353.1,188.5c3.1-1.8,6.4-3.2,9.8-4.2l2-9.6l16.4-0.3l2.4,9.5c3.5,0.8,6.8,2.1,9.9,3.9l8.3-5.3l11.8,11.2
		l-5.1,8.4c1.9,3,3.3,6.3,4.3,9.6l9.7,2l0.3,16.1l-9.6,2.3c-0.9,3.4-2.2,6.7-3.9,9.8l5.4,8.2l-11.4,11.6l-8.5-5
		c-3.1,1.8-6.4,3.2-9.8,4.2l-2,9.5l-16.4,0.3l-2.4-9.5c-3.5-0.8-6.8-2.1-9.9-3.9l-8.4,5.3l-11.8-11.2l5.1-8.3
		c-1.9-3-3.3-6.3-4.3-9.6l-9.7-2l-0.3-16.1l9.6-2.3c0.9-3.4,2.2-6.7,3.9-9.8l-5.4-8.2l11.4-11.6L353.1,188.5L353.1,188.5z
		 M363.5,208.5c-7.5,5.8-8.8,16.6-3,24.1c1,1.3,2.2,2.4,3.5,3.3c6.4,4.7,15.2,4.5,21.4-0.4c7.5-5.8,8.8-16.6,3-24.1
		c-1-1.3-2.2-2.4-3.5-3.4C378.5,203.4,369.8,203.6,363.5,208.5L363.5,208.5z"/>
	<path class="st3" d="M385.9,274.5h-21.5c-1.1,0-2.1-0.8-2.3-1.9l-1.3-6.6c-0.1-0.5-0.4-0.8-0.8-1l-4.9-1.8
		c-0.4-0.1-0.8-0.1-1.2,0.1l-5.6,3.7c-0.9,0.6-2,0.5-2.8-0.2l-15.9-14.3c-0.8-0.7-1-1.9-0.5-2.8l3.6-6.8c0.2-0.3,0.2-0.7,0.1-1.1
		l-1.6-4.4c-0.1-0.4-0.5-0.7-0.9-0.8l-8.9-2.5c-1-0.3-1.7-1.2-1.7-2.2l-0.3-15.8h1l0.3,15.9c0,0.6,0.4,1.1,1,1.3l8.9,2.5
		c0.7,0.2,1.3,0.7,1.6,1.5l1.6,4.4c0.2,0.6,0.2,1.3-0.1,1.9l-3.7,6.8c-0.3,0.5-0.2,1.2,0.3,1.6l15.9,14.2c0.4,0.4,1.1,0.5,1.6,0.1
		l5.6-3.6c0.6-0.4,1.4-0.5,2.1-0.2l4.9,1.8c0.8,0.3,1.3,0.9,1.5,1.7l1.3,6.6c0.1,0.6,0.7,1.1,1.3,1.1h21.5V274.5z"/>
	<circle class="st2" cx="320" cy="218" r="2.1"/>
	<path class="st3" d="M320,220.6c-1.4,0-2.6-1.1-2.6-2.6c0-1.4,1.1-2.6,2.6-2.6c1.4,0,2.6,1.1,2.6,2.6c0,0,0,0,0,0
		C322.6,219.5,321.4,220.6,320,220.6z M320,216.5c-0.9,0-1.6,0.7-1.6,1.6s0.7,1.6,1.6,1.6c0.9,0,1.6-0.7,1.6-1.6c0,0,0,0,0,0
		C321.6,217.2,320.9,216.5,320,216.5L320,216.5z"/>
	<circle class="st2" cx="385" cy="274.8" r="2.1"/>
	<path class="st3" d="M385,277.4c-1.4,0-2.6-1.2-2.6-2.6c0-1.4,1.2-2.6,2.6-2.6c1.4,0,2.6,1.2,2.6,2.6c0,0,0,0,0,0
		C387.6,276.3,386.4,277.4,385,277.4z M385,273.2c-0.9,0-1.6,0.7-1.6,1.6s0.7,1.6,1.6,1.6c0.9,0,1.6-0.7,1.6-1.6l0,0
		C386.6,274,385.9,273.2,385,273.2z"/>
	<path class="st3" d="M387.3,269.5l-1-0.2l0.6-3.5c0.2-1,0.9-1.9,1.9-2.3l5-2c0.9-0.4,1.9-0.3,2.7,0.2l6.5,3.9
		c0.8,0.5,1.9,0.4,2.5-0.3l12.1-12.6c0.7-0.7,0.8-1.8,0.2-2.6l-4.4-6.7c-0.6-0.8-0.7-1.9-0.3-2.8l1.5-3.8c0.4-0.9,1.2-1.6,2.2-1.9
		l7.3-1.6c0.9-0.2,1.6-1,1.6-2v-17.8c0-0.9-0.6-1.8-1.5-2l-8-2c-0.9-0.2-1.7-0.9-2.1-1.8l-1.6-3.9c-0.4-0.9-0.3-1.9,0.2-2.8l3.9-6.5
		c0.5-0.8,0.4-1.9-0.4-2.5l-13.2-12.6c-0.7-0.7-1.7-0.8-2.5-0.2l-6.3,4c-0.9,0.6-2,0.6-2.9,0.2l-4.1-1.9c-0.9-0.4-1.5-1.2-1.7-2.1
		l-1.7-6.9c-0.2-0.9-1-1.6-2-1.6h-17.6v-1H382c1.4,0,2.7,1,3,2.3l1.7,6.9c0.1,0.6,0.6,1.1,1.1,1.4l4.1,1.9c0.6,0.3,1.4,0.2,2-0.1
		l6.3-4c1.2-0.8,2.7-0.6,3.8,0.4l13.2,12.6c1,1,1.3,2.6,0.5,3.8l-3.9,6.5c-0.3,0.6-0.4,1.2-0.1,1.9l1.6,3.9c0.3,0.6,0.8,1,1.4,1.2
		l8,2c1.4,0.3,2.3,1.6,2.3,3v17.7c0,1.4-1,2.7-2.4,3l-7.3,1.6c-0.7,0.1-1.2,0.6-1.5,1.2l-1.5,3.8c-0.3,0.6-0.2,1.3,0.2,1.9l4.4,6.7
		c0.8,1.2,0.6,2.8-0.4,3.8L406.3,266c-1,1-2.6,1.3-3.8,0.5l-6.5-3.9c-0.6-0.3-1.2-0.4-1.8-0.1l-5,2c-0.7,0.3-1.1,0.8-1.2,1.5
		L387.3,269.5z"/>
	<circle class="st2" cx="365.2" cy="171.2" r="2.1"/>
	<path class="st3" d="M365.2,173.8c-1.4,0-2.6-1.2-2.6-2.6s1.2-2.6,2.6-2.6c1.4,0,2.6,1.2,2.6,2.6l0,0
		C367.8,172.6,366.7,173.8,365.2,173.8z M365.2,169.6c-0.9,0-1.6,0.7-1.6,1.6c0,0.9,0.7,1.6,1.6,1.6c0.9,0,1.6-0.7,1.6-1.6
		c0,0,0,0,0,0C366.8,170.3,366.1,169.6,365.2,169.6z"/>
	<path class="st3" d="M332.6,210.6c-0.3,0-0.5-0.2-0.5-0.5c0-0.2,0-0.4,2.2-5.7c0.3-0.6,0.2-1.3-0.2-1.9l-4.4-6.8
		c-0.8-1.2-0.6-2.7,0.3-3.7l11.7-12.4c1-1.1,2.6-1.3,3.8-0.5l6.6,4.2c0.5,0.3,1.2,0.4,1.8,0.2l5.2-1.9c0.6-0.2,1.1-0.7,1.3-1.4
		l1.4-5.1c0.1-0.3,0.3-0.4,0.6-0.4c0,0,0,0,0,0c0.3,0.1,0.4,0.3,0.4,0.6c0,0,0,0,0,0l-1.4,5.1c-0.3,1-1,1.7-1.9,2.1l-5.2,1.9
		c-0.9,0.3-1.9,0.2-2.7-0.3L345,180c-0.8-0.5-1.9-0.4-2.6,0.3l-11.7,12.4c-0.7,0.7-0.8,1.7-0.2,2.5l4.4,6.8c0.6,0.8,0.7,1.9,0.3,2.8
		c-1.5,3.6-2.1,5.1-2.1,5.4C333.1,210.4,332.9,210.6,332.6,210.6z"/>
	<path class="st3" d="M374.5,235.9c-7.5-0.2-13.4-6.4-13.2-13.9c0.2-7.2,6-13,13.2-13.2c1.8,0,3.6,0.4,5.3,1.1
		c0.3,0.1,0.4,0.4,0.3,0.6c0,0,0,0,0,0c-0.1,0.3-0.4,0.4-0.7,0.3c0,0,0,0,0,0c-6.4-2.7-13.7,0.2-16.5,6.6
		c-2.7,6.4,0.2,13.7,6.6,16.5c6.4,2.7,13.7-0.2,16.5-6.6c0.7-1.6,1-3.2,1-4.9c0-2.9-1-5.7-2.9-8c-0.2-0.2-0.1-0.5,0.1-0.7
		c0.2-0.2,0.5-0.2,0.7,0c0,0,0,0,0,0c4.8,5.8,4,14.3-1.8,19.1C380.7,234.8,377.6,235.9,374.5,235.9L374.5,235.9z"/>
	<circle class="st2" cx="380.2" cy="211" r="2.1"/>
	<path class="st3" d="M380.2,213.6c-1.4,0-2.6-1.1-2.6-2.6c0-1.4,1.1-2.6,2.6-2.6c1.4,0,2.6,1.1,2.6,2.6c0,0,0,0,0,0
		C382.8,212.4,381.6,213.6,380.2,213.6z M380.2,209.4c-0.9,0-1.6,0.7-1.6,1.6c0,0.9,0.7,1.6,1.6,1.6c0.9,0,1.6-0.7,1.6-1.6
		c0,0,0,0,0,0C381.8,210.1,381.1,209.4,380.2,209.4L380.2,209.4z"/>
</g>
<g id="freepik--speech-bubble-3--inject-516">
	<path class="st2" d="M598.7,45.2c3.2,0,5.8,2.6,5.8,5.8l0.2,52.7l-0.2,21.3c0,3.2-2.6,5.8-5.8,5.8H558l-12.8,12.8v-12.7h-2.7
		c-3.2,0-5.8-2.6-5.8-5.8c0,0,0,0,0-0.1l0.7-73.9c0-3.2,2.6-5.7,5.8-5.8L598.7,45.2z"/>
	<path class="st0" d="M598.7,45.2h-0.8h-2.2H587l-32.1,0.1h-10.7c-0.9-0.1-1.8,0-2.7,0.3c-0.9,0.3-1.7,0.8-2.3,1.4
		c-0.7,0.7-1.1,1.5-1.4,2.4c-0.2,1-0.3,1.9-0.2,2.9c-0.1,8-0.1,16.5-0.2,25.6s-0.2,18.5-0.3,28.3c0,4.9-0.1,9.9-0.1,15
		c0,1.3,0,2.6,0,3.8c0,1.2,0.5,2.4,1.3,3.4c0.8,1,1.9,1.6,3.1,1.9c0.6,0.1,1.3,0.1,1.9,0.1h2.2v13l-0.4-0.2
		c4.4-4.4,8.7-8.6,12.8-12.8l0.1-0.1h40.3c2,0.2,4-0.8,5.1-2.5c0.5-0.8,0.9-1.8,0.9-2.8c0-1,0-2,0-3c0-8,0.2-15.6,0.2-22.6
		s0-13.6,0-19.5c0-11.9,0-21.4,0-28c0-0.8,0-1.5-0.1-2.3c-0.1-0.7-0.4-1.3-0.8-1.8c-0.6-0.9-1.4-1.6-2.3-2.1
		c-0.8-0.4-1.6-0.6-2.5-0.6c0,0,0.2,0,0.7,0c2.5,0.3,4.5,2.1,5.1,4.5c0.1,0.8,0.2,1.6,0.2,2.3c0,6.6,0.1,16.1,0.2,28
		c0,6,0.1,12.5,0.1,19.5s-0.1,14.6-0.1,22.6c0,1,0,2,0,3c-0.1,1.1-0.4,2.1-1,3c-1.2,1.8-3.3,2.9-5.5,2.8H558l0.2-0.1l-12.8,12.9
		l-0.5,0.4v-13.4l0.3,0.3h-2c-0.7,0-1.3,0-2-0.1c-2.8-0.5-4.8-2.9-4.8-5.7c0-1.3,0-2.6,0-3.8c0-5.1,0.1-10.1,0.2-15
		c0.1-9.8,0.2-19.3,0.3-28.3s0.2-17.6,0.3-25.6c0-1,0-2,0.2-3c0.5-2,2.1-3.5,4-4.1c0.9-0.2,1.9-0.3,2.8-0.3h10.7l32.1,0.1h8.7h2.2
		L598.7,45.2z"/>
	<rect x="585.5" y="92.7" class="st3" width="8.7" height="28.3"/>
	<rect x="547.2" y="106" class="st3" width="8.7" height="14.9"/>
	<rect x="571.9" y="87.4" class="st3" width="8.7" height="33.6"/>
	<rect x="558.9" y="73.3" class="st3" width="8.7" height="47.7"/>
	<path class="st0" d="M600.2,121c0,0,0-0.1,0-0.3s0-0.5,0-0.9c0-0.8,0-2.1,0-3.6c0-3.2,0-7.8-0.1-13.7c0-11.8-0.1-28.6-0.1-48.6
		l0.2,0.2L542,54l0,0l0.3-0.3c0,24.8,0,47.9,0,67.2l-0.2-0.2l42.2,0.1l11.8,0.1h3.1h1.1h-1h-3.1l-11.8,0.1l-42.3,0.1h-0.2V121
		c0-19.3,0-42.4,0-67.2v-0.3h0.1h58.2h0.2v0.2c0,20.1-0.1,36.9-0.1,48.7c0,5.9,0,10.5-0.1,13.7c0,1.6,0,2.8,0,3.6c0,0.4,0,0.7,0,0.9
		C600.3,120.8,600.2,120.9,600.2,121z"/>
	<path class="st0" d="M600.2,100.3c0,0.2-13,0.3-29.1,0.3s-29.1-0.1-29.1-0.3s13-0.3,29.1-0.3S600.2,100.1,600.2,100.3z"/>
	<path class="st0" d="M600.2,69.8c0,0.1-13,0.3-29.1,0.3S542,70,542,69.8s13-0.3,29.1-0.3S600.2,69.7,600.2,69.8z"/>
</g>
<g id="freepik--speech-bubble-1--inject-516">
	<path class="st2" d="M121.3,307H108v-2.6c0-3.2-2.6-5.8-5.8-5.8H31.6c-3.2,0-5.8,2.6-5.8,5.8v57.5c0,3.2,2.6,5.8,5.8,5.8h70.6
		c3.2,0,5.8-2.6,5.8-5.8v-42.2L121.3,307z"/>
	<path class="st0" d="M121.3,307l-13.3,12.8v-0.1c0,6.4,0,14.4,0.1,23.8c0,4.7,0,9.7,0,15.1c0,1.3,0,2.7,0,4.1
		c-0.2,1.5-0.9,2.8-2,3.8c-1.1,1-2.6,1.5-4.1,1.5h-4.3H59.3H32.8c-0.9,0.1-1.9,0-2.8-0.2c-0.9-0.3-1.8-0.7-2.5-1.4
		c-0.7-0.7-1.2-1.5-1.5-2.3c-0.2-0.5-0.3-0.9-0.3-1.4c0-0.5,0-0.9,0-1.4v-5.6c0-15.9,0-31.3,0-45.7v-5.4c0-2.9,2.1-5.3,4.9-5.9
		c0.9-0.1,1.8-0.1,2.6-0.1h5.1h19.4l32.9,0h10c1,0,2,0,3,0.2c1.9,0.4,3.4,1.8,4.2,3.5c0.3,0.8,0.5,1.6,0.4,2.5v2.3l-0.1-0.1
		L121.3,307l-13.3,0.1h-0.1V307c0-0.8,0-1.5,0-2.3c0-0.8-0.1-1.6-0.4-2.4c-0.7-1.7-2.2-2.9-4-3.3c-1-0.1-2-0.2-3-0.1h-3.2h-6.8
		l-32.9,0H33.1c-0.8,0-1.7,0-2.5,0.1c-0.8,0.2-1.6,0.5-2.3,1c-1.4,1-2.2,2.7-2.2,4.4v5.4c0,14.5,0,29.8,0,45.7v5.6
		c-0.1,0.9,0,1.8,0.3,2.6c0.3,0.8,0.8,1.6,1.4,2.2c0.6,0.6,1.4,1,2.3,1.3c0.9,0.2,1.8,0.3,2.7,0.2h26.5h38.4
		c2.9-0.1,6.1,0.6,8.2-1.4c1-0.9,1.7-2.1,1.8-3.5c0.1-1.3,0-2.7,0-4c0-5.3,0-10.4,0-15.1c0-9.4,0-17.4,0.1-23.8l0,0l0,0L121.3,307z"
		/>
	<path class="st3" d="M102.9,315.2c-1.3,2.8-3.7,4.9-6.7,5.8c-2.1,0.6-4.3,0.5-6.3,1.3c-3.7,1.5-5.6,5.5-7.3,9.2s-3.7,7.7-7.4,9
		c-3.1,1.1-6.5-0.1-9.4-1.7s-5.5-3.7-8.6-4.7c-5.5-1.8-11.7,0-16.3,3.7s-7.6,8.9-10,14.4h71.9L102.9,315.2z"/>
	<path class="st0" d="M102.9,352.1c0,0,0-0.3,0-0.8s0-1.3,0-2.4c0-2.1,0-5.1,0-9c0-7.8-0.1-18.9-0.1-32.5l0.2,0.2l-72,0.1l0,0
		l0.3-0.3c0,15.9,0,31,0,44.7l-0.2-0.2l51.7,0.1l14.9,0.1h4h1L102.9,352.1l-0.3-0.1h-1h-3.9l-14.8,0.1L31,352.3h-0.2v-0.2
		c0-13.8,0-28.9,0-44.7v-0.3H31l71.9,0.1h0.2v0.2c0,13.7-0.1,24.9-0.1,32.7c0,3.9,0,6.9,0,8.9c0,1,0,1.8,0,2.3
		S102.9,352.1,102.9,352.1z"/>
	<path class="st0" d="M49.3,351.9c-0.2,0-0.3-9.8-0.3-22s0.1-22,0.3-22s0.3,9.8,0.3,22S49.4,351.9,49.3,351.9z"/>
	<path class="st0" d="M67.8,352.8c-0.1,0-0.3-10.2-0.3-22.7s0.1-22.7,0.3-22.7s0.3,10.2,0.3,22.7S67.9,352.8,67.8,352.8z"/>
	<path class="st0" d="M85.8,352.8c-0.1,0-0.3-10.2-0.3-22.7s0.1-22.7,0.3-22.7s0.3,10.2,0.3,22.7S86,352.8,85.8,352.8z"/>
	<path class="st0" d="M102.8,330.3c0,0.1-16.1,0.3-35.9,0.3S31,330.4,31,330.3s16.1-0.3,35.9-0.3S102.8,330.1,102.8,330.3z"/>
	<rect x="31.1" y="355.8" class="st1" width="59.7" height="4.4"/>
</g>
</svg>
