<?xml version="1.0" encoding="utf-8"?>
<!-- Generator: Adobe Illustrator 27.8.0, SVG Export Plug-In . SVG Version: 6.00 Build 0)  -->
<svg version="1.1" id="Layer_1" xmlns="http://www.w3.org/2000/svg" xmlns:xlink="http://www.w3.org/1999/xlink" x="0px" y="0px"
	 viewBox="0 0 750 500" style="enable-background:new 0 0 750 500;" xml:space="preserve">
<style type="text/css">
	.st0{fill:#FFFFFF;}
	.st1{fill:#E0E0E0;}
	.st2{fill:#263238;}
	.st3{fill:#455A64;}
	.st4{fill:#FFBF9D;}
	.st5{fill:#FF9A6C;}
	.st6{fill:#FF725E;}
	.st7{fill:none;stroke:#6C8EBF;stroke-width:3;stroke-miterlimit:10;}
	.st8{fill:#6C8EBF;stroke:#6C8EBF;stroke-width:3;stroke-miterlimit:10;}
	.st9{fill:#FFFFFF;stroke:#000000;}
	.st10{font-family:'Helvetica';}
	.st11{font-size:18px;}
	.st12{fill:#B85450;stroke:#B85450;stroke-width:3;stroke-miterlimit:10;}
	.st13{fill:none;}
	.st14{font-family:'MyriadPro-Regular';}
	.st15{fill:none;stroke:#B85450;stroke-width:3;stroke-miterlimit:10;}
	.st16{font-size:12px;}
</style>
<g id="freepik--character-1--inject-516">
	<path class="st0" d="M56.2,192.5h237.2c8.2,0,14.9,6.7,14.9,14.9v168.5c0,8.2-6.7,14.9-14.9,14.9H56.2c-8.2,0-14.9-6.7-14.9-14.9
		V207.4C41.3,199.2,48,192.5,56.2,192.5z"/>
	<path class="st1" d="M53.9,192.5h240.2c8.1,0,14.8,6.6,14.8,14.8l0,0v20l0,0h-267l0,0v-22.7C41.9,198,47.2,192.6,53.9,192.5
		C53.8,192.5,53.9,192.5,53.9,192.5z"/>
	<path class="st0" d="M61.8,208.8c0,2.2-1.8,3.9-3.9,3.9c-2.2,0-3.9-1.8-3.9-3.9c0-2.2,1.8-3.9,3.9-3.9l0,0
		C60,204.9,61.8,206.7,61.8,208.8z"/>
	<path class="st0" d="M73.6,208.8c0,2.2-1.8,3.9-3.9,3.9c-2.2,0-3.9-1.8-3.9-3.9c0-2.2,1.8-3.9,3.9-3.9l0,0
		C71.9,204.9,73.6,206.7,73.6,208.8z"/>
	<path class="st0" d="M85.5,208.8c0,2.2-1.8,3.9-3.9,3.9c-2.2,0-3.9-1.8-3.9-3.9c0-2.2,1.8-3.9,3.9-3.9l0,0
		C83.7,204.9,85.5,206.7,85.5,208.8z"/>
	<path class="st2" d="M294,390.8h0.6c0.6,0,1.2-0.1,1.7-0.2c6.1-1,10.9-5.6,12.2-11.7c0.3-2.3,0.4-4.7,0.3-7.1c0-2.5,0-5.2,0-8.1
		c0-22.9,0-56.1-0.1-97.1c0-10.2,0-21,0-32.1c0-5.6,0-11.3,0-17.1v-8.8c0-1.5-0.1-2.9-0.4-4.4c-0.7-2.9-2.2-5.6-4.4-7.6
		c-1.1-1-2.4-1.9-3.7-2.5c-1.4-0.6-2.8-1.1-4.4-1.3c-1.5-0.1-3.1-0.2-4.6-0.1h-19h-39.6H56.4h-1.5c-0.5,0-1,0-1.4,0.1
		c-1,0.1-1.9,0.3-2.8,0.6c-3.7,1.3-6.5,4.1-7.8,7.8c-0.3,0.9-0.5,1.8-0.7,2.8c-0.1,1-0.1,1.9-0.1,2.9v23c0,15.2,0,30.2,0,45
		c0,29.5,0,57.9,0,85V375c0,0.8,0,1.6,0.1,2.5l0.2,1.2c0.1,0.4,0.2,0.8,0.3,1.2c0.9,3.1,2.8,5.9,5.4,7.8c1.3,0.9,2.7,1.7,4.2,2.2
		s3.1,0.7,4.7,0.7h37.3h67l97,0.1h26.4h6.9h2.3h-2.3h-6.9h-26.4l-97,0.1h-67L57,391c-1.6,0-3.3-0.2-4.8-0.7
		c-4.8-1.6-8.5-5.4-9.9-10.3c-0.1-0.4-0.2-0.8-0.3-1.2l-0.2-1.2c0-0.8-0.1-1.7-0.1-2.5V360c0-27.1,0-55.5,0-85v-68
		c0-1,0-1.9,0.1-2.9s0.3-1.9,0.7-2.9c1.3-3.8,4.3-6.8,8.1-8.1c0.9-0.3,1.9-0.5,2.9-0.7c0.5,0,1,0,1.5-0.1h1.5h176.2h58.5
		c1.6,0,3.1,0,4.7,0.1c1.5,0.2,3.1,0.6,4.5,1.3c1.4,0.6,2.7,1.5,3.8,2.6c1.1,1,2.1,2.2,2.9,3.6c0.8,1.3,1.3,2.7,1.6,4.2
		c0.3,1.5,0.4,3,0.4,4.5v8.8c0,5.8,0,11.5,0,17.1c0,11.2,0,21.9,0,32.1c0,41-0.1,74.1-0.1,97.1c0,2.9,0,5.6,0,8.1
		c0.1,2.4,0,4.8-0.3,7.1c-0.8,3.7-2.9,7-6,9.1c-1.9,1.3-4,2.2-6.3,2.5c-0.6,0.1-1.2,0.2-1.7,0.2L294,390.8z"/>
	<path class="st2" d="M140.6,175.7c-3.3-2.1-4.1-7-2.3-10.5s5.6-5.6,9.5-6.2c5.7-0.9,11.5,1,15.5,5.1c2.1,2.2,3.9,5.1,6.8,6.1
		c2.5,0.9,5.4,0.1,8,0.4c3.6,0.5,6.6,3,8.5,6.1c1.7,3.2,2.7,6.7,3,10.3c0.4,3.3,0.6,6.9,2.9,9.3s5.8,2.8,8.5,4.5
		c5.3,3.5,6.8,10.6,3.5,15.9c-1.1,1.6-2.7,3.1-2.8,5c-0.1,1.8,1,3.3,1.6,5c1.4,4.3-2.2,9.5-6.7,9.8c-2.3,0.1-4.8-0.8-6.8,0.3
		s-2.8,3.5-4.1,5.4c-2.8,3.7-7.8,5-12,3.1c-1.7-0.8-3.3-2.2-5.2-2.1s-3.4,1.7-5.2,2.1c-2.4,0.5-4.7-1.3-6.1-3.3s-2.4-4.4-4.3-6
		c-2.4-2.1-5.8-2.7-8.8-3.7c-13-4.5-19.9-18.6-15.4-31.6c0.4-1.1,0.8-2.2,1.4-3.2"/>
	<path class="st3" d="M175.6,218.9c0.7-0.8,1.7-1.4,2.7-1.8H178c0.2,0,0.4-0.1,0.6-0.1c0.7-0.2,1.5-0.1,2.1,0.3l0,0
		c1.2,0.4,2.1,1.3,2.7,2.4c0.9,2,0.6,4.3-0.7,6.1c-1.3,2.1-4.1,2.8-6.2,1.5c-1.1-0.7-1.8-1.8-2.1-3
		C173.9,222.3,174.3,220.4,175.6,218.9z"/>
	<path class="st4" d="M131.7,250.3l-3.3-60.7c-0.1-2.8,1.9-5.3,4.7-5.7l28.9-8.2c9.3-1.2,15.8,10,16.6,19.4c1,10.4,1.7,23,0.7,30.8
		c-2,15.6-14.8,18-14.8,18s-0.1,3.9,0,9.6l-5.9,19.2L131.7,250.3z"/>
	<path class="st2" d="M174.6,208.3c0,1.1-0.8,2-1.9,2.1c-1,0.1-2-0.6-2.1-1.7c0,0,0,0,0-0.1c0-1.1,0.8-2,1.9-2.1
		C173.5,206.4,174.5,207.2,174.6,208.3L174.6,208.3z"/>
	<path class="st2" d="M176.1,201.7c-0.2,0.3-1.8-0.8-3.9-0.8s-3.7,1.2-3.9,0.9s0.1-0.6,0.8-1.1c0.9-0.7,2-1,3.1-1.1
		c1.1,0,2.2,0.3,3.1,0.9C176,201.1,176.2,201.6,176.1,201.7z"/>
	<path class="st2" d="M155.6,208.6c0,1.1-0.8,2-1.9,2.1c-1,0.1-2-0.6-2.1-1.7l0,0c0-1.1,0.8-2,1.9-2.1
		C154.5,206.8,155.5,207.5,155.6,208.6L155.6,208.6z"/>
	<path class="st2" d="M155,202.7c-0.2,0.3-1.8-0.8-3.9-0.7s-3.7,1.2-3.9,0.9s0.1-0.6,0.8-1.1c0.9-0.7,2-1,3.1-1.1
		c1.1,0,2.2,0.3,3.1,0.9C154.8,202.1,155.1,202.6,155,202.7z"/>
	<path class="st2" d="M163.2,218.5c1.1-0.4,2.3-0.6,3.5-0.7c0.6-0.1,1.1-0.2,1.1-0.6c0-0.6-0.1-1.1-0.4-1.6l-1.7-4.1
		c-2.4-5.9-4.2-10.7-3.9-10.8s2.4,4.6,4.8,10.5c0.6,1.5,1.1,2.8,1.7,4.1c0.4,0.7,0.5,1.4,0.3,2.1c-0.2,0.4-0.5,0.7-0.9,0.8
		c-0.3,0.1-0.6,0.1-0.9,0.1C165.6,218.5,164.4,218.6,163.2,218.5z"/>
	<path class="st5" d="M164.5,243.9c-7,0.3-14-1.5-20.1-5c0,0,4.5,11.6,20,9.7L164.5,243.9z"/>
	<path class="st5" d="M163,223.6c-1-1.4-2.7-2.2-4.4-2.2c-1.1,0-2.2,0.6-2.8,1.6c-0.9,1.5-0.4,3.4,1.1,4.3c0.8,0.5,1.7,0.6,2.6,0.3
		c1.2-0.4,2.2-1.1,3.1-2c0.3-0.2,0.5-0.5,0.6-0.8c0.2-0.4,0.1-0.8-0.1-1.1"/>
	<path class="st2" d="M156.9,220.1c0.4,0,0.4,2.3,2.5,3.9s4.5,1.3,4.6,1.6c0,0.1-0.5,0.5-1.6,0.5c-1.4,0.1-2.7-0.4-3.8-1.2
		c-1-0.8-1.7-2-1.9-3.3C156.5,220.7,156.8,220.1,156.9,220.1z"/>
	<path class="st2" d="M155.7,193.9c-0.2,0.6-2.4,0.4-4.9,0.8s-4.5,1.1-4.9,0.6c-0.2-0.2,0.2-0.8,1-1.4c1.1-0.7,2.3-1.2,3.6-1.4
		s2.6-0.1,3.8,0.3C155.3,193.1,155.7,193.6,155.7,193.9z"/>
	<path class="st2" d="M175.1,194.4c-0.4,0.5-1.9,0-3.6,0.1s-3.3,0.4-3.6-0.1c-0.2-0.2,0.1-0.7,0.7-1.2c0.9-0.6,1.9-0.9,2.9-0.9
		s2.1,0.3,2.9,0.9C175,193.6,175.3,194.1,175.1,194.4z"/>
	<path class="st2" d="M189.1,191.8c-0.6-2.4-2.1-4.5-4.1-5.9c-1.1-0.7-2.4-1.2-3.5-2c-2.2-1.8-2.8-5-4.2-7.5c-1.8-3.3-5.2-5.6-8.9-6
		c-3.1-0.3-6.3,0.6-9.3-0.1c-2.2-0.6-4.2-2-6.4-2.4c-4.4-0.8-8.5,2.3-11.6,5.4c0,3.1,2.5,5.2,4.9,7.2c2.5,2,5.7,2.9,8.8,2.3
		c2.4-0.4,5-1.6,7.1-0.4s2.3,4.6,4.2,6.3c2.8,2.4,7.2,0.1,10.7,1.2c2.7,0.8,4.4,3.4,6.2,5.6s4.5,4.2,7.2,3.5
		C190.1,196.6,189.8,194.1,189.1,191.8z"/>
	<path class="st2" d="M156.2,178.5c-2-0.6-6-1.8-7-3.5c-2.3-3.7-6.3-6.2-10.4-6c-4.4,0.3-8,3.5-8.9,7.8c-5.2,0.2-9.9,3.2-12.3,7.9
		c-0.3,0.6-0.6,1.2-0.8,1.8c-1.6,2.8-1.8,6.1-0.7,9.1c0.7,1.8,1.8,3.8,0.9,5.4s-3.3,1.8-5.1,2.4c-3.2,1.2-5.1,4.6-4.5,8
		c0.2,1.2,0.8,2.4,0.6,3.5s-1.3,2.1-2.1,3.1c-3.2,3.8-2.7,9.5,1.1,12.7c1.2,1,2.6,1.7,4.1,1.9c1.4,0.3,2.9,0.2,4.1,0.9
		c1.4,0.9,2,2.5,3,3.8c2,2.5,5.3,3.6,8.4,2.6c0.6-0.2,1.2-0.5,1.7-0.8c0.9,1.3,2.4,2.2,4.9,2.2l-0.6-32.8c0.4,0.8,1.1,1.4,2,1.6
		c5.3,1.2,6-9.7,4.9-12.6c2-1.6,3.8-3.5,5.3-5.5c1.5-2.1,2.7-8,2.4-10.7C149,181.4,157.1,178.8,156.2,178.5z"/>
	<path class="st4" d="M134,211.2c-0.2-3.3-4.2-4-7.1-2.4c-1.6,0.9-2.8,2.8-2.6,6.3c0.4,9.4,9.8,7.1,9.8,6.8S134.2,215.2,134,211.2z"
		/>
	<path class="st5" d="M130.9,218.5c0,0-0.2,0.1-0.4,0.3c-0.4,0.2-0.8,0.2-1.2,0.1c-1-0.3-1.9-1.9-2-3.6c-0.1-0.8,0.1-1.6,0.4-2.4
		c0.2-0.6,0.6-1.1,1.2-1.3c0.4-0.1,0.8,0,1,0.4c0.1,0.3,0.1,0.5,0.1,0.5s0.2-0.2,0.1-0.5c-0.1-0.2-0.2-0.4-0.4-0.6
		c-0.3-0.2-0.6-0.3-0.9-0.2c-0.8,0.2-1.5,0.7-1.7,1.5c-0.4,0.8-0.5,1.7-0.5,2.7c0.1,1.9,1.2,3.6,2.6,4c0.5,0.1,1.1,0,1.5-0.3
		C130.9,218.8,131,218.6,130.9,218.5z"/>
	<path class="st3" d="M143.2,176c-0.7,0.4-1.4,0.9-1.9,1.6c-0.9,1.3-1.3,3.8-0.7,6.5v0.2l-0.2,0.1c-2.8,0.7-5,2.7-6.1,5.4
		c-0.3,0.7-0.5,1.5-0.5,2.3s0.1,1.7,0.3,2.5c0.2,0.9,0.3,1.8,0.4,2.7c0.1,1-0.2,2-0.8,2.8c-1.2,1.8-3.1,2.7-4.7,3.5
		c-1.6,0.7-3.1,1.7-4.4,2.9c-2.1,2.1-3.4,4.9-3.5,7.9c-0.1,2,0.4,4,1.2,5.8c0.6,1.3,1.2,1.9,1.1,2c-0.2-0.1-0.3-0.3-0.4-0.4
		c-0.4-0.4-0.7-0.9-0.9-1.4c-1-1.8-1.5-3.9-1.5-6c0.1-3.1,1.3-6.1,3.6-8.3c1.3-1.2,2.9-2.3,4.5-3c1.6-0.9,3.4-1.7,4.4-3.3
		s0.6-3.3,0.3-5c-0.2-0.9-0.3-1.7-0.3-2.6s0.2-1.7,0.6-2.5c1.2-2.8,3.6-4.9,6.6-5.6l-0.2,0.3c-0.6-2.9-0.1-5.5,1-6.8
		c0.4-0.5,0.9-0.9,1.5-1.2C143,176,143.2,175.9,143.2,176z"/>
	<path class="st3" d="M127.4,222.1c0.7-0.8,1.7-1.4,2.7-1.8h-0.2c0.2,0,0.4-0.1,0.6-0.1c0.7-0.2,1.5-0.1,2.1,0.3l0,0
		c1.2,0.4,2.1,1.3,2.7,2.4c0.9,2,0.7,4.3-0.7,6.1c-1.3,2.1-4.1,2.8-6.2,1.5c-1.1-0.7-1.8-1.8-2.1-3
		C125.8,225.5,126.2,223.5,127.4,222.1z"/>
	<path class="st4" d="M271.8,260.3c0,0,7.4-10.2,10-10.5s19,0.3,21.3,0s15.2-6,15.2-6s2.3,0.8,2,3s-14.6,10.3-16.4,10.6
		s-15.5,1.4-15.5,1.4l-8.4,13.1L271.8,260.3z"/>
	<path class="st6" d="M272.7,257.1l-31.3,30.8L197,260.1c-2.5-1.6-5.3-2.5-8.3-2.8l-17.4-1.8l-7-6.5l-5.7,18.8l-28-21.5l-5.2,9.8
		l-18.6,8.9l17.9,87.8c0,0-0.1,1.4-3.9,12.2c-1.1,3.2-5.5,19.1-4.7,25.7l48.3,0.4l50.2-0.2l-9-30.3l-5.3-23.4
		c1.4-28.7,2-33.3,0.6-40.4l0,0c0,0,29.1,17.1,43.5,18.7c2.2,0.3,8.5-2.7,11.5-6.2c11.8-13.9,32.2-38.9,32.2-38.9L272.7,257.1z"/>
	<path class="st6" d="M117.2,308.8l-7.6,27.9l51,27.1l-9.8,20.1l-60.3-24c-3.4-1.3-6.3-3.5-8.4-6.5c-2.4-3.5-4.2-7.7-1.8-15.5
		l13-48.7c0.8-3.1,2.2-8,3.7-12c1.3-3.8,3.5-7.2,6.5-9.9c1-0.9,2.2-1.8,3.4-2.5"/>
	<path class="st2" d="M106.8,264.9l-0.6,0.4c-0.4,0.3-1,0.7-1.7,1.3c-2.1,1.7-3.9,3.8-5.3,6.1c-1.8,3-3,7.2-4.5,11.9
		S92,294.9,90.3,301L85,320.8c-0.9,3.6-1.9,7.2-2.9,11c-0.5,1.9-1,3.8-1.5,5.8c-0.6,1.9-1,4-1.2,6c-0.2,2.1,0.1,4.1,0.9,6.1
		s1.9,3.8,3.4,5.4s3.3,2.9,5.2,3.9c1,0.5,2,0.9,3.1,1.3l3.2,1.3l26.5,10.5l29.2,11.6l-0.3,0.1c3.4-7,6.6-13.7,9.8-20.1l0.1,0.3
		l-50.9-27.2h-0.1v-0.1l5.6-20.6l1.5-5.5c0.2-0.6,0.3-1.1,0.4-1.4s0.1-0.5,0.1-0.5s0,0.2-0.1,0.5s-0.2,0.8-0.4,1.4
		c-0.3,1.2-0.8,3.1-1.4,5.5l-5.5,20.6l-0.1-0.2l51,27.1l0.2,0.1l-0.1,0.2L151,384l-0.1,0.2l-0.2-0.1l-29.2-11.6L95,362.1l-3.2-1.3
		c-1-0.4-2.1-0.8-3.2-1.4c-2-1-3.8-2.4-5.4-4c-0.7-0.8-1.4-1.7-2-2.6s-1.1-1.9-1.5-2.9c-0.7-2-1.1-4.1-0.9-6.3
		c0.2-2.1,0.6-4.1,1.2-6c0.5-2,1-3.9,1.6-5.8c1-3.8,2-7.5,3-11c1.9-7.1,3.7-13.8,5.3-19.8s3-11.5,4.5-16.3s2.7-8.9,4.6-12
		c1.4-2.3,3.2-4.4,5.4-6.1C105.2,266,106,265.4,106.8,264.9z"/>
	<path class="st4" d="M212.5,379l-14.5-7l-28.3-2.2l-9.5-5l-6.5,14c0,0,14.4,8.7,18.3,9l23.8-0.7l12.4,1.3L212.5,379z"/>
	<path class="st2" d="M119.8,304.7c-0.1,0,0.3-1.9,0.5-4.9c0.1-1.8,0.1-3.6-0.1-5.4c-0.2-2.2-0.6-4.3-1.1-6.5
		c-0.6-2.1-1.3-4.2-2.2-6.2c-0.8-1.6-1.6-3.2-2.6-4.7c-1.7-2.6-3-4-2.9-4.1c0.3,0.3,0.7,0.6,0.9,1c0.4,0.4,0.7,0.8,1,1.2
		c0.4,0.5,0.8,1,1.2,1.7c1,1.5,1.9,3.1,2.7,4.7c1.9,4,3.1,8.3,3.4,12.8c0.1,1.8,0.1,3.6,0,5.4c0,0.8-0.2,1.5-0.2,2.1
		c-0.1,0.5-0.2,1-0.3,1.5C120,303.9,119.9,304.3,119.8,304.7z"/>
	<path class="st2" d="M110.1,337c0,0.1-0.8-0.1-2.1-0.1c-1.7,0-3.4,0.3-5,0.8c-1.6,0.6-3.1,1.4-4.4,2.5c-1,0.8-1.6,1.4-1.6,1.4
		c0.4-0.6,0.8-1.2,1.4-1.6c1.3-1.2,2.8-2.1,4.5-2.6c1.7-0.6,3.4-0.8,5.2-0.7C108.7,336.6,109.4,336.7,110.1,337z"/>
	<path class="st2" d="M193.7,276.5c0.4,0.4,0.7,0.8,0.9,1.3l0.5,0.7l0.5,0.9c0.4,0.7,0.8,1.5,1.1,2.2l0.6,1.3c0.2,0.5,0.4,1,0.6,1.5
		c0.4,1,0.7,2.1,1.1,3.3c0.7,2.5,1.3,5.1,1.7,7.7c0.7,4.7,0.9,9.5,0.8,14.3c0,1.8-0.1,3.3-0.2,4.4c0,0.5-0.1,1.1-0.2,1.6
		c0-0.5,0-1.1,0-1.6c0-1,0-2.5,0-4.3c0-4.8-0.3-9.5-1-14.2c-0.4-2.6-0.9-5.2-1.6-7.7c-0.4-1.1-0.6-2.3-1-3.3c-0.2-0.5-0.4-1-0.5-1.5
		s-0.4-0.9-0.6-1.3c-0.3-0.9-0.7-1.6-1-2.2l-0.4-0.9c-0.1-0.3-0.3-0.5-0.4-0.7C194.3,277.4,194,277,193.7,276.5z"/>
	<path class="st2" d="M157.9,269.3c-0.1,0-0.3-0.1-0.4-0.2c-0.2-0.1-0.6-0.3-1.1-0.5c-1.3-0.7-2.6-1.5-3.7-2.5h0.3
		c-2.4,3.7-4.4,7.7-5.9,11.9l-0.1,0.4l-0.3-0.3l-3.8-3.8c-4.9-4.9-9.2-9.3-12.4-12.5l-3.7-3.8l-1-1.1c-0.1-0.1-0.2-0.2-0.3-0.4
		c0.1,0.1,0.3,0.2,0.4,0.3c0.3,0.3,0.6,0.6,1.1,1l3.8,3.7c3.2,3.1,7.6,7.5,12.5,12.4l3.8,3.8l-0.4,0.1c1.6-4.2,3.6-8.2,6.1-11.9
		l0.1-0.2l0.1,0.1c1.1,1,2.3,1.8,3.6,2.6C157,268.7,157.5,269,157.9,269.3z"/>
	<path class="st2" d="M171,255.8c0.1,0.4,0.1,0.8,0.1,1.3c0,1.2-0.1,2.3-0.2,3.5c-0.5,3.8-1.9,7.5-4,10.7l-0.3,0.5l-0.2,0.3
		l-0.2-0.3c-1.9-2.6-3.5-5.5-4.7-8.5h0.4c-0.7,1.6-1.3,2.9-1.7,3.9c-0.2,0.5-0.4,1-0.7,1.4c0.1-0.5,0.3-1,0.5-1.5
		c0.4-1,0.9-2.4,1.6-4l0.2-0.5l0.2,0.5c1.3,3,2.9,5.8,4.8,8.4h-0.4c0.1-0.1,0.2-0.3,0.3-0.5c2-3.2,3.4-6.8,4.1-10.5
		C171,257.6,170.9,255.8,171,255.8z"/>
	<path class="st2" d="M177.9,354.2c-0.1-0.3-0.1-0.6-0.1-0.9c-0.1-0.6-0.2-1.5-0.3-2.5c-0.3-2.2-0.6-5.4-1.1-9.2
		c-0.9-7.8-2.2-18.6-4.5-30.3c-1.1-5.9-2.5-11.4-3.9-16.4c-0.8-2.5-1.4-4.9-2.2-7c-0.4-1.1-0.7-2.2-1.1-3.2l-1.1-2.9
		c-0.7-1.9-1.4-3.5-2-4.9l-0.8-2l-0.8-1.7l-1-2.3c-0.1-0.3-0.2-0.5-0.3-0.8c0.2,0.2,0.3,0.5,0.4,0.8c0.3,0.6,0.7,1.3,1.1,2.3
		l0.8,1.6c0.3,0.6,0.6,1.3,0.9,2c0.6,1.4,1.4,3,2.1,4.9c0.4,0.9,0.7,1.9,1.1,2.9s0.7,2.1,1.1,3.2c0.8,2.2,1.5,4.5,2.2,7
		c1.4,5,2.8,10.6,3.9,16.5c2.3,11.8,3.5,22.6,4.4,30.4c0.4,3.9,0.7,7.1,0.9,9.3c0.1,1.1,0.2,1.9,0.2,2.5
		C177.9,353.7,177.9,353.9,177.9,354.2z"/>
	<path class="st2" d="M192.1,342.1c-0.5,0.1-1,0.1-1.6,0c-1,0-2.5-0.1-4.3-0.1c-3.6-0.2-8.6-0.5-14.1-1.1s-10.4-1.4-14-2
		c-1.8-0.3-3.2-0.6-4.2-0.8c-0.5-0.1-1-0.2-1.5-0.4c0.5,0,1,0.1,1.6,0.2l4.2,0.6c3.6,0.5,8.5,1.2,14,1.8s10.4,1,14,1.3l4.3,0.3
		C191,341.9,191.5,342,192.1,342.1z"/>
	<path class="st2" d="M187.4,356.2c-0.4-0.1-0.9-0.2-1.3-0.4l-3.4-1.2c-2.9-1-6.9-2.5-11.3-3.9s-8.5-2.6-11.4-3.5l-3.5-1
		c-0.4-0.1-0.9-0.2-1.3-0.4c0.4,0,0.9,0.1,1.3,0.2c0.8,0.2,2.1,0.5,3.5,0.8c3,0.8,7.1,1.9,11.5,3.4s8.4,2.9,11.2,4.1
		c1.4,0.6,2.6,1,3.4,1.4C186.6,355.7,187,355.9,187.4,356.2z"/>
	<path class="st2" d="M243.8,300.8c-0.4-0.5-0.8-1.1-1-1.7c-0.7-1.5-1.1-3-1.4-4.5c-0.3-1.6-0.4-3.2-0.3-4.8c0-0.7,0.1-1.4,0.3-2
		c0,2.2,0.2,4.4,0.5,6.6C242.4,296.5,243,298.7,243.8,300.8z"/>
	<path class="st1" d="M291,321.9l-81.7,0.7c-2.6,0-5.2,1.3-5.6,3.9l-8.9,59.6h-42.1c-1.4,0-2.4,1.1-2.4,2.5s1.1,2.4,2.4,2.4H287
		l9.2-62.9c0.4-2.9-1.6-5.6-4.5-6.1C291.5,321.9,291.3,321.9,291,321.9z"/>
	<path class="st2" d="M291.1,321.9c0.4,0,0.9,0,1.3,0.1c1.3,0.3,2.4,1,3.1,2.1c0.6,0.8,0.9,1.7,1,2.6c0,1.1-0.1,2.2-0.3,3.4
		l-1.2,8.3c-1.8,12.5-4.4,30.5-7.6,52.6v0.2h-0.2H157h-3.5c-0.6,0.1-1.3-0.1-1.9-0.4c-1.3-0.7-1.8-2.4-1.1-3.8
		c0.3-0.5,0.6-0.8,1.1-1.1c0.6-0.3,1.2-0.4,1.8-0.4H195l-0.3,0.3c3.2-21.3,6.2-41.2,8.9-59c0.1-1.2,0.6-2.3,1.5-3.1
		c0.9-0.7,2-1.2,3.1-1.4c1.1-0.1,2.2-0.1,3.3-0.1h3.2l12.3-0.1l21.8-0.1l31.1-0.2h10.5C290.9,321.9,291.2,321.9,291.1,321.9h-0.7
		h-2.1L280,322l-31.1,0.4l-21.9,0.2l-12.3,0.1h-3.2c-1.1,0-2.1,0-3.2,0.1c-1.1,0.1-2,0.6-2.9,1.2c-0.8,0.8-1.3,1.8-1.3,2.9
		c-2.7,17.8-5.6,37.7-8.8,59v0.3h-41.9c-0.5-0.1-1,0-1.5,0.3c-0.9,0.5-1.3,1.6-1,2.6c0.2,0.5,0.5,0.9,1,1.1s1,0.3,1.5,0.3h3.5
		l130.3,0.1l-0.2,0.2c3.3-22.1,5.9-40.1,7.8-52.5c0.5-3.1,0.9-5.9,1.2-8.3c0.2-1.1,0.3-2.2,0.3-3.3c-0.1-0.9-0.4-1.8-0.9-2.5
		c-0.7-1-1.8-1.8-3-2.1C292,322,291.6,321.9,291.1,321.9z"/>
	<path class="st2" d="M198.3,390.3c0.1,0,2.7-15.1,5.8-33.9s5.5-33.9,5.4-33.9s-2.7,15.1-5.8,33.9S198.2,390.3,198.3,390.3z"/>
	<circle class="st0" cx="247.5" cy="357.5" r="5.1"/>
</g>
<g id="freepik--speech-bubble-2--inject-516">
	<path class="st0" d="M416,90.3H286.9c-5.8,0-10.6,4.7-10.6,10.6V206c0,5.8,4.7,10.6,10.6,10.6h16.6v21.7l21.7-21.7H416
		c5.8,0,10.5-4.7,10.5-10.6V100.9C426.5,95.1,421.8,90.4,416,90.3z"/>
	<path class="st2" d="M416,90.3c0,0,0.4,0,1.1,0c1.1,0.1,2.2,0.4,3.2,0.9c1.7,0.7,3.1,1.9,4.2,3.4c0.7,0.9,1.2,2,1.6,3.1
		c0.4,1.3,0.5,2.6,0.5,3.9c0,11.3,0,27.6,0.1,48.1c0,10.2,0,21.5,0,33.6c0,6.1,0,12.4,0,18.9v2.4c0,0.8,0,1.6-0.1,2.5
		c-0.4,3.5-2.4,6.5-5.4,8.2c-1.5,0.9-3.2,1.3-5,1.4h-91l0.2-0.1l-21.7,21.7l-0.4,0.5v-22.2l0.3,0.3h-15.8c-2.5,0.2-4.9-0.5-7-1.9
		c-2-1.4-3.5-3.5-4.2-5.8c-0.3-1.2-0.5-2.4-0.4-3.6V181c0-18.4,0-36.2,0-53.1c0-8.5,0-16.7,0-24.7c0-1,0-2,0-3s0.3-2,0.6-3
		c1.4-3.8,4.8-6.5,8.9-7c1-0.1,1.9-0.1,2.9-0.1h2.8H333l60.6,0.1l16.5,0.1h4.3h1.5h-1.5h-4.3l-16.5,0.1L333,90.5h-41.8h-2.8
		c-0.9,0-1.9,0-2.8,0.1c-3.9,0.5-7.2,3.1-8.5,6.7c-0.7,1.8-0.6,3.8-0.6,5.8c0,8,0,16.2,0,24.7c0,16.9,0,34.7,0,53.1v13.9
		c0,2.3,0,4.7,0,7v3.5c0,1.2,0.1,2.3,0.4,3.4c0.7,2.3,2.1,4.2,4,5.6c2,1.3,4.3,2,6.7,1.8h16.1v22l-0.4-0.2
		c7.5-7.5,14.8-14.8,21.7-21.7l0.1-0.1h91.2c1.7,0,3.3-0.4,4.8-1.1c1.4-0.8,2.7-2,3.6-3.4s1.5-2.9,1.6-4.5c0.1-0.8,0.1-1.6,0.1-2.5
		v-2.4c0-6.5,0-12.8,0-18.9c0-12.1,0-23.4,0-33.6c0-20.4,0.1-36.8,0.1-48.1c0.1-1.3-0.1-2.6-0.5-3.9c-0.3-1.1-0.9-2.1-1.5-3.1
		c-1.1-1.5-2.5-2.6-4.1-3.4C418.9,90.7,417.5,90.4,416,90.3z"/>
	<path class="st6" d="M333.1,118.5c3.1-1.8,6.4-3.2,9.8-4.2l2-9.6l16.4-0.3l2.4,9.5c3.5,0.8,6.8,2.1,9.9,3.9l8.3-5.3l11.8,11.2
		l-5.1,8.4c1.9,3,3.3,6.3,4.3,9.6l9.7,2l0.3,16.1l-9.6,2.3c-0.9,3.4-2.2,6.7-3.9,9.8l5.4,8.2l-11.4,11.6l-8.5-5
		c-3.1,1.8-6.4,3.2-9.8,4.2l-2,9.5l-16.4,0.3l-2.4-9.5c-3.5-0.8-6.8-2.1-9.9-3.9l-8.4,5.3l-11.8-11.2l5.1-8.3
		c-1.9-3-3.3-6.3-4.3-9.6l-9.7-2l-0.3-16.1l9.6-2.3c0.9-3.4,2.2-6.7,3.9-9.8l-5.4-8.2l11.4-11.6L333.1,118.5L333.1,118.5z
		 M343.5,138.5c-7.5,5.8-8.8,16.6-3,24.1c1,1.3,2.2,2.4,3.5,3.3c6.4,4.7,15.2,4.5,21.4-0.4c7.5-5.8,8.8-16.6,3-24.1
		c-1-1.3-2.2-2.4-3.5-3.4C358.5,133.4,349.8,133.6,343.5,138.5L343.5,138.5z"/>
	<path class="st3" d="M365.9,204.5h-21.5c-1.1,0-2.1-0.8-2.3-1.9l-1.3-6.6c-0.1-0.5-0.4-0.8-0.8-1l-4.9-1.8
		c-0.4-0.1-0.8-0.1-1.2,0.1l-5.6,3.7c-0.9,0.6-2,0.5-2.8-0.2l-15.9-14.3c-0.8-0.7-1-1.9-0.5-2.8l3.6-6.8c0.2-0.3,0.2-0.7,0.1-1.1
		l-1.6-4.4c-0.1-0.4-0.5-0.7-0.9-0.8l-8.9-2.5c-1-0.3-1.7-1.2-1.7-2.2l-0.3-15.8h1l0.3,15.9c0,0.6,0.4,1.1,1,1.3l8.9,2.5
		c0.7,0.2,1.3,0.7,1.6,1.5l1.6,4.4c0.2,0.6,0.2,1.3-0.1,1.9l-3.7,6.8c-0.3,0.5-0.2,1.2,0.3,1.6l15.9,14.2c0.4,0.4,1.1,0.5,1.6,0.1
		l5.6-3.6c0.6-0.4,1.4-0.5,2.1-0.2l4.9,1.8c0.8,0.3,1.3,0.9,1.5,1.7l1.3,6.6c0.1,0.6,0.7,1.1,1.3,1.1H366v0.8H365.9z"/>
	<circle class="st0" cx="300" cy="148" r="2.1"/>
	<path class="st3" d="M300,150.6c-1.4,0-2.6-1.1-2.6-2.6c0-1.4,1.1-2.6,2.6-2.6c1.4,0,2.6,1.1,2.6,2.6l0,0
		C302.6,149.5,301.4,150.6,300,150.6z M300,146.5c-0.9,0-1.6,0.7-1.6,1.6s0.7,1.6,1.6,1.6s1.6-0.7,1.6-1.6l0,0
		C301.6,147.2,300.9,146.5,300,146.5L300,146.5z"/>
	<circle class="st0" cx="365" cy="204.8" r="2.1"/>
	<path class="st3" d="M365,207.4c-1.4,0-2.6-1.2-2.6-2.6s1.2-2.6,2.6-2.6s2.6,1.2,2.6,2.6l0,0C367.6,206.3,366.4,207.4,365,207.4z
		 M365,203.2c-0.9,0-1.6,0.7-1.6,1.6s0.7,1.6,1.6,1.6s1.6-0.7,1.6-1.6l0,0C366.6,204,365.9,203.2,365,203.2z"/>
	<path class="st3" d="M367.3,199.5l-1-0.2l0.6-3.5c0.2-1,0.9-1.9,1.9-2.3l5-2c0.9-0.4,1.9-0.3,2.7,0.2l6.5,3.9
		c0.8,0.5,1.9,0.4,2.5-0.3l12.1-12.6c0.7-0.7,0.8-1.8,0.2-2.6l-4.4-6.7c-0.6-0.8-0.7-1.9-0.3-2.8l1.5-3.8c0.4-0.9,1.2-1.6,2.2-1.9
		l7.3-1.6c0.9-0.2,1.6-1,1.6-2v-17.8c0-0.9-0.6-1.8-1.5-2l-8-2c-0.9-0.2-1.7-0.9-2.1-1.8l-1.6-3.9c-0.4-0.9-0.3-1.9,0.2-2.8l3.9-6.5
		c0.5-0.8,0.4-1.9-0.4-2.5L383,109.4c-0.7-0.7-1.7-0.8-2.5-0.2l-6.3,4c-0.9,0.6-2,0.6-2.9,0.2l-4.1-1.9c-0.9-0.4-1.5-1.2-1.7-2.1
		l-1.7-6.9c-0.2-0.9-1-1.6-2-1.6h-17.6v-1H362c1.4,0,2.7,1,3,2.3l1.7,6.9c0.1,0.6,0.6,1.1,1.1,1.4l4.1,1.9c0.6,0.3,1.4,0.2,2-0.1
		l6.3-4c1.2-0.8,2.7-0.6,3.8,0.4l13.2,12.6c1,1,1.3,2.6,0.5,3.8l-3.9,6.5c-0.3,0.6-0.4,1.2-0.1,1.9l1.6,3.9c0.3,0.6,0.8,1,1.4,1.2
		l8,2c1.4,0.3,2.3,1.6,2.3,3v17.7c0,1.4-1,2.7-2.4,3l-7.3,1.6c-0.7,0.1-1.2,0.6-1.5,1.2l-1.5,3.8c-0.3,0.6-0.2,1.3,0.2,1.9l4.4,6.7
		c0.8,1.2,0.6,2.8-0.4,3.8L386.3,196c-1,1-2.6,1.3-3.8,0.5l-6.5-3.9c-0.6-0.3-1.2-0.4-1.8-0.1l-5,2c-0.7,0.3-1.1,0.8-1.2,1.5
		L367.3,199.5z"/>
	<circle class="st0" cx="345.2" cy="101.2" r="2.1"/>
	<path class="st3" d="M345.2,103.8c-1.4,0-2.6-1.2-2.6-2.6s1.2-2.6,2.6-2.6s2.6,1.2,2.6,2.6l0,0
		C347.8,102.6,346.7,103.8,345.2,103.8z M345.2,99.6c-0.9,0-1.6,0.7-1.6,1.6s0.7,1.6,1.6,1.6s1.6-0.7,1.6-1.6l0,0
		C346.8,100.3,346.1,99.6,345.2,99.6z"/>
	<path class="st3" d="M312.6,140.6c-0.3,0-0.5-0.2-0.5-0.5c0-0.2,0-0.4,2.2-5.7c0.3-0.6,0.2-1.3-0.2-1.9l-4.4-6.8
		c-0.8-1.2-0.6-2.7,0.3-3.7l11.7-12.4c1-1.1,2.6-1.3,3.8-0.5l6.6,4.2c0.5,0.3,1.2,0.4,1.8,0.2l5.2-1.9c0.6-0.2,1.1-0.7,1.3-1.4
		l1.4-5.1c0.1-0.3,0.3-0.4,0.6-0.4l0,0c0.3,0.1,0.4,0.3,0.4,0.6l0,0l-1.4,5.1c-0.3,1-1,1.7-1.9,2.1l-5.2,1.9
		c-0.9,0.3-1.9,0.2-2.7-0.3L325,110c-0.8-0.5-1.9-0.4-2.6,0.3l-11.7,12.4c-0.7,0.7-0.8,1.7-0.2,2.5l4.4,6.8c0.6,0.8,0.7,1.9,0.3,2.8
		c-1.5,3.6-2.1,5.1-2.1,5.4C313.1,140.4,312.9,140.6,312.6,140.6z"/>
	<path class="st3" d="M354.5,165.9c-7.5-0.2-13.4-6.4-13.2-13.9c0.2-7.2,6-13,13.2-13.2c1.8,0,3.6,0.4,5.3,1.1
		c0.3,0.1,0.4,0.4,0.3,0.6l0,0c-0.1,0.3-0.4,0.4-0.7,0.3l0,0c-6.4-2.7-13.7,0.2-16.5,6.6c-2.7,6.4,0.2,13.7,6.6,16.5
		c6.4,2.7,13.7-0.2,16.5-6.6c0.7-1.6,1-3.2,1-4.9c0-2.9-1-5.7-2.9-8c-0.2-0.2-0.1-0.5,0.1-0.7s0.5-0.2,0.7,0l0,0
		c4.8,5.8,4,14.3-1.8,19.1C360.7,164.8,357.6,165.9,354.5,165.9L354.5,165.9z"/>
	<circle class="st0" cx="360.2" cy="141" r="2.1"/>
	<path class="st3" d="M360.2,143.6c-1.4,0-2.6-1.1-2.6-2.6c0-1.4,1.1-2.6,2.6-2.6c1.4,0,2.6,1.1,2.6,2.6l0,0
		C362.8,142.4,361.6,143.6,360.2,143.6z M360.2,139.4c-0.9,0-1.6,0.7-1.6,1.6c0,0.9,0.7,1.6,1.6,1.6s1.6-0.7,1.6-1.6l0,0
		C361.8,140.1,361.1,139.4,360.2,139.4L360.2,139.4z"/>
</g>
<g id="freepik--speech-bubble-1--inject-516">
	<path class="st0" d="M101.3,237H88v-2.6c0-3.2-2.6-5.8-5.8-5.8H11.6c-3.2,0-5.8,2.6-5.8,5.8v57.5c0,3.2,2.6,5.8,5.8,5.8h70.6
		c3.2,0,5.8-2.6,5.8-5.8v-42.2L101.3,237z"/>
	<path class="st2" d="M101.3,237L88,249.8v-0.1c0,6.4,0,14.4,0.1,23.8c0,4.7,0,9.7,0,15.1c0,1.3,0,2.7,0,4.1c-0.2,1.5-0.9,2.8-2,3.8
		S83.5,298,82,298h-4.3H39.3H12.8c-0.9,0.1-1.9,0-2.8-0.2c-0.9-0.3-1.8-0.7-2.5-1.4c-0.7-0.7-1.2-1.5-1.5-2.3
		c-0.2-0.5-0.3-0.9-0.3-1.4s0-0.9,0-1.4v-5.6c0-15.9,0-31.3,0-45.7v-5.4c0-2.9,2.1-5.3,4.9-5.9c0.9-0.1,1.8-0.1,2.6-0.1h5.1h19.4
		h32.9h10c1,0,2,0,3,0.2c1.9,0.4,3.4,1.8,4.2,3.5c0.3,0.8,0.5,1.6,0.4,2.5v2.3l-0.1-0.1L101.3,237L88,237.1h-0.1V237
		c0-0.8,0-1.5,0-2.3s-0.1-1.6-0.4-2.4c-0.7-1.7-2.2-2.9-4-3.3c-1-0.1-2-0.2-3-0.1h-3.2h-6.8H37.6H13.1c-0.8,0-1.7,0-2.5,0.1
		c-0.8,0.2-1.6,0.5-2.3,1c-1.4,1-2.2,2.7-2.2,4.4v5.4c0,14.5,0,29.8,0,45.7v5.6c-0.1,0.9,0,1.8,0.3,2.6c0.3,0.8,0.8,1.6,1.4,2.2
		s1.4,1,2.3,1.3c0.9,0.2,1.8,0.3,2.7,0.2h26.5h38.4c2.9-0.1,6.1,0.6,8.2-1.4c1-0.9,1.7-2.1,1.8-3.5c0.1-1.3,0-2.7,0-4
		c0-5.3,0-10.4,0-15.1c0-9.4,0-17.4,0.1-23.8l0,0l0,0L101.3,237z"/>
	<path class="st3" d="M82.9,245.2c-1.3,2.8-3.7,4.9-6.7,5.8c-2.1,0.6-4.3,0.5-6.3,1.3c-3.7,1.5-5.6,5.5-7.3,9.2s-3.7,7.7-7.4,9
		c-3.1,1.1-6.5-0.1-9.4-1.7s-5.5-3.7-8.6-4.7c-5.5-1.8-11.7,0-16.3,3.7s-7.6,8.9-10,14.4h71.9L82.9,245.2z"/>
	<path class="st2" d="M82.9,282.1c0,0,0-0.3,0-0.8s0-1.3,0-2.4c0-2.1,0-5.1,0-9c0-7.8-0.1-18.9-0.1-32.5l0.2,0.2l-72,0.1l0,0
		l0.3-0.3c0,15.9,0,31,0,44.7l-0.2-0.2l51.7,0.1l14.9,0.1h4h1L82.9,282.1l-0.3-0.1h-1h-3.9l-14.8,0.1L11,282.3h-0.2v-0.2
		c0-13.8,0-28.9,0-44.7v-0.3H11l71.9,0.1h0.2v0.2c0,13.7-0.1,24.9-0.1,32.7c0,3.9,0,6.9,0,8.9c0,1,0,1.8,0,2.3
		S82.9,282.1,82.9,282.1z"/>
	<path class="st2" d="M29.3,281.9c-0.2,0-0.3-9.8-0.3-22s0.1-22,0.3-22s0.3,9.8,0.3,22C29.6,272.1,29.4,281.9,29.3,281.9z"/>
	<path class="st2" d="M47.8,282.8c-0.1,0-0.3-10.2-0.3-22.7s0.1-22.7,0.3-22.7s0.3,10.2,0.3,22.7S47.9,282.8,47.8,282.8z"/>
	<path class="st2" d="M65.8,282.8c-0.1,0-0.3-10.2-0.3-22.7s0.1-22.7,0.3-22.7s0.3,10.2,0.3,22.7S66,282.8,65.8,282.8z"/>
	<path class="st2" d="M82.8,260.3c0,0.1-16.1,0.3-35.9,0.3S11,260.4,11,260.3s16.1-0.3,35.9-0.3S82.8,260.1,82.8,260.3z"/>
	<rect x="11.1" y="285.8" class="st1" width="59.7" height="4.4"/>
</g>
<g>
	<path pointer-events="stroke" class="st7" d="M626.7,368.9v42.6"/>
	<path pointer-events="all" class="st8" d="M626.7,362.1l4.5,9l-4.5-2.2l-4.5,2.2L626.7,362.1z"/>
	<path pointer-events="all" class="st8" d="M626.7,418.2l-4.5-9l4.5,2.2l4.5-2.2L626.7,418.2z"/>
	<ellipse pointer-events="all" class="st9" cx="626.7" cy="318.8" rx="60" ry="40"/>
	<g transform="translate(-0.5 -0.5)">
		<text transform="matrix(1 0 0 1 576.677 324.535)" class="st10 st11">Orchestrator</text>
	</g>
	<ellipse pointer-events="all" class="st9" cx="626.7" cy="461.5" rx="60" ry="40"/>
	<g transform="translate(-0.5 -0.5)">
		<text transform="matrix(1 0 0 1 567.1907 457.9953)" class="st10 st11">       Policy</text>
		<text transform="matrix(1 0 0 1 567.1907 479.5953)" class="st10 st11">      Enforcer</text>
	</g>
	<path pointer-events="none" class="st9" d="M572.1-95.1h358.2c27,0,48.9,21.9,48.9,48.9V182c0,27-21.9,48.9-48.9,48.9H572.1
		c-27,0-48.9-21.9-48.9-48.9V-46.2C523.2-73.2,545.1-95.1,572.1-95.1z"/>
	<path pointer-events="none" class="st9" d="M579.7-90.3h358.2c27,0,48.9,21.9,48.9,48.9v228.2c0,27-21.9,48.9-48.9,48.9H579.7
		c-27,0-48.9-21.9-48.9-48.9V-41.4C530.8-68.4,552.7-90.3,579.7-90.3z"/>
	<path pointer-events="none" class="st9" d="M587.3-84.3h358.2c27,0,48.9,21.9,48.9,48.9v228.2c0,27-21.9,48.9-48.9,48.9H587.3
		c-27,0-48.9-21.9-48.9-48.9V-35.4C538.4-62.4,560.3-84.3,587.3-84.3z"/>
	<path pointer-events="none" class="st9" d="M593.6-76.5h358.2c27,0,48.9,21.9,48.9,48.9v228.2c0,27-21.9,48.9-48.9,48.9H593.6
		c-27,0-48.9-21.9-48.9-48.9V-27.6C544.7-54.6,566.6-76.5,593.6-76.5z"/>
	<g transform="translate(-0.5 -0.5)">
		<path pointer-events="none" class="st12" d="M581.6,130.9l-5.9,9.7l-0.2-5.4l-6.1-1.2L581.6,130.9z"/>
		<text transform="matrix(1 0 0 1 611.1668 -50.465)" class="st10 st11">Data stewards</text>
	</g>
	<ellipse pointer-events="none" class="st9" cx="629.4" cy="84.2" rx="74.1" ry="53"/>
	<g transform="translate(-0.5 -0.5)">
		<text transform="matrix(1 0 0 1 561.6506 89.535)" class="st10 st11">Distributed agent</text>
	</g>
	<path pointer-events="none" class="st7" d="M680.6,133.9l138.8,134.8"/>
	<path pointer-events="none" class="st8" d="M675.8,129.2l9.6,3l-4.8,1.7l-1.5,4.8L675.8,129.2z"/>
	<path pointer-events="none" class="st8" d="M824.3,273.4l-9.6-3l4.8-1.7l1.5-4.8L824.3,273.4z"/>
	<path pointer-events="none" class="st7" d="M781.6,318.8h-84.8"/>
	<path pointer-events="none" class="st8" d="M788.3,318.8l-9,4.5l2.2-4.5l-2.2-4.5L788.3,318.8z"/>
	<path pointer-events="none" class="st8" d="M690,318.8l9-4.5l-2.2,4.5l2.2,4.5L690,318.8z"/>
	<path pointer-events="none" class="st7" d="M627.1,278.8l1.7-131.4"/>
	<path pointer-events="none" class="st8" d="M628.9,140.6l4.4,9.1l-4.5-2.3l-4.5,2.2L628.9,140.6z"/>
	<rect x="739.7" y="128.8" class="st13" width="277.3" height="68.3"/>
	<text transform="matrix(1 0 0 1 739.653 141.6149)"><tspan x="0" y="0" class="st14 st11">Generate microservice </tspan><tspan x="0" y="21.6" class="st14 st11">chain based on</tspan><tspan x="0" y="43.2" class="st14 st11"> job information</tspan></text>
	<rect x="685.9" y="354.1" class="st13" width="267.2" height="44.9"/>
	<text transform="matrix(1 0 0 1 685.9 366.9114)"><tspan x="0" y="0" class="st14 st11">Alter job information to change </tspan><tspan x="0" y="21.6" class="st14 st11">archetype</tspan></text>
	<rect x="559.1" y="256" class="st13" width="210.8" height="29.8"/>
	<text transform="matrix(1 0 0 1 559.1075 268.8213)" class="st14 st11">Send job information</text>
</g>
<g>
	<rect x="359.4" y="231.7" pointer-events="all" class="st13" width="78" height="78"/>
	<path pointer-events="none" class="st7" d="M39.4,26.7h39.9"/>
	<path pointer-events="none" class="st8" d="M86,26.7l-9,4.5l2.2-4.5L77,22.2L86,26.7z"/>
	<path pointer-events="none" class="st15" d="M39.4,69.7h39.9"/>
	<path pointer-events="none" class="st12" d="M86,69.7l-9,4.5l2.2-4.5L77,65.2L86,69.7z"/>
	<g transform="translate(-0.5 -0.5)">
		<text transform="matrix(1 0 0 1 95.724 31.6721)" class="st10 st16">D</text>
		<text transform="matrix(1 0 0 1 105.124 31.6721)" class="st10 st16">YNAMOS internal </text>
		<text transform="matrix(1 0 0 1 95.724 46.0721)" class="st10 st16">communication</text>
	</g>
	<g transform="translate(-0.5 -0.5)">
		<text transform="matrix(1 0 0 1 95.3766 75.6721)" class="st10 st16">User initiated </text>
		<text transform="matrix(1 0 0 1 95.3766 90.0721)" class="st10 st16">communication</text>
	</g>
	<path pointer-events="none" class="st15" d="M313.5,318.7h242.8"/>
	<path pointer-events="none" class="st12" d="M564.1,318.7l-8,4.5l2.2-4.5l-3.2-4.5L564.1,318.7z"/>
	
		<rect x="326.2" y="176.5" pointer-events="all" transform="matrix(0.8173 -0.5763 0.5763 0.8173 -55.2751 256.6349)" class="st13" width="101.6" height="78"/>
	<path pointer-events="none" class="st15" d="M314.2,318.5l258.6-182.3"/>
	<path pointer-events="none" class="st12" d="M581.1,130.4l-5.9,9.7l-0.2-5.4l-6.1-1.2L581.1,130.4z"/>
</g>
<image style="overflow:visible;" width="470" height="169" xlink:href="../dynamos/etcd.drawio.png"  transform="matrix(0.3107 0 0 0.3107 789.25 292.25)">
</image>
</svg>
